<mxfile host="Electron" agent="Mozilla/5.0 (Windows NT 10.0; Win64; x64) AppleWebKit/537.36 (KHTML, like Gecko) draw.io/24.7.8 Chrome/128.0.6613.36 Electron/32.0.1 Safari/537.36" version="24.7.8">
  <diagram name="Page-1" id="xBdfEz-9WboyrYXsSSGI">
    <mxGraphModel dx="3118" dy="2331" grid="0" gridSize="10" guides="1" tooltips="1" connect="1" arrows="1" fold="1" page="0" pageScale="1" pageWidth="850" pageHeight="1100" math="0" shadow="0">
      <root>
        <mxCell id="0" />
        <mxCell id="1" parent="0" />
        <mxCell id="P_JwN5DNRsCG7_sgpVhp-50" value="" style="rounded=0;whiteSpace=wrap;html=1;strokeWidth=10;" parent="1" vertex="1">
          <mxGeometry x="4628" y="-579" width="472" height="688" as="geometry" />
        </mxCell>
        <mxCell id="P_JwN5DNRsCG7_sgpVhp-44" value="" style="rounded=0;whiteSpace=wrap;html=1;strokeWidth=10;" parent="1" vertex="1">
          <mxGeometry x="-1296" y="-704" width="1857" height="2019" as="geometry" />
        </mxCell>
        <mxCell id="P_JwN5DNRsCG7_sgpVhp-42" value="" style="rounded=0;whiteSpace=wrap;html=1;strokeWidth=10;" parent="1" vertex="1">
          <mxGeometry x="3299" y="-582" width="704" height="756" as="geometry" />
        </mxCell>
        <mxCell id="P_JwN5DNRsCG7_sgpVhp-40" value="" style="rounded=0;whiteSpace=wrap;html=1;strokeWidth=10;" parent="1" vertex="1">
          <mxGeometry x="889" y="-703" width="2167" height="2034" as="geometry" />
        </mxCell>
        <mxCell id="nuiKF1VjGRspzTlw7c-V-1" value="&lt;font style=&quot;font-size: 18px;&quot;&gt;User_A&lt;/font&gt;&lt;div&gt;&lt;span style=&quot;font-size: 18px;&quot;&gt;&lt;br&gt;&lt;/span&gt;&lt;div&gt;&lt;font style=&quot;font-size: 18px;&quot;&gt;_id =&amp;gt; 1&lt;/font&gt;&lt;/div&gt;&lt;/div&gt;" style="rounded=1;whiteSpace=wrap;html=1;fillColor=#6a00ff;strokeColor=#3700CC;fontColor=#ffffff;" parent="1" vertex="1">
          <mxGeometry x="-976" y="-222" width="160" height="120" as="geometry" />
        </mxCell>
        <mxCell id="nuiKF1VjGRspzTlw7c-V-3" value="" style="endArrow=none;html=1;rounded=0;strokeWidth=28;fillColor=#f9f7ed;strokeColor=#FFFFFF;" parent="1" edge="1">
          <mxGeometry width="50" height="50" relative="1" as="geometry">
            <mxPoint x="727" y="1557" as="sourcePoint" />
            <mxPoint x="727" y="-1016" as="targetPoint" />
          </mxGeometry>
        </mxCell>
        <mxCell id="nuiKF1VjGRspzTlw7c-V-4" value="" style="rounded=1;whiteSpace=wrap;html=1;direction=south;fillColor=#9DB9D4;strokeColor=#314354;fontColor=#ffffff;" parent="1" vertex="1">
          <mxGeometry x="-276" y="-151" width="536" height="864" as="geometry" />
        </mxCell>
        <mxCell id="nuiKF1VjGRspzTlw7c-V-5" value="" style="endArrow=classic;html=1;rounded=0;exitX=1;exitY=0.5;exitDx=0;exitDy=0;entryX=0;entryY=0.5;entryDx=0;entryDy=0;" parent="1" source="nuiKF1VjGRspzTlw7c-V-1" target="cfrhRi3zTsHiO-jlDfqi-22" edge="1">
          <mxGeometry width="50" height="50" relative="1" as="geometry">
            <mxPoint x="91" y="187" as="sourcePoint" />
            <mxPoint x="141" y="137" as="targetPoint" />
          </mxGeometry>
        </mxCell>
        <mxCell id="nuiKF1VjGRspzTlw7c-V-6" value="User_A sends message" style="text;html=1;align=center;verticalAlign=middle;resizable=0;points=[];autosize=1;strokeColor=none;fillColor=none;rotation=17;" parent="1" vertex="1">
          <mxGeometry x="-686" y="-141" width="145" height="26" as="geometry" />
        </mxCell>
        <mxCell id="nuiKF1VjGRspzTlw7c-V-7" value="" style="endArrow=classic;html=1;rounded=0;entryX=0;entryY=0.5;entryDx=0;entryDy=0;exitX=1;exitY=0.5;exitDx=0;exitDy=0;" parent="1" source="nuiKF1VjGRspzTlw7c-V-119" target="nuiKF1VjGRspzTlw7c-V-11" edge="1">
          <mxGeometry width="50" height="50" relative="1" as="geometry">
            <mxPoint x="1090" y="192" as="sourcePoint" />
            <mxPoint x="978" y="176" as="targetPoint" />
          </mxGeometry>
        </mxCell>
        <mxCell id="nuiKF1VjGRspzTlw7c-V-8" value="message is encrypted with&amp;nbsp;&lt;div&gt;User_A and User_B public keys&lt;/div&gt;" style="text;html=1;align=center;verticalAlign=middle;resizable=0;points=[];autosize=1;strokeColor=none;fillColor=none;rotation=0;" parent="1" vertex="1">
          <mxGeometry x="350" y="-42" width="187" height="41" as="geometry" />
        </mxCell>
        <mxCell id="pGtAir0MSBUQOU73R-HG-2" style="edgeStyle=orthogonalEdgeStyle;rounded=0;orthogonalLoop=1;jettySize=auto;html=1;exitX=1;exitY=0.75;exitDx=0;exitDy=0;entryX=0.5;entryY=0;entryDx=0;entryDy=0;" parent="1" source="nuiKF1VjGRspzTlw7c-V-11" target="nuiKF1VjGRspzTlw7c-V-118" edge="1">
          <mxGeometry relative="1" as="geometry" />
        </mxCell>
        <mxCell id="nuiKF1VjGRspzTlw7c-V-11" value="" style="rounded=1;whiteSpace=wrap;html=1;fillColor=#0050ef;strokeColor=#001DBC;fontColor=#ffffff;" parent="1" vertex="1">
          <mxGeometry x="1334" y="93" width="479" height="122" as="geometry" />
        </mxCell>
        <mxCell id="nuiKF1VjGRspzTlw7c-V-15" value="&lt;font style=&quot;font-size: 14px;&quot;&gt;channels map contains channels (queues) for each chat._id and group._id&lt;/font&gt;" style="text;html=1;align=center;verticalAlign=middle;resizable=0;points=[];autosize=1;strokeColor=none;fillColor=none;" parent="1" vertex="1">
          <mxGeometry x="934" y="-535" width="477" height="29" as="geometry" />
        </mxCell>
        <mxCell id="nuiKF1VjGRspzTlw7c-V-17" value="&lt;span style=&quot;font-size: 18px; text-wrap: wrap;&quot;&gt;channels&lt;/span&gt;" style="shape=table;startSize=30;container=1;collapsible=1;childLayout=tableLayout;fixedRows=1;rowLines=0;fontStyle=1;align=center;resizeLast=1;html=1;" parent="1" vertex="1">
          <mxGeometry x="1082" y="-495" width="180" height="150" as="geometry" />
        </mxCell>
        <mxCell id="nuiKF1VjGRspzTlw7c-V-18" value="" style="shape=tableRow;horizontal=0;startSize=0;swimlaneHead=0;swimlaneBody=0;fillColor=none;collapsible=0;dropTarget=0;points=[[0,0.5],[1,0.5]];portConstraint=eastwest;top=0;left=0;right=0;bottom=1;" parent="nuiKF1VjGRspzTlw7c-V-17" vertex="1">
          <mxGeometry y="30" width="180" height="30" as="geometry" />
        </mxCell>
        <mxCell id="nuiKF1VjGRspzTlw7c-V-19" value="_id" style="shape=partialRectangle;connectable=0;fillColor=none;top=0;left=0;bottom=0;right=0;fontStyle=1;overflow=hidden;whiteSpace=wrap;html=1;" parent="nuiKF1VjGRspzTlw7c-V-18" vertex="1">
          <mxGeometry width="30" height="30" as="geometry">
            <mxRectangle width="30" height="30" as="alternateBounds" />
          </mxGeometry>
        </mxCell>
        <mxCell id="nuiKF1VjGRspzTlw7c-V-20" value="channel" style="shape=partialRectangle;connectable=0;fillColor=none;top=0;left=0;bottom=0;right=0;align=left;spacingLeft=6;fontStyle=1;overflow=hidden;whiteSpace=wrap;html=1;" parent="nuiKF1VjGRspzTlw7c-V-18" vertex="1">
          <mxGeometry x="30" width="150" height="30" as="geometry">
            <mxRectangle width="150" height="30" as="alternateBounds" />
          </mxGeometry>
        </mxCell>
        <mxCell id="nuiKF1VjGRspzTlw7c-V-21" value="" style="shape=tableRow;horizontal=0;startSize=0;swimlaneHead=0;swimlaneBody=0;fillColor=none;collapsible=0;dropTarget=0;points=[[0,0.5],[1,0.5]];portConstraint=eastwest;top=0;left=0;right=0;bottom=0;" parent="nuiKF1VjGRspzTlw7c-V-17" vertex="1">
          <mxGeometry y="60" width="180" height="30" as="geometry" />
        </mxCell>
        <mxCell id="nuiKF1VjGRspzTlw7c-V-22" value="1" style="shape=partialRectangle;connectable=0;fillColor=none;top=0;left=0;bottom=0;right=0;editable=1;overflow=hidden;whiteSpace=wrap;html=1;" parent="nuiKF1VjGRspzTlw7c-V-21" vertex="1">
          <mxGeometry width="30" height="30" as="geometry">
            <mxRectangle width="30" height="30" as="alternateBounds" />
          </mxGeometry>
        </mxCell>
        <mxCell id="nuiKF1VjGRspzTlw7c-V-23" value="channel 1" style="shape=partialRectangle;connectable=0;fillColor=none;top=0;left=0;bottom=0;right=0;align=left;spacingLeft=6;overflow=hidden;whiteSpace=wrap;html=1;" parent="nuiKF1VjGRspzTlw7c-V-21" vertex="1">
          <mxGeometry x="30" width="150" height="30" as="geometry">
            <mxRectangle width="150" height="30" as="alternateBounds" />
          </mxGeometry>
        </mxCell>
        <mxCell id="nuiKF1VjGRspzTlw7c-V-24" value="" style="shape=tableRow;horizontal=0;startSize=0;swimlaneHead=0;swimlaneBody=0;fillColor=none;collapsible=0;dropTarget=0;points=[[0,0.5],[1,0.5]];portConstraint=eastwest;top=0;left=0;right=0;bottom=0;" parent="nuiKF1VjGRspzTlw7c-V-17" vertex="1">
          <mxGeometry y="90" width="180" height="30" as="geometry" />
        </mxCell>
        <mxCell id="nuiKF1VjGRspzTlw7c-V-25" value="2" style="shape=partialRectangle;connectable=0;fillColor=none;top=0;left=0;bottom=0;right=0;editable=1;overflow=hidden;whiteSpace=wrap;html=1;" parent="nuiKF1VjGRspzTlw7c-V-24" vertex="1">
          <mxGeometry width="30" height="30" as="geometry">
            <mxRectangle width="30" height="30" as="alternateBounds" />
          </mxGeometry>
        </mxCell>
        <mxCell id="nuiKF1VjGRspzTlw7c-V-26" value="channel 2" style="shape=partialRectangle;connectable=0;fillColor=none;top=0;left=0;bottom=0;right=0;align=left;spacingLeft=6;overflow=hidden;whiteSpace=wrap;html=1;" parent="nuiKF1VjGRspzTlw7c-V-24" vertex="1">
          <mxGeometry x="30" width="150" height="30" as="geometry">
            <mxRectangle width="150" height="30" as="alternateBounds" />
          </mxGeometry>
        </mxCell>
        <mxCell id="nuiKF1VjGRspzTlw7c-V-27" value="" style="shape=tableRow;horizontal=0;startSize=0;swimlaneHead=0;swimlaneBody=0;fillColor=none;collapsible=0;dropTarget=0;points=[[0,0.5],[1,0.5]];portConstraint=eastwest;top=0;left=0;right=0;bottom=0;" parent="nuiKF1VjGRspzTlw7c-V-17" vertex="1">
          <mxGeometry y="120" width="180" height="30" as="geometry" />
        </mxCell>
        <mxCell id="nuiKF1VjGRspzTlw7c-V-28" value="" style="shape=partialRectangle;connectable=0;fillColor=none;top=0;left=0;bottom=0;right=0;editable=1;overflow=hidden;whiteSpace=wrap;html=1;" parent="nuiKF1VjGRspzTlw7c-V-27" vertex="1">
          <mxGeometry width="30" height="30" as="geometry">
            <mxRectangle width="30" height="30" as="alternateBounds" />
          </mxGeometry>
        </mxCell>
        <mxCell id="nuiKF1VjGRspzTlw7c-V-29" value="" style="shape=partialRectangle;connectable=0;fillColor=none;top=0;left=0;bottom=0;right=0;align=left;spacingLeft=6;overflow=hidden;whiteSpace=wrap;html=1;" parent="nuiKF1VjGRspzTlw7c-V-27" vertex="1">
          <mxGeometry x="30" width="150" height="30" as="geometry">
            <mxRectangle width="150" height="30" as="alternateBounds" />
          </mxGeometry>
        </mxCell>
        <mxCell id="nuiKF1VjGRspzTlw7c-V-30" value="&lt;font style=&quot;font-size: 18px;&quot;&gt;User_A and User_B are friends and they have chat._id&amp;nbsp;&lt;/font&gt;&lt;div style=&quot;font-size: 18px;&quot;&gt;&lt;font style=&quot;font-size: 18px;&quot;&gt;and this chat._id have channel. eg: channel 1&lt;/font&gt;&lt;/div&gt;&lt;div style=&quot;font-size: 18px;&quot;&gt;&lt;font style=&quot;font-size: 18px;&quot;&gt;now message will be execute as per it&#39;s turn&lt;/font&gt;&lt;/div&gt;" style="text;html=1;align=center;verticalAlign=middle;resizable=0;points=[];autosize=1;strokeColor=none;fillColor=none;" parent="1" vertex="1">
          <mxGeometry x="1359" y="-41" width="458" height="77" as="geometry" />
        </mxCell>
        <mxCell id="nuiKF1VjGRspzTlw7c-V-31" value="message is added in channel" style="text;html=1;align=center;verticalAlign=middle;resizable=0;points=[];autosize=1;strokeColor=none;fillColor=none;" parent="1" vertex="1">
          <mxGeometry x="1129.5" y="155" width="173" height="26" as="geometry" />
        </mxCell>
        <mxCell id="nuiKF1VjGRspzTlw7c-V-34" value="&lt;font color=&quot;#ffffff&quot; style=&quot;font-size: 40px;&quot;&gt;MongoDB&lt;/font&gt;" style="strokeWidth=2;html=1;shape=mxgraph.flowchart.database;whiteSpace=wrap;fillColor=#fa6800;fontColor=#000000;strokeColor=#C73500;" parent="1" vertex="1">
          <mxGeometry x="4704" y="-227.5" width="324" height="288" as="geometry" />
        </mxCell>
        <mxCell id="nuiKF1VjGRspzTlw7c-V-36" value="Message is produced to Kafka" style="text;html=1;align=center;verticalAlign=middle;resizable=0;points=[];autosize=1;strokeColor=none;fillColor=none;" parent="1" vertex="1">
          <mxGeometry x="2006" y="126" width="179" height="26" as="geometry" />
        </mxCell>
        <mxCell id="nuiKF1VjGRspzTlw7c-V-39" value="&lt;font style=&quot;font-size: 16px;&quot;&gt;new uuid and Date-Time is created&lt;/font&gt;&lt;div style=&quot;font-size: 16px;&quot;&gt;&lt;font style=&quot;font-size: 16px;&quot;&gt;for message&amp;nbsp;&lt;/font&gt;&lt;/div&gt;" style="text;html=1;align=center;verticalAlign=middle;resizable=0;points=[];autosize=1;strokeColor=#2D7600;fillColor=#60a917;fontColor=#ffffff;" parent="1" vertex="1">
          <mxGeometry x="1534" y="148" width="266" height="50" as="geometry" />
        </mxCell>
        <mxCell id="nuiKF1VjGRspzTlw7c-V-44" value="if User_B online&lt;div&gt;(if socketIds array is present in userSocketIds)&lt;/div&gt;" style="rhombus;whiteSpace=wrap;html=1;fontColor=#000000;fillColor=#ffffc0;strokeColor=#ff0000;" parent="1" vertex="1">
          <mxGeometry x="1918" y="976" width="360" height="195" as="geometry" />
        </mxCell>
        <mxCell id="nuiKF1VjGRspzTlw7c-V-46" value="yes" style="edgeStyle=orthogonalEdgeStyle;html=1;align=left;verticalAlign=top;endArrow=open;endSize=8;strokeColor=#ff0000;rounded=0;exitX=0;exitY=0.5;exitDx=0;exitDy=0;entryX=1;entryY=0.5;entryDx=0;entryDy=0;" parent="1" source="nuiKF1VjGRspzTlw7c-V-44" target="Rw7CRna9a3xsddY8eC8c-6" edge="1">
          <mxGeometry x="-0.9448" y="-31" relative="1" as="geometry">
            <mxPoint x="321" y="1536" as="targetPoint" />
            <Array as="points">
              <mxPoint x="1918" y="1077" />
              <mxPoint x="1001" y="1077" />
              <mxPoint x="1001" y="599" />
            </Array>
            <mxPoint as="offset" />
          </mxGeometry>
        </mxCell>
        <mxCell id="nuiKF1VjGRspzTlw7c-V-47" value="produce unseen notification count by increasing it by&amp;nbsp; + 1 for User_B for chat._id to Kafka" style="text;html=1;align=center;verticalAlign=middle;resizable=0;points=[];autosize=1;strokeColor=none;fillColor=none;" parent="1" vertex="1">
          <mxGeometry x="2313" y="1089" width="491" height="26" as="geometry" />
        </mxCell>
        <mxCell id="nuiKF1VjGRspzTlw7c-V-92" value="&lt;span style=&quot;font-weight: 400;&quot;&gt;&lt;font style=&quot;font-size: 18px;&quot;&gt;userSocketIds&lt;/font&gt;&lt;/span&gt;" style="shape=table;startSize=30;container=1;collapsible=1;childLayout=tableLayout;fixedRows=1;rowLines=0;fontStyle=1;align=center;resizeLast=1;html=1;" parent="1" vertex="1">
          <mxGeometry x="2477" y="-495" width="252" height="150" as="geometry" />
        </mxCell>
        <mxCell id="nuiKF1VjGRspzTlw7c-V-93" value="" style="shape=tableRow;horizontal=0;startSize=0;swimlaneHead=0;swimlaneBody=0;fillColor=none;collapsible=0;dropTarget=0;points=[[0,0.5],[1,0.5]];portConstraint=eastwest;top=0;left=0;right=0;bottom=1;" parent="nuiKF1VjGRspzTlw7c-V-92" vertex="1">
          <mxGeometry y="30" width="252" height="30" as="geometry" />
        </mxCell>
        <mxCell id="nuiKF1VjGRspzTlw7c-V-94" value="_id" style="shape=partialRectangle;connectable=0;fillColor=none;top=0;left=0;bottom=0;right=0;fontStyle=1;overflow=hidden;whiteSpace=wrap;html=1;" parent="nuiKF1VjGRspzTlw7c-V-93" vertex="1">
          <mxGeometry width="30" height="30" as="geometry">
            <mxRectangle width="30" height="30" as="alternateBounds" />
          </mxGeometry>
        </mxCell>
        <mxCell id="nuiKF1VjGRspzTlw7c-V-95" value="socket.id [ ]&amp;nbsp; (array of socketIds)" style="shape=partialRectangle;connectable=0;fillColor=none;top=0;left=0;bottom=0;right=0;align=left;spacingLeft=6;fontStyle=1;overflow=hidden;whiteSpace=wrap;html=1;" parent="nuiKF1VjGRspzTlw7c-V-93" vertex="1">
          <mxGeometry x="30" width="222" height="30" as="geometry">
            <mxRectangle width="222" height="30" as="alternateBounds" />
          </mxGeometry>
        </mxCell>
        <mxCell id="nuiKF1VjGRspzTlw7c-V-96" value="" style="shape=tableRow;horizontal=0;startSize=0;swimlaneHead=0;swimlaneBody=0;fillColor=none;collapsible=0;dropTarget=0;points=[[0,0.5],[1,0.5]];portConstraint=eastwest;top=0;left=0;right=0;bottom=0;" parent="nuiKF1VjGRspzTlw7c-V-92" vertex="1">
          <mxGeometry y="60" width="252" height="30" as="geometry" />
        </mxCell>
        <mxCell id="nuiKF1VjGRspzTlw7c-V-97" value="1" style="shape=partialRectangle;connectable=0;fillColor=none;top=0;left=0;bottom=0;right=0;editable=1;overflow=hidden;whiteSpace=wrap;html=1;" parent="nuiKF1VjGRspzTlw7c-V-96" vertex="1">
          <mxGeometry width="30" height="30" as="geometry">
            <mxRectangle width="30" height="30" as="alternateBounds" />
          </mxGeometry>
        </mxCell>
        <mxCell id="nuiKF1VjGRspzTlw7c-V-98" value="socketIds" style="shape=partialRectangle;connectable=0;fillColor=none;top=0;left=0;bottom=0;right=0;align=left;spacingLeft=6;overflow=hidden;whiteSpace=wrap;html=1;" parent="nuiKF1VjGRspzTlw7c-V-96" vertex="1">
          <mxGeometry x="30" width="222" height="30" as="geometry">
            <mxRectangle width="222" height="30" as="alternateBounds" />
          </mxGeometry>
        </mxCell>
        <mxCell id="nuiKF1VjGRspzTlw7c-V-99" value="" style="shape=tableRow;horizontal=0;startSize=0;swimlaneHead=0;swimlaneBody=0;fillColor=none;collapsible=0;dropTarget=0;points=[[0,0.5],[1,0.5]];portConstraint=eastwest;top=0;left=0;right=0;bottom=0;" parent="nuiKF1VjGRspzTlw7c-V-92" vertex="1">
          <mxGeometry y="90" width="252" height="30" as="geometry" />
        </mxCell>
        <mxCell id="nuiKF1VjGRspzTlw7c-V-100" value="2" style="shape=partialRectangle;connectable=0;fillColor=none;top=0;left=0;bottom=0;right=0;editable=1;overflow=hidden;whiteSpace=wrap;html=1;" parent="nuiKF1VjGRspzTlw7c-V-99" vertex="1">
          <mxGeometry width="30" height="30" as="geometry">
            <mxRectangle width="30" height="30" as="alternateBounds" />
          </mxGeometry>
        </mxCell>
        <mxCell id="nuiKF1VjGRspzTlw7c-V-101" value="socketIds" style="shape=partialRectangle;connectable=0;fillColor=none;top=0;left=0;bottom=0;right=0;align=left;spacingLeft=6;overflow=hidden;whiteSpace=wrap;html=1;" parent="nuiKF1VjGRspzTlw7c-V-99" vertex="1">
          <mxGeometry x="30" width="222" height="30" as="geometry">
            <mxRectangle width="222" height="30" as="alternateBounds" />
          </mxGeometry>
        </mxCell>
        <mxCell id="nuiKF1VjGRspzTlw7c-V-102" value="" style="shape=tableRow;horizontal=0;startSize=0;swimlaneHead=0;swimlaneBody=0;fillColor=none;collapsible=0;dropTarget=0;points=[[0,0.5],[1,0.5]];portConstraint=eastwest;top=0;left=0;right=0;bottom=0;" parent="nuiKF1VjGRspzTlw7c-V-92" vertex="1">
          <mxGeometry y="120" width="252" height="30" as="geometry" />
        </mxCell>
        <mxCell id="nuiKF1VjGRspzTlw7c-V-103" value="" style="shape=partialRectangle;connectable=0;fillColor=none;top=0;left=0;bottom=0;right=0;editable=1;overflow=hidden;whiteSpace=wrap;html=1;" parent="nuiKF1VjGRspzTlw7c-V-102" vertex="1">
          <mxGeometry width="30" height="30" as="geometry">
            <mxRectangle width="30" height="30" as="alternateBounds" />
          </mxGeometry>
        </mxCell>
        <mxCell id="nuiKF1VjGRspzTlw7c-V-104" value="" style="shape=partialRectangle;connectable=0;fillColor=none;top=0;left=0;bottom=0;right=0;align=left;spacingLeft=6;overflow=hidden;whiteSpace=wrap;html=1;" parent="nuiKF1VjGRspzTlw7c-V-102" vertex="1">
          <mxGeometry x="30" width="222" height="30" as="geometry">
            <mxRectangle width="222" height="30" as="alternateBounds" />
          </mxGeometry>
        </mxCell>
        <mxCell id="nuiKF1VjGRspzTlw7c-V-112" style="edgeStyle=orthogonalEdgeStyle;rounded=0;orthogonalLoop=1;jettySize=auto;html=1;entryX=1;entryY=0;entryDx=0;entryDy=0;" parent="1" source="nuiKF1VjGRspzTlw7c-V-99" target="nuiKF1VjGRspzTlw7c-V-44" edge="1">
          <mxGeometry relative="1" as="geometry">
            <mxPoint x="1999" y="263" as="targetPoint" />
            <Array as="points">
              <mxPoint x="2444" y="-390" />
              <mxPoint x="2444" y="1025" />
            </Array>
          </mxGeometry>
        </mxCell>
        <mxCell id="nuiKF1VjGRspzTlw7c-V-115" value="" style="endArrow=classic;html=1;rounded=0;entryX=1;entryY=0.5;entryDx=0;entryDy=0;exitX=0;exitY=0.5;exitDx=0;exitDy=0;edgeStyle=orthogonalEdgeStyle;curved=1;" parent="1" source="Rw7CRna9a3xsddY8eC8c-6" target="cfrhRi3zTsHiO-jlDfqi-20" edge="1">
          <mxGeometry width="50" height="50" relative="1" as="geometry">
            <mxPoint x="-298" y="291" as="sourcePoint" />
            <mxPoint x="-362.0000000000002" y="361.5" as="targetPoint" />
          </mxGeometry>
        </mxCell>
        <mxCell id="nuiKF1VjGRspzTlw7c-V-116" value="&lt;span style=&quot;color: rgb(240, 240, 240); font-family: Helvetica; font-size: 12px; font-style: normal; font-variant-ligatures: normal; font-variant-caps: normal; font-weight: 400; letter-spacing: normal; orphans: 2; text-align: center; text-indent: 0px; text-transform: none; widows: 2; word-spacing: 0px; -webkit-text-stroke-width: 0px; white-space: nowrap; background-color: rgb(24, 20, 29); text-decoration-thickness: initial; text-decoration-style: initial; text-decoration-color: initial; display: inline !important; float: none;&quot;&gt;User_A message received by User_B&lt;/span&gt;" style="text;whiteSpace=wrap;html=1;rotation=0;" parent="1" vertex="1">
          <mxGeometry x="-734" y="810" width="205" height="36" as="geometry" />
        </mxCell>
        <mxCell id="pGtAir0MSBUQOU73R-HG-10" style="edgeStyle=orthogonalEdgeStyle;rounded=0;orthogonalLoop=1;jettySize=auto;html=1;entryX=0.5;entryY=0;entryDx=0;entryDy=0;exitX=0.5;exitY=1;exitDx=0;exitDy=0;" parent="1" source="19qX6jDC2SZ2UWSstIv0-21" target="pGtAir0MSBUQOU73R-HG-7" edge="1">
          <mxGeometry relative="1" as="geometry">
            <mxPoint x="1644.3334757486982" y="675.9999491373701" as="targetPoint" />
            <mxPoint x="1683" y="639" as="sourcePoint" />
            <Array as="points">
              <mxPoint x="1712" y="639" />
              <mxPoint x="1712" y="639" />
            </Array>
          </mxGeometry>
        </mxCell>
        <mxCell id="bDJ4OmMcAz1w1Z4mRW5s-5" style="edgeStyle=orthogonalEdgeStyle;rounded=0;orthogonalLoop=1;jettySize=auto;html=1;exitX=0.5;exitY=1;exitDx=0;exitDy=0;entryX=0.5;entryY=0;entryDx=0;entryDy=0;" parent="1" source="19qX6jDC2SZ2UWSstIv0-23" target="nuiKF1VjGRspzTlw7c-V-44" edge="1">
          <mxGeometry relative="1" as="geometry">
            <mxPoint x="2026.181818181818" y="945.909024325284" as="targetPoint" />
          </mxGeometry>
        </mxCell>
        <mxCell id="nuiKF1VjGRspzTlw7c-V-118" value="&lt;font color=&quot;#ff3333&quot; size=&quot;1&quot; style=&quot;&quot;&gt;&lt;b style=&quot;font-size: 18px;&quot;&gt;each message have two text:&lt;/b&gt;&lt;/font&gt;&lt;div style=&quot;font-size: 18px;&quot;&gt;&lt;div&gt;&lt;b&gt;&lt;font color=&quot;#ff3333&quot; style=&quot;font-size: 14px;&quot;&gt;fromText&lt;/font&gt;&lt;font color=&quot;#ff3333&quot; style=&quot;font-size: 14px;&quot;&gt;:&lt;/font&gt;&lt;/b&gt;&lt;font color=&quot;#66ffb3&quot; style=&quot;font-size: 14px;&quot;&gt; &lt;/font&gt;&lt;font color=&quot;#0000ff&quot; style=&quot;font-size: 14px;&quot;&gt;encrypted with sender public key&lt;/font&gt;&lt;/div&gt;&lt;div&gt;&lt;font color=&quot;#ff3333&quot;&gt;&lt;b&gt;&lt;font style=&quot;font-size: 14px;&quot;&gt;toText&lt;/font&gt;&lt;font style=&quot;font-size: 14px;&quot;&gt;:&lt;/font&gt;&lt;/b&gt;&lt;/font&gt;&lt;font color=&quot;#66ffb3&quot; style=&quot;font-size: 14px;&quot;&gt; &lt;/font&gt;&lt;font color=&quot;#0000ff&quot; style=&quot;font-size: 14px;&quot;&gt;encrypted with reciever public key&lt;/font&gt;&lt;/div&gt;&lt;div&gt;&lt;font color=&quot;#66ffb3&quot; style=&quot;font-size: 14px;&quot;&gt;&lt;br&gt;&lt;/font&gt;&lt;/div&gt;&lt;div&gt;&lt;font style=&quot;font-size: 18px;&quot;&gt;&lt;b style=&quot;&quot;&gt;&lt;font style=&quot;font-size: 18px;&quot; color=&quot;#0000ff&quot;&gt;only&lt;/font&gt;&lt;font style=&quot;font-size: 18px;&quot; color=&quot;#66ffb3&quot;&gt; &lt;/font&gt;&lt;font style=&quot;font-size: 18px;&quot; color=&quot;#ff3399&quot;&gt;toText&lt;/font&gt;&lt;font style=&quot;font-size: 18px;&quot; color=&quot;#66ffb3&quot;&gt; &lt;/font&gt;&lt;font style=&quot;font-size: 18px;&quot; color=&quot;#0000ff&quot;&gt;is send as text to reciever&amp;nbsp;&lt;/font&gt;&lt;/b&gt;&lt;/font&gt;&lt;b style=&quot;background-color: initial;&quot;&gt;&lt;font style=&quot;font-size: 18px;&quot; color=&quot;#0000ff&quot;&gt;(User_B)&lt;/font&gt;&lt;/b&gt;&lt;/div&gt;&lt;div&gt;&lt;font style=&quot;font-size: 18px;&quot;&gt;&lt;b style=&quot;background-color: initial;&quot;&gt;&lt;font style=&quot;font-size: 18px;&quot; color=&quot;#0000ff&quot;&gt;and&amp;nbsp;&lt;/font&gt;&lt;/b&gt;&lt;b&gt;&lt;font style=&quot;font-size: 18px;&quot; color=&quot;#ff3399&quot;&gt;fromText&lt;/font&gt;&lt;font style=&quot;font-size: 18px;&quot; color=&quot;#66ffb3&quot;&gt;&amp;nbsp;&lt;/font&gt;&lt;font style=&quot;font-size: 18px;&quot; color=&quot;#0000ff&quot;&gt;is send as text to sender (User_A)&lt;/font&gt;&lt;/b&gt;&lt;b style=&quot;&quot;&gt;&lt;font color=&quot;#66ffb3&quot;&gt;&lt;br&gt;&lt;/font&gt;&lt;/b&gt;&lt;/font&gt;&lt;/div&gt;&lt;/div&gt;" style="rounded=1;whiteSpace=wrap;html=1;fillColor=#FFFFFF;strokeColor=#A50040;fontColor=#ffffff;" parent="1" vertex="1">
          <mxGeometry x="1518" y="364.5" width="774" height="161" as="geometry" />
        </mxCell>
        <mxCell id="nuiKF1VjGRspzTlw7c-V-120" style="edgeStyle=orthogonalEdgeStyle;rounded=0;orthogonalLoop=1;jettySize=auto;html=1;exitX=0;exitY=0.5;exitDx=0;exitDy=0;entryX=0.5;entryY=0;entryDx=0;entryDy=0;" parent="1" source="nuiKF1VjGRspzTlw7c-V-21" target="nuiKF1VjGRspzTlw7c-V-119" edge="1">
          <mxGeometry relative="1" as="geometry" />
        </mxCell>
        <mxCell id="nuiKF1VjGRspzTlw7c-V-119" value="&lt;font color=&quot;#0000ff&quot; style=&quot;font-size: 14px;&quot;&gt;&lt;b&gt;Get channel as per chat.id or group.id&lt;/b&gt;&lt;/font&gt;" style="rounded=1;whiteSpace=wrap;html=1;strokeColor=#FFFFFF;fillColor=#FFFFFF;" parent="1" vertex="1">
          <mxGeometry x="937" y="119.5" width="162" height="69" as="geometry" />
        </mxCell>
        <mxCell id="cfrhRi3zTsHiO-jlDfqi-1" value="" style="endArrow=classic;html=1;rounded=0;exitX=1;exitY=0.5;exitDx=0;exitDy=0;entryX=0;entryY=0.5;entryDx=0;entryDy=0;" parent="1" source="cfrhRi3zTsHiO-jlDfqi-22" target="nuiKF1VjGRspzTlw7c-V-119" edge="1">
          <mxGeometry width="50" height="50" relative="1" as="geometry">
            <mxPoint x="260" y="180" as="sourcePoint" />
            <mxPoint x="1117" y="180" as="targetPoint" />
          </mxGeometry>
        </mxCell>
        <mxCell id="cfrhRi3zTsHiO-jlDfqi-2" value="&lt;span style=&quot;font-size: 18px; text-wrap: wrap;&quot;&gt;publicKeys&lt;/span&gt;" style="shape=table;startSize=30;container=1;collapsible=1;childLayout=tableLayout;fixedRows=1;rowLines=0;fontStyle=1;align=center;resizeLast=1;html=1;" parent="1" vertex="1">
          <mxGeometry x="208" y="-571" width="180" height="120" as="geometry" />
        </mxCell>
        <mxCell id="cfrhRi3zTsHiO-jlDfqi-3" value="" style="shape=tableRow;horizontal=0;startSize=0;swimlaneHead=0;swimlaneBody=0;fillColor=none;collapsible=0;dropTarget=0;points=[[0,0.5],[1,0.5]];portConstraint=eastwest;top=0;left=0;right=0;bottom=1;" parent="cfrhRi3zTsHiO-jlDfqi-2" vertex="1">
          <mxGeometry y="30" width="180" height="30" as="geometry" />
        </mxCell>
        <mxCell id="cfrhRi3zTsHiO-jlDfqi-4" value="_id" style="shape=partialRectangle;connectable=0;fillColor=none;top=0;left=0;bottom=0;right=0;fontStyle=1;overflow=hidden;whiteSpace=wrap;html=1;" parent="cfrhRi3zTsHiO-jlDfqi-3" vertex="1">
          <mxGeometry width="30" height="30" as="geometry">
            <mxRectangle width="30" height="30" as="alternateBounds" />
          </mxGeometry>
        </mxCell>
        <mxCell id="cfrhRi3zTsHiO-jlDfqi-5" value="publicKey" style="shape=partialRectangle;connectable=0;fillColor=none;top=0;left=0;bottom=0;right=0;align=left;spacingLeft=6;fontStyle=1;overflow=hidden;whiteSpace=wrap;html=1;" parent="cfrhRi3zTsHiO-jlDfqi-3" vertex="1">
          <mxGeometry x="30" width="150" height="30" as="geometry">
            <mxRectangle width="150" height="30" as="alternateBounds" />
          </mxGeometry>
        </mxCell>
        <mxCell id="cfrhRi3zTsHiO-jlDfqi-9" value="" style="shape=tableRow;horizontal=0;startSize=0;swimlaneHead=0;swimlaneBody=0;fillColor=none;collapsible=0;dropTarget=0;points=[[0,0.5],[1,0.5]];portConstraint=eastwest;top=0;left=0;right=0;bottom=0;" parent="cfrhRi3zTsHiO-jlDfqi-2" vertex="1">
          <mxGeometry y="60" width="180" height="30" as="geometry" />
        </mxCell>
        <mxCell id="cfrhRi3zTsHiO-jlDfqi-10" value="2" style="shape=partialRectangle;connectable=0;fillColor=none;top=0;left=0;bottom=0;right=0;editable=1;overflow=hidden;whiteSpace=wrap;html=1;" parent="cfrhRi3zTsHiO-jlDfqi-9" vertex="1">
          <mxGeometry width="30" height="30" as="geometry">
            <mxRectangle width="30" height="30" as="alternateBounds" />
          </mxGeometry>
        </mxCell>
        <mxCell id="cfrhRi3zTsHiO-jlDfqi-11" value="ae43bhj67834b874g" style="shape=partialRectangle;connectable=0;fillColor=none;top=0;left=0;bottom=0;right=0;align=left;spacingLeft=6;overflow=hidden;whiteSpace=wrap;html=1;" parent="cfrhRi3zTsHiO-jlDfqi-9" vertex="1">
          <mxGeometry x="30" width="150" height="30" as="geometry">
            <mxRectangle width="150" height="30" as="alternateBounds" />
          </mxGeometry>
        </mxCell>
        <mxCell id="cfrhRi3zTsHiO-jlDfqi-12" value="" style="shape=tableRow;horizontal=0;startSize=0;swimlaneHead=0;swimlaneBody=0;fillColor=none;collapsible=0;dropTarget=0;points=[[0,0.5],[1,0.5]];portConstraint=eastwest;top=0;left=0;right=0;bottom=0;" parent="cfrhRi3zTsHiO-jlDfqi-2" vertex="1">
          <mxGeometry y="90" width="180" height="30" as="geometry" />
        </mxCell>
        <mxCell id="cfrhRi3zTsHiO-jlDfqi-13" value="" style="shape=partialRectangle;connectable=0;fillColor=none;top=0;left=0;bottom=0;right=0;editable=1;overflow=hidden;whiteSpace=wrap;html=1;" parent="cfrhRi3zTsHiO-jlDfqi-12" vertex="1">
          <mxGeometry width="30" height="30" as="geometry">
            <mxRectangle width="30" height="30" as="alternateBounds" />
          </mxGeometry>
        </mxCell>
        <mxCell id="cfrhRi3zTsHiO-jlDfqi-14" value="" style="shape=partialRectangle;connectable=0;fillColor=none;top=0;left=0;bottom=0;right=0;align=left;spacingLeft=6;overflow=hidden;whiteSpace=wrap;html=1;" parent="cfrhRi3zTsHiO-jlDfqi-12" vertex="1">
          <mxGeometry x="30" width="150" height="30" as="geometry">
            <mxRectangle width="150" height="30" as="alternateBounds" />
          </mxGeometry>
        </mxCell>
        <mxCell id="cfrhRi3zTsHiO-jlDfqi-18" value="current user public key" style="swimlane;whiteSpace=wrap;html=1;" parent="1" vertex="1">
          <mxGeometry x="-376" y="-571" width="170" height="81" as="geometry" />
        </mxCell>
        <mxCell id="cfrhRi3zTsHiO-jlDfqi-19" value="8wet6w4u3gfs876dw8e7" style="text;html=1;align=center;verticalAlign=middle;resizable=0;points=[];autosize=1;strokeColor=none;fillColor=none;" parent="cfrhRi3zTsHiO-jlDfqi-18" vertex="1">
          <mxGeometry x="10" y="39" width="150" height="26" as="geometry" />
        </mxCell>
        <mxCell id="cfrhRi3zTsHiO-jlDfqi-20" value="&lt;font style=&quot;font-size: 18px;&quot;&gt;User_B&lt;/font&gt;&lt;div&gt;&lt;span style=&quot;font-size: 18px;&quot;&gt;&lt;br&gt;&lt;/span&gt;&lt;div&gt;&lt;font style=&quot;font-size: 18px;&quot;&gt;_id =&amp;gt; 2&lt;/font&gt;&lt;/div&gt;&lt;/div&gt;" style="rounded=1;whiteSpace=wrap;html=1;fillColor=#0050ef;fontColor=#ffffff;strokeColor=#001DBC;" parent="1" vertex="1">
          <mxGeometry x="-976" y="875" width="160" height="120" as="geometry" />
        </mxCell>
        <mxCell id="cfrhRi3zTsHiO-jlDfqi-21" value="User_A and User_B&amp;nbsp;&lt;div&gt;are friends so they have a chat._id&lt;/div&gt;" style="text;html=1;align=center;verticalAlign=middle;resizable=0;points=[];autosize=1;strokeColor=none;fillColor=none;" parent="1" vertex="1">
          <mxGeometry x="1016" y="-175" width="201" height="41" as="geometry" />
        </mxCell>
        <mxCell id="cfrhRi3zTsHiO-jlDfqi-22" value="&lt;div style=&quot;&quot;&gt;&lt;div style=&quot;&quot;&gt;&lt;font style=&quot;font-size: 16px;&quot;&gt;message encypted with &lt;b&gt;&lt;span style=&quot;background-color: rgb(255, 0, 128);&quot;&gt;User_A&lt;/span&gt; &lt;/b&gt;and&amp;nbsp;&lt;b&gt;&lt;span style=&quot;background-color: rgb(255, 0, 128);&quot;&gt;User_B&lt;/span&gt;&lt;/b&gt;&amp;nbsp;public keys&lt;/font&gt;&lt;/div&gt;&lt;div style=&quot;&quot;&gt;&lt;span style=&quot;background-color: initial;&quot;&gt;&lt;br&gt;&lt;/span&gt;&lt;/div&gt;&lt;div style=&quot;&quot;&gt;&lt;font style=&quot;font-size: 14px;&quot;&gt;&lt;b&gt;fromText&lt;/b&gt;: encrypted with sender&amp;nbsp;&lt;span style=&quot;background-color: initial;&quot;&gt;(User_A)&lt;/span&gt;&lt;span style=&quot;background-color: initial;&quot;&gt;&amp;nbsp;public key&lt;/span&gt;&lt;/font&gt;&lt;/div&gt;&lt;div style=&quot;&quot;&gt;&lt;font style=&quot;font-size: 14px;&quot;&gt;&lt;b&gt;toText&lt;/b&gt;: encrypted with reciever&amp;nbsp;&lt;span style=&quot;background-color: initial;&quot;&gt;(User_B)&lt;/span&gt;&lt;span style=&quot;background-color: initial;&quot;&gt;&amp;nbsp;public key&lt;/span&gt;&lt;/font&gt;&lt;/div&gt;&lt;/div&gt;" style="rounded=0;whiteSpace=wrap;html=1;fillColor=#60a917;fontColor=#ffffff;strokeColor=#2D7600;spacing=12;align=left;glass=0;" parent="1" vertex="1">
          <mxGeometry x="-229.5" y="-64" width="443" height="138" as="geometry" />
        </mxCell>
        <mxCell id="cfrhRi3zTsHiO-jlDfqi-25" style="edgeStyle=orthogonalEdgeStyle;rounded=0;orthogonalLoop=1;jettySize=auto;html=1;exitX=0;exitY=0.5;exitDx=0;exitDy=0;" parent="1" source="cfrhRi3zTsHiO-jlDfqi-9" edge="1">
          <mxGeometry relative="1" as="geometry">
            <Array as="points">
              <mxPoint x="77" y="-496" />
            </Array>
            <mxPoint x="77" y="-39" as="targetPoint" />
          </mxGeometry>
        </mxCell>
        <mxCell id="cfrhRi3zTsHiO-jlDfqi-26" style="edgeStyle=orthogonalEdgeStyle;rounded=0;orthogonalLoop=1;jettySize=auto;html=1;entryX=0.482;entryY=0.181;entryDx=0;entryDy=0;entryPerimeter=0;" parent="1" source="cfrhRi3zTsHiO-jlDfqi-19" target="cfrhRi3zTsHiO-jlDfqi-22" edge="1">
          <mxGeometry relative="1" as="geometry">
            <mxPoint x="-149" y="-196" as="targetPoint" />
            <Array as="points">
              <mxPoint x="-291" y="-394" />
              <mxPoint x="-16" y="-394" />
            </Array>
          </mxGeometry>
        </mxCell>
        <mxCell id="cfrhRi3zTsHiO-jlDfqi-29" value="current user private key" style="swimlane;whiteSpace=wrap;html=1;" parent="1" vertex="1">
          <mxGeometry x="-1215" y="1165" width="598" height="65" as="geometry" />
        </mxCell>
        <mxCell id="cfrhRi3zTsHiO-jlDfqi-30" value="bvresd8734wbv78v4wv987wgb4v8bwv9wbv78g234bw87vgbw4ifgsehbdvsr98o396gy493bn87934yhbv983" style="text;html=1;align=center;verticalAlign=middle;resizable=0;points=[];autosize=1;strokeColor=none;fillColor=none;" parent="cfrhRi3zTsHiO-jlDfqi-29" vertex="1">
          <mxGeometry x="7.5" y="30" width="583" height="26" as="geometry" />
        </mxCell>
        <mxCell id="cfrhRi3zTsHiO-jlDfqi-31" value="here current user is User_A" style="text;html=1;align=center;verticalAlign=middle;resizable=0;points=[];autosize=1;strokeColor=#d79b00;fillColor=#ffcd28;gradientColor=#ffa500;fontColor=#000000;" parent="1" vertex="1">
          <mxGeometry x="-373.5" y="-605" width="165" height="26" as="geometry" />
        </mxCell>
        <mxCell id="cfrhRi3zTsHiO-jlDfqi-32" value="here current user is User_B" style="text;html=1;align=center;verticalAlign=middle;resizable=0;points=[];autosize=1;strokeColor=#d79b00;fillColor=#ffcd28;gradientColor=#ffa500;fontColor=#000000;" parent="1" vertex="1">
          <mxGeometry x="-989" y="1125" width="165" height="26" as="geometry" />
        </mxCell>
        <mxCell id="SUouz25NkuD3IezhMoKO-1" value="&lt;span style=&quot;color: rgb(0, 0, 0); font-size: 11px; text-wrap: nowrap;&quot;&gt;get socketIds of User_B&lt;/span&gt;" style="rounded=0;whiteSpace=wrap;html=1;fillColor=#fad9d5;strokeColor=#ae4132;" parent="1" vertex="1">
          <mxGeometry x="2290" y="981" width="145" height="38" as="geometry" />
        </mxCell>
        <mxCell id="pGtAir0MSBUQOU73R-HG-7" value="if User_A online&lt;div&gt;(if socketIds array is present in userSocketIds)&lt;/div&gt;" style="rhombus;whiteSpace=wrap;html=1;fontColor=#000000;fillColor=#ffffc0;strokeColor=#ff0000;" parent="1" vertex="1">
          <mxGeometry x="1526" y="709" width="372" height="172" as="geometry" />
        </mxCell>
        <mxCell id="pGtAir0MSBUQOU73R-HG-9" value="yes" style="edgeStyle=orthogonalEdgeStyle;html=1;align=left;verticalAlign=top;endArrow=open;endSize=8;strokeColor=#ff0000;rounded=0;entryX=1;entryY=0.5;entryDx=0;entryDy=0;" parent="1" source="pGtAir0MSBUQOU73R-HG-7" target="bDJ4OmMcAz1w1Z4mRW5s-1" edge="1">
          <mxGeometry x="-0.903" y="-30" relative="1" as="geometry">
            <mxPoint x="625" y="349" as="targetPoint" />
            <Array as="points">
              <mxPoint x="1096" y="799" />
              <mxPoint x="1096" y="350" />
            </Array>
            <mxPoint as="offset" />
          </mxGeometry>
        </mxCell>
        <mxCell id="pGtAir0MSBUQOU73R-HG-11" style="edgeStyle=orthogonalEdgeStyle;rounded=0;orthogonalLoop=1;jettySize=auto;html=1;exitX=0;exitY=0.5;exitDx=0;exitDy=0;entryX=1;entryY=0;entryDx=0;entryDy=0;" parent="1" source="nuiKF1VjGRspzTlw7c-V-96" target="pGtAir0MSBUQOU73R-HG-7" edge="1">
          <mxGeometry relative="1" as="geometry">
            <mxPoint x="2388" y="712" as="targetPoint" />
            <Array as="points">
              <mxPoint x="2396" y="-420" />
              <mxPoint x="2396" y="752" />
            </Array>
          </mxGeometry>
        </mxCell>
        <mxCell id="pGtAir0MSBUQOU73R-HG-12" value="&lt;span style=&quot;color: rgb(0, 0, 0); font-size: 11px; text-wrap: nowrap;&quot;&gt;get socketIds of User_A&lt;/span&gt;" style="rounded=0;whiteSpace=wrap;html=1;fillColor=#fad9d5;strokeColor=#ae4132;" parent="1" vertex="1">
          <mxGeometry x="2243" y="709" width="145" height="38" as="geometry" />
        </mxCell>
        <mxCell id="Rw7CRna9a3xsddY8eC8c-11" style="edgeStyle=orthogonalEdgeStyle;rounded=0;orthogonalLoop=1;jettySize=auto;html=1;exitX=0;exitY=0.75;exitDx=0;exitDy=0;curved=1;entryX=0.5;entryY=1;entryDx=0;entryDy=0;" parent="1" source="bDJ4OmMcAz1w1Z4mRW5s-1" target="nuiKF1VjGRspzTlw7c-V-1" edge="1">
          <mxGeometry relative="1" as="geometry">
            <mxPoint x="-816.3333435058594" y="146.9999491373701" as="targetPoint" />
          </mxGeometry>
        </mxCell>
        <mxCell id="bDJ4OmMcAz1w1Z4mRW5s-1" value="&lt;font color=&quot;#000000&quot;&gt;encrypted messages recieved from user (User_A)&lt;/font&gt;&lt;div&gt;&lt;font color=&quot;#000000&quot;&gt;&lt;br&gt;&lt;/font&gt;&lt;/div&gt;&lt;div&gt;&lt;font color=&quot;#000000&quot;&gt;message recieved is fromText and it is encrypted with User_A public key&lt;/font&gt;&lt;/div&gt;&lt;div&gt;&lt;font color=&quot;#000000&quot;&gt;&lt;br&gt;&lt;/font&gt;&lt;/div&gt;&lt;div&gt;&lt;font color=&quot;#000000&quot;&gt;&lt;b&gt;dencrypt message with User_A private key&lt;/b&gt;&lt;/font&gt;&lt;/div&gt;" style="rounded=0;whiteSpace=wrap;html=1;fillColor=#fff2cc;gradientColor=#ffd966;strokeColor=#d6b656;spacing=12;" parent="1" vertex="1">
          <mxGeometry x="-122" y="269" width="228" height="161" as="geometry" />
        </mxCell>
        <mxCell id="bDJ4OmMcAz1w1Z4mRW5s-2" value="" style="edgeStyle=orthogonalEdgeStyle;rounded=0;orthogonalLoop=1;jettySize=auto;html=1;exitX=1;exitY=0.75;exitDx=0;exitDy=0;labelBackgroundColor=#33FF99;fontColor=#00FF80;fillColor=#d5e8d4;gradientColor=#97d077;strokeColor=#007FFF;curved=1;entryX=0.5;entryY=1;entryDx=0;entryDy=0;" parent="1" source="cfrhRi3zTsHiO-jlDfqi-29" target="Rw7CRna9a3xsddY8eC8c-6" edge="1">
          <mxGeometry relative="1" as="geometry">
            <mxPoint x="-274" y="1152" as="targetPoint" />
            <mxPoint x="-543" y="970" as="sourcePoint" />
          </mxGeometry>
        </mxCell>
        <mxCell id="Rw7CRna9a3xsddY8eC8c-1" value="&lt;font style=&quot;text-wrap: nowrap; font-size: 16px;&quot;&gt;userSocketIds maps contains socketIds as string array for each connected user._id&amp;nbsp;&lt;/font&gt;&lt;div style=&quot;text-wrap: nowrap; font-size: 16px;&quot;&gt;&lt;font style=&quot;font-size: 16px;&quot;&gt;whenever user join web socket server its socket.id is stored in array for it&#39;s user._id in userSocketIds&lt;/font&gt;&lt;/div&gt;" style="rounded=0;whiteSpace=wrap;html=1;fillColor=#6a00ff;fontColor=#ffffff;strokeColor=#3700CC;" parent="1" vertex="1">
          <mxGeometry x="2215.5" y="-583" width="775" height="73" as="geometry" />
        </mxCell>
        <mxCell id="Rw7CRna9a3xsddY8eC8c-4" value="publicKeys map contains public keys of User_A friends" style="text;html=1;align=center;verticalAlign=middle;resizable=0;points=[];autosize=1;strokeColor=#d79b00;fillColor=#ffcd28;gradientColor=#ffa500;fontColor=#000000;" parent="1" vertex="1">
          <mxGeometry x="139" y="-605" width="309" height="26" as="geometry" />
        </mxCell>
        <mxCell id="Rw7CRna9a3xsddY8eC8c-6" value="&lt;font color=&quot;#000000&quot;&gt;encrypted messages recieved from other user (User_A)&lt;/font&gt;&lt;div&gt;&lt;font color=&quot;#000000&quot;&gt;&lt;br&gt;&lt;/font&gt;&lt;/div&gt;&lt;div&gt;&lt;font color=&quot;#000000&quot;&gt;message recieved is toText and it is encrypted with User_B public key&lt;/font&gt;&lt;/div&gt;&lt;div&gt;&lt;font color=&quot;#000000&quot;&gt;&lt;br&gt;&lt;/font&gt;&lt;/div&gt;&lt;div&gt;&lt;font color=&quot;#000000&quot;&gt;&lt;b&gt;dencrypt message with User_B private key&lt;/b&gt;&lt;/font&gt;&lt;/div&gt;" style="rounded=0;whiteSpace=wrap;html=1;fillColor=#fff2cc;gradientColor=#ffd966;strokeColor=#d6b656;spacing=12;" parent="1" vertex="1">
          <mxGeometry x="-122" y="518" width="228" height="161" as="geometry" />
        </mxCell>
        <mxCell id="19qX6jDC2SZ2UWSstIv0-1" style="edgeStyle=orthogonalEdgeStyle;rounded=0;orthogonalLoop=1;jettySize=auto;html=1;exitX=1;exitY=0.75;exitDx=0;exitDy=0;curved=1;entryX=0;entryY=0.5;entryDx=0;entryDy=0;fillColor=#0050ef;strokeColor=#007FFF;" parent="1" source="Rw7CRna9a3xsddY8eC8c-7" target="bDJ4OmMcAz1w1Z4mRW5s-1" edge="1">
          <mxGeometry relative="1" as="geometry">
            <mxPoint x="-445.44443540219913" y="-289.2962962962963" as="targetPoint" />
            <Array as="points">
              <mxPoint x="-414" y="-516" />
              <mxPoint x="-414" y="350" />
            </Array>
          </mxGeometry>
        </mxCell>
        <mxCell id="Rw7CRna9a3xsddY8eC8c-7" value="current user private key" style="swimlane;whiteSpace=wrap;html=1;" parent="1" vertex="1">
          <mxGeometry x="-1097" y="-565" width="598" height="65" as="geometry" />
        </mxCell>
        <mxCell id="Rw7CRna9a3xsddY8eC8c-8" value="hbs87f34bv87awf498aywbfiyaw894gyhv894wayeg98ehawv98hy4wae9p84gyh98ewahvb98eyha98hrev9a8" style="text;html=1;align=center;verticalAlign=middle;resizable=0;points=[];autosize=1;strokeColor=none;fillColor=none;" parent="Rw7CRna9a3xsddY8eC8c-7" vertex="1">
          <mxGeometry x="5.5" y="30" width="587" height="26" as="geometry" />
        </mxCell>
        <mxCell id="Rw7CRna9a3xsddY8eC8c-9" value="here current user is User_A" style="text;html=1;align=center;verticalAlign=middle;resizable=0;points=[];autosize=1;strokeColor=#d79b00;fillColor=#ffcd28;gradientColor=#ffa500;fontColor=#000000;" parent="1" vertex="1">
          <mxGeometry x="-871" y="-605" width="165" height="26" as="geometry" />
        </mxCell>
        <mxCell id="Rw7CRna9a3xsddY8eC8c-12" value="&lt;span style=&quot;color: rgb(240, 240, 240); font-family: Helvetica; font-size: 12px; font-style: normal; font-variant-ligatures: normal; font-variant-caps: normal; font-weight: 400; letter-spacing: normal; orphans: 2; text-align: center; text-indent: 0px; text-transform: none; widows: 2; word-spacing: 0px; -webkit-text-stroke-width: 0px; white-space: nowrap; background-color: rgb(24, 20, 29); text-decoration-thickness: initial; text-decoration-style: initial; text-decoration-color: initial; display: inline !important; float: none;&quot;&gt;User_A message received by User_A&lt;/span&gt;" style="text;whiteSpace=wrap;html=1;rotation=0;" parent="1" vertex="1">
          <mxGeometry x="-1076.000331016269" y="98.00432415283638" width="205" height="36" as="geometry" />
        </mxCell>
        <mxCell id="19qX6jDC2SZ2UWSstIv0-3" value="&lt;font size=&quot;1&quot; color=&quot;#000000&quot; style=&quot;background-color: rgb(255, 255, 255);&quot;&gt;&lt;b style=&quot;font-size: 29px;&quot;&gt;1&lt;/b&gt;&lt;/font&gt;" style="ellipse;whiteSpace=wrap;html=1;aspect=fixed;fillColor=#FFFFFF;" parent="1" vertex="1">
          <mxGeometry x="-620" y="-182" width="40" height="40" as="geometry" />
        </mxCell>
        <mxCell id="19qX6jDC2SZ2UWSstIv0-5" value="&lt;font size=&quot;1&quot; color=&quot;#000000&quot; style=&quot;background-color: rgb(255, 255, 255);&quot;&gt;&lt;b style=&quot;font-size: 29px;&quot;&gt;3&lt;/b&gt;&lt;/font&gt;" style="ellipse;whiteSpace=wrap;html=1;aspect=fixed;fillColor=#FFFFFF;" parent="1" vertex="1">
          <mxGeometry x="423.5" y="14" width="40" height="40" as="geometry" />
        </mxCell>
        <mxCell id="19qX6jDC2SZ2UWSstIv0-6" value="&lt;font size=&quot;1&quot; color=&quot;#000000&quot; style=&quot;background-color: rgb(255, 255, 255);&quot;&gt;&lt;b style=&quot;font-size: 29px;&quot;&gt;6&lt;/b&gt;&lt;/font&gt;" style="ellipse;whiteSpace=wrap;html=1;aspect=fixed;fillColor=#FFFFFF;" parent="1" vertex="1">
          <mxGeometry x="1638" y="98" width="40" height="40" as="geometry" />
        </mxCell>
        <mxCell id="19qX6jDC2SZ2UWSstIv0-7" value="&lt;font size=&quot;1&quot; color=&quot;#000000&quot; style=&quot;background-color: rgb(255, 255, 255);&quot;&gt;&lt;b style=&quot;font-size: 29px;&quot;&gt;7 A&lt;/b&gt;&lt;/font&gt;" style="ellipse;whiteSpace=wrap;html=1;aspect=fixed;fillColor=#FFFFFF;" parent="1" vertex="1">
          <mxGeometry x="1914" y="252" width="57" height="57" as="geometry" />
        </mxCell>
        <mxCell id="19qX6jDC2SZ2UWSstIv0-12" value="&lt;font size=&quot;1&quot; color=&quot;#000000&quot; style=&quot;background-color: rgb(255, 255, 255);&quot;&gt;&lt;b style=&quot;font-size: 29px;&quot;&gt;7 B&lt;/b&gt;&lt;/font&gt;" style="ellipse;whiteSpace=wrap;html=1;aspect=fixed;fillColor=#FFFFFF;" parent="1" vertex="1">
          <mxGeometry x="2189" y="98" width="57" height="57" as="geometry" />
        </mxCell>
        <mxCell id="19qX6jDC2SZ2UWSstIv0-13" value="&lt;font size=&quot;1&quot; color=&quot;#000000&quot; style=&quot;background-color: rgb(255, 255, 255);&quot;&gt;&lt;b style=&quot;font-size: 29px;&quot;&gt;7&lt;/b&gt;&lt;/font&gt;" style="ellipse;whiteSpace=wrap;html=1;aspect=fixed;fillColor=#FFFFFF;" parent="1" vertex="1">
          <mxGeometry x="1202" y="747" width="40" height="40" as="geometry" />
        </mxCell>
        <mxCell id="19qX6jDC2SZ2UWSstIv0-14" value="&lt;font size=&quot;1&quot; color=&quot;#000000&quot; style=&quot;background-color: rgb(255, 255, 255);&quot;&gt;&lt;b style=&quot;font-size: 29px;&quot;&gt;7&lt;/b&gt;&lt;/font&gt;" style="ellipse;whiteSpace=wrap;html=1;aspect=fixed;fillColor=#FFFFFF;" parent="1" vertex="1">
          <mxGeometry x="1035" y="1024" width="40" height="40" as="geometry" />
        </mxCell>
        <mxCell id="19qX6jDC2SZ2UWSstIv0-15" value="&lt;font size=&quot;1&quot; color=&quot;#000000&quot; style=&quot;background-color: rgb(255, 255, 255);&quot;&gt;&lt;b style=&quot;font-size: 29px;&quot;&gt;8&lt;/b&gt;&lt;/font&gt;" style="ellipse;whiteSpace=wrap;html=1;aspect=fixed;fillColor=#FFFFFF;" parent="1" vertex="1">
          <mxGeometry x="-448" y="123" width="40" height="40" as="geometry" />
        </mxCell>
        <mxCell id="19qX6jDC2SZ2UWSstIv0-16" value="&lt;font size=&quot;1&quot; color=&quot;#000000&quot; style=&quot;background-color: rgb(255, 255, 255);&quot;&gt;&lt;b style=&quot;font-size: 29px;&quot;&gt;8&lt;/b&gt;&lt;/font&gt;" style="ellipse;whiteSpace=wrap;html=1;aspect=fixed;fillColor=#FFFFFF;" parent="1" vertex="1">
          <mxGeometry x="-81" y="1022" width="40" height="40" as="geometry" />
        </mxCell>
        <mxCell id="19qX6jDC2SZ2UWSstIv0-18" value="&lt;b&gt;&lt;font color=&quot;#0000ff&quot; style=&quot;font-size: 75px;&quot;&gt;TalkVerse System Design&lt;/font&gt;&lt;/b&gt;" style="rounded=1;whiteSpace=wrap;html=1;fillColor=#FFFFFF;" parent="1" vertex="1">
          <mxGeometry x="166" y="-1232" width="1097" height="193" as="geometry" />
        </mxCell>
        <mxCell id="19qX6jDC2SZ2UWSstIv0-20" value="&lt;span style=&quot;text-wrap: nowrap;&quot;&gt;&lt;b&gt;Channel&lt;/b&gt;&lt;/span&gt;" style="rounded=0;whiteSpace=wrap;html=1;fillColor=#60a917;fontColor=#ffffff;strokeColor=#2D7600;" parent="1" vertex="1">
          <mxGeometry x="1343.5" y="216" width="460" height="27" as="geometry" />
        </mxCell>
        <mxCell id="19qX6jDC2SZ2UWSstIv0-22" value="" style="edgeStyle=orthogonalEdgeStyle;rounded=0;orthogonalLoop=1;jettySize=auto;html=1;exitX=0.25;exitY=1;exitDx=0;exitDy=0;entryX=0.5;entryY=0;entryDx=0;entryDy=0;" parent="1" source="nuiKF1VjGRspzTlw7c-V-118" target="19qX6jDC2SZ2UWSstIv0-21" edge="1">
          <mxGeometry relative="1" as="geometry">
            <mxPoint x="1712" y="709" as="targetPoint" />
            <mxPoint x="1712" y="525" as="sourcePoint" />
          </mxGeometry>
        </mxCell>
        <mxCell id="19qX6jDC2SZ2UWSstIv0-21" value="&lt;b style=&quot;color: rgb(255, 255, 255); font-size: 18px;&quot;&gt;&lt;font color=&quot;#ff3399&quot;&gt;fromText&lt;/font&gt;&lt;/b&gt;" style="rounded=0;whiteSpace=wrap;html=1;fillColor=#FFFFFF;" parent="1" vertex="1">
          <mxGeometry x="1663" y="576" width="98" height="35" as="geometry" />
        </mxCell>
        <mxCell id="19qX6jDC2SZ2UWSstIv0-24" value="" style="edgeStyle=orthogonalEdgeStyle;rounded=0;orthogonalLoop=1;jettySize=auto;html=1;exitX=0.75;exitY=1;exitDx=0;exitDy=0;entryX=0.5;entryY=0;entryDx=0;entryDy=0;" parent="1" source="nuiKF1VjGRspzTlw7c-V-118" target="19qX6jDC2SZ2UWSstIv0-23" edge="1">
          <mxGeometry relative="1" as="geometry">
            <mxPoint x="2098" y="976" as="targetPoint" />
            <mxPoint x="2099" y="526" as="sourcePoint" />
          </mxGeometry>
        </mxCell>
        <mxCell id="19qX6jDC2SZ2UWSstIv0-23" value="&lt;b style=&quot;color: rgb(255, 255, 255); font-size: 18px;&quot;&gt;&lt;font color=&quot;#ff3399&quot;&gt;toText&lt;/font&gt;&lt;/b&gt;" style="rounded=0;whiteSpace=wrap;html=1;fillColor=#FFFFFF;" parent="1" vertex="1">
          <mxGeometry x="2049" y="576" width="98" height="35" as="geometry" />
        </mxCell>
        <mxCell id="19qX6jDC2SZ2UWSstIv0-27" value="" style="shape=image;imageAspect=0;aspect=fixed;verticalLabelPosition=bottom;verticalAlign=top;image=data:image/png,iVBORw0KGgoAAAANSUhEUgAAAgAAAAIACAYAAAD0eNT6AAAABHNCSVQICAgIfAhkiAAAAAlwSFlzAAALEwAACxMBAJqcGAAAABl0RVh0U29mdHdhcmUAd3d3Lmlua3NjYXBlLm9yZ5vuPBoAACAASURBVHic7N13nF1Vvf7xz0x6Qgo9JEACoYceQHoRRKoCAjaqIv5EUVAQbNd6LXi9XruAImK7Ioj0ol4sFEGQ3iGE3gnpdeb8/lgz5jCcmTllr/Osvffzfr2+N9yg7vVdZ+111tl7lQ7MLHXDgNV7Yi1gAjC+58/qfx4LjARW6vnvTACG9Pz7auOBzj5/1w3M6fN3c4DlPX8uA+YDi4G5PX83B3itTzwPvNQTy5rO2Myi61AXwKzEOghf6OsAk3r+XBuY3PPPqwNrAKuoCtiiV4EXCYOBJ4FneuKpnj+fBp6Vlc6s5DwAMItrCLAesDGwPjCtJ9bviZG6oiVhMTATeKwnev/5YeBxoEtXNLNi8wDALBtDgU2A6cCmPbEJ4Yt/hLBcebYEeBB4CLgfeAC4r+f/Xy4sl1kheABg1rhxwNbAVj2xNbA5/qJvl8WEgcCdwF1Vf85VFsosbzwAMBvYUMKv+BnALsCuhF/2fSfRmd5zwA3AjcDtwG2EwYKZ1eABgNnrrU74ot8d2BnYBhguLZE1awlwB3AT8DfCwOBlaYnMEuIBgJXdZGBvYDfCF/+m2uJYRBXCnIIbgL8Df8arEKzEPACwslkJ2BHYpye2xfdBmc0E/tQTfyYsXTQrBXd8VnSdwPbAAcD+hC/8IdISWaq6CHMHrgauIswh6JaWyCwiDwCsiFYhPNbfBziIsMmOWaNeBq4HrgAuB2Zri2OWLQ8ArCjWIfzCPxh4K2ErXLOsdAH/AH4HXEzYxdAs1zwAsDzbFDi0J2bg9mztUSG8HrikJx7UFsesOe4wLW/WJXzhH0GYtW+mdj/hycCvgEfEZTGrmwcAlgeTgSOBdwE7iMti1p8KcAvwW+BCvMTQEucBgKVqJOF9/jHAfoQd+czyohu4GbiA8GRggbY4Zm/kAYClZgbhS/8o8nsMrlm1ucClhMHAnwlPCszkPACwFKwOHAd8ANhQWxSzqB4GzgXOx9sSm5gHAKY0AzgROBoYJS6LWTstJTwVOAc/FTARDwCs3cYD7wP+H7CRuCxmKXgY+BHwM2COuCxWIh4AWLtsCHyE8OW/krgsZimaD/wa+B5wr7gsZmYt6STM5L+OMCu64nA4Bo1u4FrgQMI9ZGaWG8MJM/nvQ9+ZOhx5jkeAj+E5MhaBXwFYlsYBxwOnEzbvMbNsvEiYJ/BdfGSxZcQDAMvCJMKX/gn4/b5ZTPMIywj/C3hOXBYzK7F1ge8AC9E/KnU4yhRLCBsLTcOsSX4CYM2YCpxKWMM/UlsUs1JbBvwv8GV8EJGZRTQFOI/Q6ah/ATkcjhWxjPBqYF3M6uQnAFaP1YFPEGYj+xe/WbqWErYZ/gKeI2CD8ADABrIK8FHg48BYcVnMrH4LCRsKfQOYLS6LJcoDAKtlJOHX/pnABHFZbIXFhANkXumJl6r+ufrvlxN+CfYeQTuf8IgYVnwZVP/7MYS9GwBW7vlzGCtWdPT++6HAqsBqPX/2xup9/s5PidIxG/gaYTCwWFwWS4wHAFatk3AM75fxu8R2WwI8CTwOzKr6cxbwLOGLPS9nyo8hDAQmAesRJo1OrfrnKawYcFh7PAF8hrDVcEVcFkuEBwDWax/gLGAbdUEKbDFwP3AP8BgrvugfJ7yv7ZaVrL06CYODqYRBwXqE5WybA9OBEbKSFd/twCeB/1MXxPQ8ALANgK8CR6gLUjDPEbZCvp/Q6d5HOOBlibJQOTCU8PRpOuG46M16/nlT3F9l6QrgFMJA1ErKN1R5rUR4JHgq/sXVim7gAeBm4E7gbsIv/NeUhSqgCcCWwBbA1sBOhMGB+7DmLQb+m/ADIC+vl8ysBR2EX/tPoF+7nMdYCtxG2AHxCMK7btMYS3h19QXgj3hHymbjGcLhXR5MmRXY5sDf0Xc4eYrngIsJT0p2JMyOtzQNI3xGHwd+DzyPvv3kKf5KeN1iZgUyhrAeeCn6Tib1WAhcBZwMbNRMZVtSNiYsab0aPyGoJ5YSlg2ObqayzSwtBxNmmas7lpTjMeBswiN9n2ZYXKMIrwy+TniNo253KcfTwDuaq2YzU5sMXIK+I0kxFhBmQX8Yn6ZWZhsAHwGuJLQJdbtMMS4G1mq2gs2svTqAEwg7gKk7j5TiNeDnwIF4pzp7o5HAQcAvgDno22tKMRt4H54kaJa0qcB16DuMVGIhcDlhhvOY5qvVSmYE4dXZBcBc9O04lfgrsGEL9WpmEXQSJjrNR99JqGMBcCHh/eWoVirVjDAZ7gjgIjyJsALMIxwQ1tlKpZpZNtYjjMzVHYMylgJ/AN6Ff+lbPCsB7wYuxStq/kJ44mhmIsdQ7keUjxA2gVmnxXo0a9RE4AxCG1TfB6qYC5yI5waYtdWahF8h6g5AEUsIj/j3wR2PpWEGYRlpWV8RXE043MnMInsH4ex39U3f7rifsBvfaq1XoVkUqxF2IXwA/f3S7ngJOKT1KjSzWkYD56C/0dsZiwlL93bNoP7M2mk3wiqCxejvo3bGD/HkW7NMTSecMqe+udsVrxEO25mcReWZCa1BmKdSpqd29wNbZVB3ZqXWQZhkU5Zdyh4jLGf0TH4rmhGESbtleT2wiHAve56OWRNWpjwT/W4EDsNri634hgCHAzejv+/aERcD4zOpObOS2BZ4FP3NGzO6CLv07ZJRnZnlzQzCPIHl6O/HmDEL2CGbKjMrtpMo9sShZcB5hINYzCxsr3s+xR4ILAI+kFF9mRXOSsBv0N+osaIL+CXeS9ysPxsDvybcK+r7NVZcgOf4mL3OBsA96G/OGNFNeNS/dWa1ZVZsmxG+KIs6ELgLWD+z2jLLsf2AV9HflDHij4T3nGbWuM0Ju152o7+Xs45XgH2zqyqzfOkg7CVexPd+fwS2z66qzErtTYSnaOr7OutYTugDvVTQSmUMYWSvvgGzjlvxrn1msewO3Ib+Ps86fkPY6dSs8CZRvJv4WcKGRV7HbxZXB2FDoefQ3/dZxp3AuhnWk1lytgaeRH+zZRVLCFv2jsuyksxsUGMIWwwvQt8PZBXP4leHVlCHU6wtfS/HM3nN1NYhrBhQ9wdZxSLg3ZnWkJlQB/BZijOT905gzywryMxatjfFOTCsG/hUttVj1n7DgJ+hv6GyiJcI7/mHZFpDZpaVIcCHCEvs1P1FFvETYGimNWTWJisBV6K/ibKIC4HVs60eM4tkDYrzWuA6PMfIcmYixZjp/wxwSMZ1Y2btcQDwBPp+pNW4C5iccd2YRbEB8Aj6m6aV6AbOBsZmXDdm1l6jga+T/22FZwKbZFw3ZpnaAXgZ/c3SStwH7JR1xZiZ1C7A/ej7l1biJWC7rCvGLAt7AnPQ3yTNxlLCL4URGdeLmaVhGGHr3TwfNz4feEvWFWPWikPJ9011CzA981oxsxRtQdi2W93vNBuLgLdnXitmTTgaWIb+pmgmugg7+Q3PvFbMLGVDCTsJ5vUwsuXA+7OuFLNGnEp+N/iZhQ/uMSu73cnvSoFu4KPZV4nZ4E5HfwM0GxcCK2dfJWaWQ+OAX6Dvl5qNz2ZfJWb9OwN9o28m5hB28zMz6+sIYDb6fqqZ+HyE+jB7g7x++f8DmBahPsysOKYAf0PfXzUTX49QH2b/9jX0jbzRWAZ8Du/hb2b1GQp8kXxOEPxahPow4yvoG3ej8SLhlDAzs0btDjyHvh9rNP4rRmVYeX0JfaNuNG4jPM4zM2vWZOBm9P1Zo/GFCHVhJZTH2f5n47X9ZpaNEYT9QtT9WqPh1QHWko+jb8SNxGLghCg1YWZldzSwEH0/10h8KkpNWOGdir7xNhKzgG1jVISZWY/tyN/GQd4syBpyDPna4e96YI0oNWFm9nqrAtei7/fqjW68bbDV6TDytfzla3iJn5m11xDgLPT9X72xDB8gZIN4M+GkKXVjrbdBfzBONZiZ1eV4wlHi6v6wnlgC7BunGizvdgDmom+k9cRcYP841WBm1pC9gdfQ94v1xHxg5zjVYHm1CfAy+sZZT8wCpkepBTOz5mwBPIm+f6wnXgI2ilMNljerA4+gb5T1xJ3A2nGqwcysJWsRNiBT95P1xExgYpxqsLwYC9yOvjHWE1f3lNfMLFVjgMvQ95f1xG3ASnGqwVI3DLgGfSOsJ84mHNBhZpa6IcD30Peb9cRVuG8tnQ7gZ+gb32DRBZwSqQ7MzGL6BPnYT+XcWBVgafoc+kY3WCwHjouUv5lZO7yXsGRZ3Z8OFmfGqgBLyzsIv6zVDW6gWAIcHqsCzMza6EjS3yugG3hnrAqwNGxLWAeqbmwDxWK8Y5WZFcsBpH+Q0ELCfjBWQJOAp9A3soFiPrBPrAowMxPag/Q3W3sWL7UunDHAv9A3roFiNrBTrAowM0vALqS/a+BtwOhYFWDt1QH8L/pGNVC8gh89mVk5bAO8iL7fHSguJnx3WM59Gn1jGiieI2yjaWZWFpsCT6PvfweK06Jlb22xP2nP+H8W2DBa9mZm6dqQ0Aeq++H+YjnwlmjZW1QbEt6rqxtRf/ESPtTHzMptY+B59P1xf/EKMC1a9hbFSsC96BtPfzGbsCTRzKzsZpD2xMA78aTAXLkAfaPpLxYAu8VL3cwsd3YE5qHvn/uLX8dL3bJ0EvrG0l8sBt4aL3Uzs9x6M7AIfT/dX5wQL3XLwlaku9vUUuCgeKmbmeXeWwk/lNT9da1YhF/dJmsC8Bj6RlIrluN9ps3M6nEY6R4g9CgwPl7q1owO4FL0jaNWdAFHx0vdzKxwjifdo4S9SVBiPoq+UfQXp0TM28ysqE5D33/3FydFzNsasDnpvvf/ccS8zcyK7nvo+/FasYgw58yERgJ3o28MteJKYEi81M3MCm8I8Af0/XmtuA8YFS91G8w56BtBrbidsBmRmZm1ZjRwC/p+vVb8IGLeNoB3oP/wa8UsYK14aZuZlc4k4En0/XutOCRi3lbDWsDL6D/4vjEH2DJi3mZmZTWdNM93eQmYGDFv6+MK9B9631iKT44yM4tpL2AJ+v6+b1wWM2lb4UT0H3at+GDMpM3MDID3oe/va8X7YiYdQ942M1gPuAsYqy5IH18HPqUuhFmPEcCqPbFaz5+r9Py7lXv+HMaKiarzCTuvQXjECvAq4TXbK1WxJGqpzep3FnC6uhB9zCUsDZwlLkfd8jQA6ASuB3ZXF6SPPwL7E3b8M2uHIcAGwCbAVMLAeL2ef54KjIt03TnAE8DjhE7u8Z54kLANt+8Ba5chwLXA3uqC9PEXQpm6xeUonI+hf8TTN2YRfl2ZxTIa2IPQ/n8K/JM0N75a2FO2n/SUdQ98hrrFtTphQKpu+33j5JhJl9FU0jsrehGwXcScrZwmAgcTXivdQLono9UTywibpZwNHANMybCezAC2Ib0B8QJg/ZhJl0kHcB36D7Vv5G7ChyVpKLAr4Qv/NtI9ACWreIwwIDiYMFfBrFVHo2/XfePP5OsVe7JOQP9h9o0fRc3Yim4V4P2EEyxTe7LVzpgHXEI4+a13cqJZM85F3577xvFRMy6BSYTZyOoPsjpuxr9crHHjCY/BLyfNdczqWE545XEiPm/dGjeC9LYLfg2YHDPporsE/YdYHc/jD9Tq1wnsRzg/PM/v8tsdi4DfAW/tqUOzeqwLvIi+/VbHRVEzLrC3of/wqmMZYWaz2WAmA58jrBJRt9u8x+PAZwlPA80GszfhaZK63VbHgVEzLqAxpNd5fi5mwlYIuwK/J70OqAixjPAkZZe6Pw0rqy+hb6/VMRMviW3IWeg/tOq4gbDxhFlfnYQZ7Teib6dlidsJ8ymG1vH5WPkMBW5C306r46tRMy6QzQkH66g/sN54jbAPgVm14cBJhNG9uo2WNR4lnMExfJDPyspnGmFrXnUb7Y0lwGZRMy6ADsKvbfWHVR3vjZqx5c1QwtLUWejbpiPE44QlV34iYNWORd82q+OveG+AAR2F/kOqjl/FTddyZAhhw5FH0LdLR+14iDBg98oB6/Vb9O2yOt4dN938Wgl4Bv0H1BtP4s1JLNgTuAN9m3TUF/8ivUPDTGMCaT2te5owyd36+Dr6D6c3ugidvpXbOsAFFH973qLG5YRTEq3cdiOtlTlfjptu/mxAWhul+AMqt1HAfxI2pFG3RUdrsZCwLGwkVmZfRd8We2MRHpi+zmXoP5TeuAVPJiqzvfB7/iLGQ3gjrzIbRjiuWt0Oe+P3cdPNj73Qfxi9sQSYHjddS9R44DuE1z/qduiIE92EVzqrYGW0BWktMd87brrp6yRM2FF/EL3xhajZWqreBjyLvv052hPPAAdhZfRl9O2vN/5JyZcFHoP+Q+iNB/B7wrIZRfjV70l+5YwL8IzsshkB3Ie+7fVGaZcFjgSeQP8BVAiPfb3HeLlsAdyNvu05tPEAsC1WJjuRzqu+xynp8fJnoK/83vhu5FwtHR3A6YT5Hup250gjFgMfp+SPY0vmh+jbXW98InKuyVkFmI2+4iuEpxBj46ZriRhHmH2rbnOONOMi3BeUxTjCpjzqNlcBXqVkm859A32l98bbIudqadiYtN79OdKMh/BKoLI4EH17643/jJxrMtYCFqCv8Arwy8i5WhoOJ62TwRxpx1zgMKwMUjkrYB6wRuRck/A99JVdAV4CVo+cq+l9Fs/ydzQe3cCnsaJbE3gFfXurAN+OnKvcFNLZ8vcDkXM1raHAj9G3M0e+4zzCLnJWXB9G384qhC2C14mcq9R56Cu5AtxJON7VimkscBX6duYoRvyJsFOkFdMQ0lkSfHbkXGWmAcvQV3AFn/RXZJOAe9C3MUex4m7C/CUrpregb2MVwlbFUyLn+m/tXPf6E+D9bbxefy4mTAqz4plK+LU2TVyOVLwAvEh4x/kK8DLwWs+/WwbM7/nnlVjxmHtlYNWeWI0wT2bNNpU3dY8C+xCWDlvxXEoaq8J+DHyoHRdq1wBgXcLNo36XthjYjLD7khXLRoQv/0K/Q6thPmF5413AvcBjwCxCG1+U0TVGEY4vXY8wuNoc2LLnz7JtpfskYRDwiLoglrkNCPfScHE5lhDus2fE5cjMD9A/WqkQzoS24tkceA59+4od3YQO6lzgOMKgp7P16mtaJ2F/heMIT/jupxwrLp4jtDkrnrPQt68K8D+xE22XSYRfIuoKfZbwqNOKZTphSae6fcWKl4BfAUeRj2WraxAO+foN4ZWDuv5ifi7eMKh4xgHPo29fCynIq7dvo6/MCnBs7ESt7TakmMf4Pks4n2JX8r1aZQiwG2HvjyI+oXmW8NjYiuUE9G2rQngakWsrE3Y4UlfkrWgflVr2ppDOaZJZxHzCMtk9KGZbHQLsBfyMdHYCzSJmEeY4WXF0Arejb1tzyPny00+jr8QK4ZeUFcckwiQsdbvKIu4gzPjN9Y3eoPHASYT9ONT1n0U8DEzMtIZMbU/07apCOLk0l0aQxuPZq2Mnam01lvClqW5XrUQ38Efg4IzrJo92BS4n/5MH76Fcg7gy+BP6dvU0+lUJTfkA+srrBraPnai1zVDgGvTtqtlYRngEvmnWFVMAmwE/B5aj/5yajSsJbdSKYSf0bapCWGWTKx2EJUHqirs0dqLWVqksJ200uoALCcv2bGDrEbZDzetA4Nzsq8SEUthS/AFyNi/oYPSV1g1sHTtRa5sz0bepZuIqvFysGVsA16H//JqJ3L63tTeYQRqvp/aLnWiWUrhxfxc9S2uXt5HGTdhIPADsH6MySuZgwiQ79efZSHQBB8aoDJO4BH2buip6lhnZFH1n3UV4p2j5tyFh/3r1DVhvLABOQ7/tdZEMBz5FGhuK1Ruz8R4BRbEl4TtF2Z66yckrxB+iv/l+GT1La4cx5Otkv78Rtsa1OKaRxszseuNuyndWQlH9Fn17+m70LFs0Hv3GP8sIvxot//4X/U1XT8wjrHpp5+maZdVB2DchL5sJ/SpONVibbYJ+YupcwlbFyToF/Q13XvQsrR0+gr4t1RO34gGnwiaksVtbPdGWo10tugvQt6WPRs+ySR3AQ2grZzl+71YE00n/fW834XRJv+vXGU7YL10952iwWIjnJBXBxujnAjxAok8a34z+RrsoepYW2wjS3yJ2DnBorAqwhh1EmHSnbhcDxT3AyFgVYG3zB/RtaffoWTYhhfe1O0XP0mL7b/TtaKB4AO/kl6INSX/C6DejZW/tshv6dpTcJPfVgSVoK+XG6FlabG8h7ce5lwMrRcveWjWWcPaHup30F13A3tGyt3a5BW07WgSsGj3LBnwS/c3lR7L5Nhp4DH076i/Oxfu858EQ0t4y+nE8iMy7I9C3o1OjZ1mnDvQ7dT1CuPEtv76N/qaqFd3AJyLmbXGcSbpPk/4rYt4W3xD0P1YeiJ5lnVJ4J3JS9Cwtph3Qr7GtFV3ACRHztrhORD9ru1YsB7aLmLfF91H07WjH6FnW4SdoK+EVvNtWng0F7kB/M9XqpI+NmLe1x7sJm4Op21PfuAsvIc2z0cDLaNvQj6JnOYjRhCVRykr4cvQsLaYz0HfGfWMZcHjMpK2tjiDNJ0wfj5m0RfefaNvPbMRLS99bo1DtjMXAxOhZWixroh9A9o0u4KiYSZvE0aT3OmAO7r/ybE30G5YdGT3LAVzbT6HaFT+Pn6JF9FP0nXB1dBP29Ldi+hDpTQw8O2rGFtsv0LafK+OnWNtk9I/Vdo2epcUyg/R+kZ0ZNWNLwWfRt7PqWA5sHTVji2l3tO1nGaKnSKc2Udgs4/74KVpEf0ff+VaHf4mVR2pPnq6Pm65F1AE8iLb9nBw9yxpubbKwWUUyGyFYww5G3+lWxzV4k58yGQZch77dVcd+UTO2mE5D23ZuiJ/i662P9l3aYmC16FlaDB3Av9B3uL3xAImfsW1RjEe/gVl1/JNET3mzQam3wu8G1o2eZZXPREiikfh1/BQtksPRd7a9MY9w9LCV0ybAXPTtsDfeHjddi+hCtG3n9PgprnB3pCTqjb3ip2gRdBI2QFF3tBXCqPmIuOlaDrwLfVvsjXsI94jlz1vQtp3b4qcYbNqmhPqLR/Cjsrx6N/pOtje+HTlXy4+UDg/yoDSfOtGfD7BB9CzRL6M5I36KFkkq7/7vBUZFztXyYyT6p5q90bZfcpY59avxtrwGuE2UXIWw5nGt+ClaBHuj71wrhAmkW0bO1fJnc/S7uvXGnnFTtUgmAkvRtZubYie4DtrZ/5fETtCiuRJ9x1rBy0etf6ejb58V4PLYiVo0l6FrN13ApJjJqY9AfGfM5CyaTUhjC9ZbCGd5m9UyhLAcT91Ou4HNIudqcajPx/lQzOT+LExsAbBSzOQsmnPRd6pLCI95zQayFdrHuL1xTuxELYqxwEJ07ea6WImtgvZc7QtjJWZRjQPmo+9Qvxg7USuMr6Fvr/MIXyaWPxejazdLgQkxklIv4XpHjKQsug+h70yfAkbHTtQKYzTwBPp2e2LsRC2Kd6JtN1GWkl4gTGgeXraVV7ej70g9d8QadRT6dvvP6FlaDKPRPvU8L+uEOoEXhAn9KuuErC22Q9+J3oQ3jrLGdRAOWVG3321iJ2pR/BZdm3mOjPu8NwmTqeA9svPqx+g70J2iZ2lFtSv69vv96FlaDIehbTczskzmi8JE5hB26rJ8GQa8jPYmuCJ6llZ06mODX8RHVefRSMJ3l6rdfDbLZG4VJvLzLBOxttkPbcfZTcajYCsl9dPPCuGgGcufX6JrMzdmlcTKwHJhIgdmlYi11c/QdpreNdKycgXatnxu/BQtgrehazPLCEuwW6Z8lzEfP/7Po+HAK2g7Tb/7t6zsjrYtv0q4pyxfRhE2sFO1m4MGK2A9Z0+/uY7/TCx/IRzeYvmyL2HjKJWbgJuF17di+RvhNajKyoTDtCxfFhHajso+g/0H6hkADPo/EtHVwmtb8w4WX/+/xNe34lG3qUF/zVmSrhFeu+VB49poH31NazUBk1DuojYLH/hj2RsCPImuXc+Mn6JFsBG6NtNNOKK4X4M9AdirgUSz9jDwmPD61pzpwLrC6/+UcCymWZa6iLDDWgPWAzYWXt+ao/we62CQ7/DBBgC7Z1eWhvnxfz7tL7x2F3C+8PpWbOrB5X7Ca1vzlK8BdhvoXw42ANg1w4I0Sllp1jxlJ3UV4eAfsxieIuJxq3VQDq6teckOAAayOuEdguLdxUJ8+E8ejSDMfFW98zoyfopWcu9B174X4OWAeTQGXb/YxQArsgZ6ArArukNUridUmOXLduj2bVgIXCm6tpXHpYQvYoXR+HCgPFoA/F107U5g54H+ZX+afnSQAT/+z6ddhNe+DF3HbOWxAG3/pHwta81L8jXAQAMAZWd+rfDa1rx+R5ptcJHw2lYuFwqvreyXrXm5GjSOIOzAp3hn8XxTKZpaB+HkMkWbWQKMjZ+iGRD2WF+Kpq2/iO7VrDVP2T8uop+5I/09AdiKMAhQyOwUI2uraYSJowo3APNE17bymYtuq+nVgfVF17bmVQhblCuMBLao9S/6GwC8KV5ZBnWD8NrWPOXkJO8ZYe2mfKS7lfDa1jzlj9sdav1lfwOA7SIWZDCqUZK1ZnPhtT1nxNpNOQDYUnhta55yALB9I//hB9G8q1iI17nm1R/QtJlXqe9QK7MsdQKvoWnzF7chP8uecp+Ue2sVqFbHOQ7YsMVEm3UrYXKN5U/Nd0xtcDNhwyqzduoG/iG6tupes9YsAW4TXXtTakyUrjUA2Lqfv28HTwDMp7GEw0oU3GZMRdX2phF2l7P8UbWZTmq8Oqr1Ra+cYOL3//m0IbqlSarZ2Gaq/qoT2EB0bWuN8gfL1n3/or8nAAoV3JnnlerXP8Ddwmtbud0pvPZU4bWteTeie2X5hh/3KQ0A7iNM6LL8mSq67lPAK6Jrm70CPCe6tnLQbc17FXhIdO1BBwBDgc3aU5Y38K///Joquu49ouua9VI9gfIAIL9Ur442B4ZU/0XfAcAm6E5zu0t0XWvdVNF1ay5tMWsjVRv0ACC/VN91o+mzpi5R8AAAIABJREFUwq/vAGB6+8ryBn6Xm19TRNedKbquWS9VG1Tdc9Y65ZPL133H9x0AqB7/V/Dj3DxbQ3TdWaLrmvWaJbqu6twNa53yx+6m1f9P3wHApmg8QdhVy/KnA1hFdO3HRdc166Vqg6viUwHz6lXgadG1BxwAbNLGglTzu9z8GgcME137SdF1zXo9IbrucHwEdp6pnnj3OwAYgm4LYOV6WmvNaqLrzgUWi65t1mshsEB07VVF17XWqV4DbEzV9371AGB9dCsA/P4/v1Sd0Mui65r1pWqLHgDkl+o7bzSwbu//Uz0A2Kj9Zfk3DwDya5zout4AyFKhGgCMF13XWqecCLhx7z/0fQKgsBh4RHRta53q+GYPACwVqrY4QnRda92D6E6+/fd3ffUAYJqgIBC2AF4uura1TtUJLRJd16wvVVtUDb6tdcuAB0TXTmoA4BUA+abqhFSjZ7O+loiu6ycA+ab67vv3d30KA4DHRNe1bKg6IVWna9aXajDqJwD5pvrue8MTgA50+7l7M5d8U+0BsEx0XbO+/ATAmqH67nvDE4C1gFGasng715zrEl3Xu6BZKmodq94OqnvPsqEaAKxEz1bSvQ13HVFBwE8A8k7168ePPy0Vql/i3ggr32YJr702rBgArC0qxBLgOdG1LRuqTsgDAEuFV8JYM55G9ypzHdAPAJ4AukXXtmx4AGBlp2qLfgKQb13AU6Jrv+4JwGRRIWaJrmvZUf0K8UEoloqVRNf1ACD/VK/Ak3gC4Pf/+aeaA6A6hMisr9VF1/UrgPybJbqunwBYJlSdkA9CsVSsIrqunwDkn+pH8OsGAGuKCjFLdF3LzhzRdf0EwFKhaouqe8+yoxoArAErBgBriAoxS3Rdy87zouuOBCaIrm3WaxV0kwBV955lZ5bouv8eAAxH15E+I7quZWcRul8iU0TXNeu1nui6s/ErgCJ4VnTdVYChnYSRgGpXNR/pWgyqvRxUna9Zr6mi63r/lGJQfQd2Aqv2DgAUFgELRde2bKk6o6mi65r1Ug1CPQAohnnoVlKt0YluAot//ReHqjPaUHRds14biK7r9//FofouXL0T3XKql0XXteypBgBbiK5r1mtL0XVV744te6oBwKqdwHjRxf0EoDhU21lugU8FNJ0OYLro2k+LrmvZU/0YHt+JbgWAnwAUx4Oi604A1hVd22w9YJzo2g+IrmvZU/0YntCJrgH7CUBx3C+89jbCa1u5bS28tgcAxSF9ArCy6OJ+AlAcTxNmsyrsIrqu2a6i687Fe6gUifQJgOcAWKsq6F4DeABgKqq2dz/hnrNikA4AVMeqegBQLKrXANsStgU2a6fR6F4/+fF/saieho/rBEaJLj5bdF2LQ9UpjQB2El3bymsXYJjo2so5N5Y91XfhqE7CSFZBtfuRxXG38Nr7Ca9t5aRsc8p7zbKnOtNhtAcAlpWbgW7RtfcXXdfKS9XmuoFbRNe2OJaKrjtK+QrAA4BieQ3da4At8H4A1j7rAJuKrn0PutM3LY5SDgCWia5r8dwovPbBwmtbuRwqvPbNwmtbHKofw6P9BMCydJPw2kcKr23lomxrynvM4lB9F47qRDeT1QOA4lE+AdgVmCy8vpXDOsDOwusr7zGLQ/UKYGgn0Cm6uF8BFM+jwIuia3cC7xBd28rjCHQHUD0PzBRd2+JR/Rge0gkMEV3cTwCK6XrhtY8XXtvK4Tjhtf8ivLbFI30CMFR0cQ8AiulK4bW3BrYTXt+KbUfCihOVy4XXtnhUAwDpEwBV0hbXlUCX8PofEF7bik3ZtrqAa4XXt3hkrwAgbCxREYRq4GHx3YimTVUIJ6Wpjri24hpPOPFS1a7/Fj9FExmCpk11qSYAgm7XOItP+RpgLH4KYNn7ILCS8PpXCK9tcUlPdlyOZvShmntg8W2J7pdSBXgK3fJWK55hwJNo2/Rm0bM0lWFo2tTSTsIAQMEDgOK6m9BhqqyNNway7LybsP5fZSY+AbDIVN+FXZ3oJmx5DkCx/VZ8/TPQ7XFhxTGE0JaU1PeSxaX6LuwC3cSWsfHzM6HpaB+ZVoB3Rs/Siu4o9O14evQsTWkCmnb1Gj3/R3HxCVnUnCXtX2g7zofwqyZr3hDgQbRt+NboWZraqmja1iud6LbkHSG6rrXPBeLrbwS8V1wGy69jgY3FZfiF+PoW33DRdZeDbnbrevHzM7E1CBs+KX9BPQ2MiZ2oFc5KwDNo2+4yYM3YiZrcBmja1+OdwKI2JFjLaNF1rX1eBK4Tl2Ey+klclj+fASaJy3AV8IK4DBaf6rtwUSewUHRx/yorh/PUBQBOA6aoC2G5sT5wiroQwM/UBbC2kA4A/ATAYroU/RGmo4AfiMtg+fFtYKS4DLPw4T9lofoxvNADAIutizS+fA8knOVuNpD3AG9TFwL4H7SHaln7lPIVgPcBKI+fEvabUPsusIq6EJasVQm//tXm4sf/ZaI6Y2JRJ6GxKawsuq613xzS6NAmEn5ZmdXyXcLKFbXz0PXL1n6q78K5nfTsBiTgAUC5pPJI82jC3u5m1Y4gPP5X6wK+py6EtZXqqeTsTsKvMwUPAMrlcdKZ1PRDYF11ISwZ6wHnqgvR4w/oJ81ae6l2xZ3jAYC10xcJG1CoTSDssOZtgm0Y8EtgvLogQDfwJXUhrO1U34UeAFhb3QlcrC5Ej92Br6sLYXLfAnZWF6LH7whHaVu5rCq67myAd6HZhvD6+PlZgjYj7EGt3GK1N7qBI+Omawl7D/o22BvLgU3jpmuJ+huaNnd4J/BqGxKsZaLouqZ1P/AbdSF6dBCWKG6hLoi13VbAOepCVPk18IC6ECahOu/hVYCt0Yw+ZsfPzxK1AfpDgqrjaWDtqBlbSiYBT6Bvd9W//jeKmrGlbC6adrc5hJtB1fDV222azjnoO97quB3dhhzWPmOBO9C3t+pI6UmEtddodO1uTQizYLtFBZjacvVZXq1J2INC3flWxxWE+8GKaRhwNfp2Vh2z8ZG/ZbY+mnbXBQzpLcQrokLs2GLlWb6dgr4D7hsXUXVjWGEMIcw9UbevvnFyzKQtebugaXcvVhfiAVEhDmul5iz3hhKWPak74b7xE8IEQSuGDsL2uup21TfuwntRlN3haNrefQCdPYV43WigjbwbW7ktJ/wCqqgL0sf7CduxehCQfx3A94Hj1QXpowJ8hHAPWHlNEV33BVgxAHhaVAgPAOyvwP+qC1HDh/FugXk3hPA05yR1QWr4JfB3dSFMTjUAeBr0AwBV8paW09DtSDmQ9xI6ak8MzJ/hhIHl+9QFqeE14Ax1ISwJqh/BHgBYMp4FTlUXoh/vBC4jLB+zfBhHWNFxuLog/fgY8Jy6EJYE6ROAXoehmYigmntgaboY/cSs/uIe/MoqDyaR3jr/6vhDvNQth2ajaYcHVRdie1EhKviXla0wEXgJfSfdXzwFbBMte2vVDOAZ9O2kv3gRWCNa9pY3K6Nri6/rx9YSFmRG8/VnBXQE+o56oFgIHBMte2vW8cAi9O1joPCyZ6u2A7q2uFp1QToIHZuiIO9qvv6soH6NvrMeLM4mTDQzrRHAd9C3h8HiglgVYLl1NJq2OLdWYe4TFeY/mqk5K7SVgcfRd9qDxS3AhpHqwAa3MXAb+nYwWDwGTIhUB5ZfX0TTHu/sLUDvKgCAmVFSHNwGoutaumYDhxAe6aZsB8Jubh9TF6SEjiF8+af+CnEx4bXWa+qCWHJUJ0A+Vusvv43uV5RZLSeg//VWb1xMmMRoca0FXIL+8643UtuB0NKhenr1zVqFObnJ/7FWYw7ectX691P0nXi9MRs4EbfnGDoIv/pfRv851xtnR6kJK4JOYD6advn/ahXoAFFhKnhDIOvfKNJe110r/gxsFqMySmpz4C/oP9dG4jZgZIS6sGKYhq5t7lurQBsIC/S6TQnM+piG7sjqZmMZ8F1glQj1URarAj8g1KX682wkXgKmZl8dViCHoGufU2sVaAi6dbRnNlx9Vja7kf4671rxMnAK/jXYiFHAx8nfoK9CWE69c/ZVYgXzOTTtcwGvn/z/Oqqz2X/ZYOVZOR0BdKHv5JuJFwgHwHgg0L/hhDkUT6P/vJqJLuAdmdeKFdFv0bTR2wcq1P+KCnVXIzVnpfYJ9B19KzGLsGxwpYzrJc/GEg6DehL959NKnJJ1xVhhqfbdGfDH9udFhVqKfxlZ/b6LvrNvNV4FvkY4vKasJgNfR3cgSpbxPxnXjRXXaGA5mnb6mYEKdqSoUBXCpipm9RgC/B59p59FLCOcEHdgT15FN4Qw6fdS8je5r7+4iAHeq5r1sTO6tjrgeRTThQU7qf76M2MEcCX6zj/LeIrwVGDrDOspFdsC3yC/7/f7i8vxmRDWGNWeOxXC9tn9GopupvV59defGRAGAVeh/xKIEQ8BXyY8Gcvjr8tO4E3AV4CH0ddnjLiC0AbNGnE+mva6gDqeMv5TVDhPBLRmjASuQf9lEDNeJEzeOQpYJ5tqi2JdwglnvyKshVfXW8y4Cn/5W3PuQdNm/1FP4X4iKtwywuQIs0aNAq5D/6XQrniScGTyR4BdgfGtV2HDJhD2ZjgZ+A3h9YW6XtoVV+NJy9acMegmAL5ha+qhNQqo+iU+FNge+Kvo+pZfi4C3EybT1dzmsmDWAd7dE71mEZYWPdrzz4/3/PkiYUOdpQ1eYzhhJ741gPUIu4etR9gxdDrl3b77asJEqsXqglgu7YBusu8bvttrDQDurPF37bIzHgBYcxYBBxMODzpKXBaFqQy8/ew8wq6Ecwm/QJb3/B2EdfhDe2I84Yt/bKRy5tkFhBMql6kLYrm1i/Dadf24H4dut7UrWk7Ryq4DOAv9Y2JHseJr+JRHa93VaNpvFw0M6u8XFfJV8jnj2dJzMvndNtiRTnQDp2HWuk7gNTTt+J7+ClTLra1k2YKVGWSdolmdvgccjt/VWvOWEOZZ/Je6IFYIm6OZsAtwS62/7G8A8M+IBRnMrsJrW7FcAuwDPKcuiOXOs8CbCYe2mGVB+d12W62/TO0JAMCewmtb8dwIbAVcry6I5caNwHbATeqCWKHsJbx2zScA/RlOeHSqeFfxPJ5sY9kbSjh4Rv1O2ZF2nI239rXsdaDbHGsRMKzRAv9DVNgKsFmjhTWr03Hotrt2pBsLgWMwi2MrdG37hv4KNdCM+37/S23wZuG1rdjOJ6zFfVBcDkvHg4Q2cYG6IFZYysf/uRsAKCvLiu9frDidrltcFtOpAOcQ3vffIS6LFZvyR+3fm/kvrUboHBWPLGZTe5dCs6y9heIdUesYPJ4HDsIsvmHo1v93Aas0W3DVhkAVtFsmWrlMIJy2p/5ScrQnLiL8wDFrh73QtfUBt/8dbNe9ph4dZGR/4bWtXJYDN7Nib3wrrnmEJaHeIMraZT/htVt6lX8UupHL7a0U3KwOUwm7vM1G/6vU0d6YDXyTgQ9QMsvC3eja+btaKfhkYcG7gYmtFN6sH7sDF6M7l9uRTiwnvBLYDbPsrY2ubXcDa7aagHIewLGtFt6sygGER/3qLx1HmnETfvVo2foAuvZ892CFq+fkvf+rJ8tI3i68thVDB3AwYSvMK4EdtcWxhO0EXAXcCRyBdyS11im/w/6Uxf/IoehGMAuA0VkkYaXTSfjivw39L0tHPuMewu6AQzBr3Epodx09MIskJqB9V+qnANaofQib/ai/QBzFiPsITwTMGnEEuja7DBiXVSK3CBP5WVZJWOFtB/wZ/ReGo5jxR8IOkmb1+AW6tprpTr5fECbyMt4V0Aa2LuEUty70XxKOYkc3cCEwDbP+DQNeRddOP5NlMjsIE6kAe2eZjBXGWMI6/iXovxgc5YrFhLMkVsLsjfZF2z63yTKZTsLe2apkzskyGSuEg4En0H8ROModz+BjhO2NzkPXJp8lwgqWnwsTehUYnnVClksbAdei7/gdjuq4HpiOWfiuegVdW/xpvQWtZx+AXlc18J/N2sr4NUDZjQHOAu4lPF4zS8mehJUn3yC0VSuvt9LCCXwZuDrG/+jKhKUFqlHN+TGSslx4MzAT/a88h6OeeIwwILByUp4suhQYHyuxPwkTew0YGSsxS9I44EeEmdfqTt3haCS6gR8SJqpaeYwC5qJrd9c2UthGXgEA/KHB/3yWxhMmflk57EvYie3/4S1ZLX86gA8R2vBbxGWx9jkU7aDv9zH/x9dG+2vsipjJWRLGAj/Bv/odxYluwkomLxksvmvQtbMuYK3YCd4qTHBZOxI0mRnAw+g7bIcjRszEh1EV2SS02+Y3vPtfMzvsXQJs38R/LwtDgfcA3xJd3+LoAE4DvoKXezZrCfA08Bwwu0YsJhyutbTnP7+w578DMIIVh24NJ8xiH0mY+Ns3JgGTe/471pj1gL8CnwK+Tei0rTiORntwVMOv6Jt5t7oJ8EAT/72s3ANsKby+ZWsiYY8JL+0b3NPAgz3xMGEjpKcJm9G80OayrEl4JTgZmAJsTOgbNun5OxvYNcBxtP9zs3juAzYTXn8a4SlTdHeifZS2Q/wUrQ3eSugA1Y9mU4tFwD+A7wPHE564ZXayVxuMI5T5fYQc/oH2WNRU43nCyZWWfzuibUu3xk9xhTMjJVFvnB89Q4upA/g0PrynN2YSTr08AdiacJBI0Qwj5HYC4f59HH29pxDLgTPwSpe8U279WwE+ET/FFdZDO0t7EbBa9CwthrGEpSrqjlcZjxM6jGMIJxmW1RTgWMLgZxb6z0UZv8OrBPJqPGF+jartdAHrRM+yj5szKHgr8cn4KVrGNiJs5avubNsdy4HbCMdqz8C/9vqzPvAx4I+EyYrqz63d8SCwacu1aO32EbTt5m/xU3yjU5osbFbxGI1vZGQ6hwBz0Hey7YpFhCcd70W7L3herQocRVh1tBj959mueA1veJY3d6FtMx+On+Ibqdc8VoADo2dpWfgk5djYZzlhK87jiLgfdwlNIEyGvBZ9n9OO6KLN73StaTujbSvLCCtyJJS7HlWAK+OnaC0YStjLX92hxo57CI+u18im2mwAaxDq+h70n3vs+AHadeU2uN+gbSPS3XHf3U+h2hXdwIbRs7RmrARcjr4TjRWLgAvxMi6lGcDZwDz07SFWXEu+loCWyST0c1UOj57lAEYR3lkpK+Cs6FlaoyYRzkZXd54x4kHCAUXulNMxDjgJeAh9+4gRtxPuKUvLl9G2i1dJYEfOc9BWwsv4mOCUTAeeRN9pZh3/BxyEJ56mrJMwge569O0l63gC7S5z9noj0G9i9sPoWdZhV/Q3x7HRs7R6bE8YkKnbQ1axHPglsE2WlWRtsS3wK4o1afAlYLssK8madhz69pDEwVId6B+93YPXVqvtBcxFf1NkEcsI5xN4fkn+bQRcQHEGAnOAPTKtIWtUJ/r9TO6LnmUDTkd/Y7wtepbWn4MIp8up20Cr0UWY2LdxttVjCViPMGFwGfp21mosBg7NtnqsAYeibwOnRM+yAauj36zjH9GztFreRTE61YvwL/4y2JhibEW9FDgi47qx+tyK9rNfRNgoKynq9ZAVYO/oWVq1w8n/l/8/gd2zrhhL3o7ADejbXyuxnLAU29pnX/Sf+y+iZ9mEvdBXzJ+jZ2m9jiTfX/6PE55eeO5IeXUQvkBnoW+PzcZS4LCM68X6dz36zzzZHyz3o6+cnaNnae9AvwFGKx3md/DJa7bCKMJBTerXmM3GcsJg1uLaEf1n/QAJ/2hRHxBUAS6NnmW5HUJ+v/z/hCf4Wf82Iez3oG6nzcRSfIhQbFeg/5w/Gj3LFoxHvy1nN7BF7ERL6s2ECSjqm6DReA54T4T6sOLpIJxCqN7kpZlYSMKPh3Nua/QHms0hBzuQfh/9jfCr6FmWz/bkc53/hcBqEerDim0CYdmguv028yUxI0J9lN1v0X+2/xM9ywxsSFhPrayo5XhJV5Y2BJ5HfwM0Ei8iPijDCuEIwg586vbcSLxEeJ1h2dgA/UZS3YRNrXLhWvQ3wfmxkyyJdYCn0H+ejcTF+Ghey86awCXo23UjMQsfIJSVX6D/PKXH/jbqQPQVthzPBWjVWOAu9J9lvbEAOCFKTZjBB8nXjpf/wqtdWrU1+ifaFcL+A7nRQdirWF1pV8ZOtMCGAJeh/wzrjQeALaPUhNkKmwJ3o2/v9cZVwNAoNVEOKTzNvpuEl/715/3oK65CmLlujUthMme9cQEwJk41mL3BKMJeEup2X2+cE6caCm9P9J9dBTg6cp5RjACeRV95t5DD0ZPYaeg/t3piIWHJlpnCseRnWeypkeqgqDqA29B/bk8BwyLnGs2Z6Cuwgg/NaMS+6Ge81hNPAztEqgOzem1DPrYS7gIOiFMFhfRu9J9ZBfh47ERjGge8hr4SHwOGR861CDYEZqP/vAaLG4CJkerArFGrkY8dBF8lLGmzgQ0HHkX/ec0hbK6Xa99CX5EV4KTYiebcWNKYuDlY/BgP5iw9w8nHxkH34JUBg/ko+s+pAnw9dqLtMJE0ls68SA62URTpAH6H/jMaKLoJB7aYpexjpLFsbKC4BM+L6s9Y0tj0bAEF2svke+grtAJ8PnaiOfUp9J/NQLEYn3Zm+fEe0j9Z8JPRss+3L6P/bCrAf8dOtJ3WAZagr9R5wOTIuebNbsAy9J9Nf/EqPuDE8mdP0p5PsxQfnd7XusB89J/NIgq4i2Mq78cujJ1ojqxG2tv8Pk3YeMUsj6aTxlLo/uJJYNVo2efP79F/JhXCHiyFM4V0zpH3cpjwDvBS9J9FfzELz1i2/JtKWIWkvp/6iyvxfACAt6L/LCqE78gpkXOVORd9BVeAh4GRkXNN3enoP4f+4iHCayOzIpgCPIL+vuovcr3WPAOjSGeQ9sPIuUqtSzqTY/4jcq4p25o05mTUivsp4PsvK72JpHuGwGJgq3ipJ+9L6D+DCuHd/9qRc5VLZQ/tRcC0yLmmaCRhLbC6/mvFPYR5CWZFtAZhgKu+z2rFXYTt28tmQ9L5UfqtyLkmYXVgLvrKrgDXRM41Rf+Nvt5rxSPAWhHzNkvBmsCD6O+3WnFWxLxTdRX6eq8QVqgVZt3/YL6GvsJ747DIuaZkN9LcpORJwmQpszJYB3gc/X3XN7oIyxfL4p3o67w3vhQ516SsTFjfra703i+fMmyNOZY0Dy15Glg/XtpmSdoQeA79/dc3ZlKOo7XHEvoedX1XgFeACXHTTU9KR86W4dFXKnMvquNVYLOYSZslbAvSOCytbxRqF7p+pPQqtJRHNQ8nnaUXyyj20bJvIr0jfpcAe8dM2iwH9iCdSWi90UWxdwmcQTp70syknJMvAXgv+g+gNx4grActmuHAvejrtzq6gaNjJm2WI+8i3BPq+7I67qaYp26OJK3+8Mi46aatE7gN/YfQG9+Mm67E59HXa9/wQSRmr/dp9Pdl3/hc1Iw1Unr0/w+8CyN7of8geqML2DVuum21Aek9Xjw7asZm+fUT9PdndRRtr5Q9SGsV1G5x082PS9B/GL0xkzBDtAiuQF+f1XEjxXysaJaFYcDf0N+n1XFZ1IzbZwxpbcfsQ+mqrE8Ybao/lN74Qdx02+Lt6OuxOp7FW/yaDWYi6SxP642DombcHqmcRlsBFuJ9T97gK+g/mN7oBvaLm25UowhPMtT12BuLKPYqC7Ms7Uhar+4eJd+Hp72FtCZZfiFqtjk1hrTOpn8SGB8143g+j77+quPYuOmaFc4H0N+31fHZuOlGM4G0nqg8AYyOmnGOvQf9B1Qd50fNNo5JwHz0ddcbP42brllh/QL9/dsb88jnWR0p1WEFOCJuuvnWAfwV/YdUHYdGzTh756Kvs964n3JsK2oWw1jgYfT3cW/8OG66mTscfZ1Vx//FTbcYppPOLk0VYDb52at+U8Kuhuo6qxDeYW4dN12zwtuSdCZILyf0z3kwjbS2WV5C6J+tDimdFlgB/kk+tmu8En1d9cZJkXM1K4tT0N/PvfGHyLlmYQRpbTBXAb4cNeOCGU16x2V+P2rGrdsTfR31RlHWDpuloAO4Gv193Rupb2DzI/R1VB2PUcxt5qPaD/0H1zfeGzXj1qQyd2I2MDlyrmZlM4l0jlBP+V32kejrp28cGDXjArsY/YdXHXMI53inZh/0ddMbKQ+SzPLsOPT3d2/sGTXT5mwMzEVfN9XhHf9aMJF0Rr29cTfpPc5JZfvQS2MnalZyqWybfkPsRBs0ErgDfb1UxyvAmjGTLoP3of8g+8Y5UTNuzL7o66MCvIQbu1lsKb0K2Ctyro04D3199I1jo2ZcEh3Adeg/zL5xVMykG3AT+rqoAMfHTtTMAPgg+vu9Qph3lILj0NdF37gmZsJlM5WwE5X6Q62OeejXxO6Ovh4qhMeBpT/X2qxNOglnyavv+wqwU+RcB7MlsAB9PVTHXGBKzKTL6GT0H2zfmAmsHjPpQVzeT7naGcsIN6GZtc82hI151Pf/JbETHcCawKwaZVLHhyPmXFqdhOUn6g+3b9yAZpOgTYGuJsqbdXwrdqJmVtN30d//3cBmsROtYSTpvP6sjr8RvqssgqmEpXjqD7lvnB8v5X79rMmyZhnPEPYrN7P2Gwc8h74fODd2on10kN4hPxXC1sNTIuZtpLkqoAKcGTPpPiYR9pZW5/y+2Ima2YBORN8PLCYs2W6Xz0TKo9U4NmbStkJqGwRVCI/jD4mZdJUvtSmngeIuYEjsRM1sQEOAe9D3B/8RO9Eeh5HGq8++kYczEgpjdeAF9B9631gIbB8xb4BhhEfv6lz3jZynmdXnQPT9wbOEvimmbYD5CeTaN17Ee6C03SHoP/ha8SSwVsS8351AjtdGzM/MGpfCBOkjIuY3CXg6gRz7RjdwUMS8bQA/RN8AasUtxNsu+AZxbl3AVpFyM7PmbEf4MlL2DX+JlNsowpHs6n69Vnw3Us5Wh1HAvegbQa24iOzfkW+dSF5mlp5L0fcPm2ec0xDg9wnkVSvuIiwXPebXAAAOsUlEQVRHNKHphHfv6sZQK84n2x3yvifOpxv/+jdL1bbonwL8d4b5dBCWGKr78VqxCNgiw1ytBR9G3yD6i+9klONwwoE7ylx+n1EuZhbHFWj7iBfIbjLgWeJcBooTM8rRMtBBuo+JKsAnM8jxcHEO3YRZuGaWru3R93dZLIc+M4E8+ovfZpCfZWw88Cj6xtHfl+cJLeanHtlf1mL5zaw9rkLbV1zaYvlPRP8qo794CO9+mqxtCO9m1I2kViwH3tFkXmsRDt1Rln+PJstuZu21N9q+YinNr4s/gjQOOaoVC/B7/+SlsDVmf7EE2K+JnE4Vl/v2JspsZjp3oO0zTm6izHsTthVW99P9xXFN5GQC56NvLP3FAmCXBvNRn/393gbLa2Zax6HtM25osLxvAuaJyzxQtPvAI2vBGMIaTXWj6S9epv5HSVPRvg97hrACwczyYwTwPLp+oxtYp86ybgm8IizrYHE78TZ2s0jWJ+1G9RJhY5/BnC4u56frKKOZpefzaPuOj9dRxm3QL28erJ+eUkcelqC90U+eGyhmEx59DeR2YfmWEfdcAzOLRz15+JZByrct4Wmouh/uL5bjQ89yT/0LerCYDezYT9mnisvmjX/M8u0ydP1HN7BuP+XaEXhNWLZ64tR6KtjS9xv0jWmgmA/sVaPcHxWX64B6K9jMkqQ+NfWkGmXaBZgjLtdg8at6K9jSNxq4DX2jGijmAXv2Kfe1wvI8RfaHGZlZew0FnkXXj1zdpzx7En7wqPvbgeJWPOmvcNYifKmpG9dAsQB4S095V0K7JvZLTdSxmaXnq+j6kcWs2DlvD9Je6lchrHpau4k6thyYQfiSVTeygWIRsD9wmLgcGzZZx2aWlk3Q9iWHEfq0VHdp7Y35+LyTwjsM6ELf2AaKxcC/hNf3zn9mxXInuv7kX6S9w1+F8J3w9qZr13Ll0+gbXMpxevNVa2YJcp/nPs+q/AB9o0sxugnLD82sONYn3RP21HFOC/VqOTUE+AP6xpda3NRKpZpZslJfCaWIKwgrJUqpU10AoS7gKMJNYSv8Tl0AM4viQnUBEnMrcCRhxz8rqdWAh9GPRFMJz/43K6bN0PcvqcRjwJqtVacVxUakfSBFu+LhVivSzJI2E30/o44XgQ1arcgiKPMrgGoPA/sQ9qYusyvVBTCzqK5SF0BsLmFPgkfVBbH07En6m1XEjN5dCM2smA5A38+oYiFhN0Kzfr2NtI8QjhXzgREZ1J+ZpWsU6e+GGiOWEzaBMxvUUaS/W2DW4cf/ZuWgPGRMEd3A8ZnUXMF4DkBtv6R8Z0H/XV0AM2uLv6kL0EYV4GTgZ+qCWP6cin702q7YOaM6M7O07Y6+v2lXnJFRnVlJnYa+EceOBcDwrCrMzJI2gnJMdv5MVhVm5fZF9I05Zvwpu6oysxz4C/p+J2Z8PrOaMgO+ir5R+2Yxsyx8CX2/Eyu+mmE9mf1bUZ8EHJBlJZlZ8t6Gvt+JEd/IspLM+joDfSPPOiZmWkNmlrrJ6PudrOPrmdaQWT8+ib6xZxXPZFw3ZpYPz6Hvf7KK/8i4bswG9An0jT6LuDzrijGzXLgKff+TRXw664opC28E1LxvAR8jNMA8u1NdADOTuF1dgBZ1Ax/Bk/6a5gFAa75L2GJyubogLZiE9wAwK5vhhHs/r5YDxwI/UBfE7GDCSVPqR2HNxr3A9pnXipmlaCvgX+j7nWZjMT7YxxKzBzAH/c3RbCwjzKIdmXXFmFkSRgJfAJai72+ajXnAPhnXi1kmtgNeQn+TtBL3ATtmXTFmJrUTcD/6/qWVeBHYNuuKMcvSRsBj6G+WVmI58E3C2eFmll+jCROWl6PvV1qJR4ANMq4bsyhWBW5Ef9O0Go/hXQLN8uogYCb6fqTVuBVYI+O6MYtqDGGNvfrmySIuB6ZkWz1mFslk4AL0/UYWcS0wNtvqMWuPIcCP0N9EWcQCwgSiEVlWkJllZhhhb5K56PuLLOKnwNBMa8hM4EygC/0NlUXcS1jxYGbp2JP8T/LrjS7g9Exrx0zsMGA++psri+gGfgWsm2kNmVmjpgC/IdyT6n4hi5gPvD3TGjJLxFbAE+hvsqxiCfAdYHyWlWRmgxpDeCWX5w3I+sYzwIwM68gsOZMIs1rVN1uW8TLh3aPf15nF1QkcAzyP/r7PMu4A1smwnsySNZrw2E5902Ud9wL7ZVhPZrbCAYSNutT3edbxS7zniJXQaeR/g45acS0+W8AsK28C/oj+vs46lgGnZlhPZrmzB/AC+psxRvwRv9Mza9bmwIUUZ4JfdbyM9/Q3A8K7r3+ivyljRDdhI6GtM6sts2LbjLCRT1GWDveNO4D1MqstswIYDfwc/c0ZK7oI7/o2zKrCzApmI8Ly2qJ+8VcIm/v4fb9ZP04AFqG/UWPFMsJAYMusKsws57YifPEvQ39/xooFwHEZ1ZdZoW1NOP1KfdPGjhuAgzOqM7O82ZXweqyI7/ir42E84DdryHjgYvQ3bzviRuBtQEcmNWeWrk7gEOBm9PddO+K3+DAfs6adRLF2+xoo7gOOB0ZmUnNm6RgJvB94AP191o5YAJyYSc2ZldymwJ3ob+p2xWzCFsNTM6g7M6VJhC17X0J/X7Ur7gO2yKDuzKzHSMKXYtHfF1ZHF2EvgYPx6wHLl10Ja/iLPLGvVlxAWNFkZhEcAryI/kZvd9wHfAi/T7R0jSW8sivKsbyNxAvAQa1XoZkNZg3gEvQ3vSIWEX5Z7YOfClgaZgBnA/PQ3x+KuApYq+VaNLOGHAG8ir4DUMWTwNfxrmLWfpOBMyjHct3+Yg6e6GcmNRW4Hn1noIwu4DrgPXiXMYtnNPBewryUIu/WV0/8HzClteo0syx0AidT3keQ1TEP+DVhroSXE1qrRgKHEo7vno++fatjLvARQp9jZgmZSjiKV91JpBILCDutHYNnJlv9RhBWnlxAeMytbsepxDX4V79Z0joIm+mUeW5ArXiNcNjSIcCYpmvXimoMoW38nNBW1O01pXgFOLb5qjWzdlsLuAh955FiLCb8mjkZWL/ZCrbcW5/QBq4ltAl1u0wxLgQmNlvBZqZ1IDATfUeSctwHnAXsAQxtrpotB4YCewLfpJxr9RuJx4D9m6plM0vKKMJ2pP6VM3jMJ8zyPoOwm9uwxqvbEjEEmE5YqnYhYYtpdftKPZYSdhz1azKzgtkM+Cv6TiZPMRu4FPgY4UhTbz6Urk5gK+AUwmfmL/zG4npgk4Zr3XLLnVn5dADvIjzyXltcljx6FbgVuKXqz1ekJSqv1YAdgDdV/bmytET59CRwOuEpiZWIBwDlNQY4EzgNr5dv1aOsGBDcCtxNOMLZsjOGcMJc9Zf9NGmJ8m8RYT7EN3B7LSUPAGxt4KvA0eqCFMxzwO2ECYb39/x5L7BEWagcGEJYaz6d8MpqOmGv/Y17/p1l4wrgo8Dj6oKYjgcA1msPwq+B7dUFKbDFhMHAA4RZ1jN7/nyMMGAok0mEZXjTqv7clPCl7ydS8dxCeNz/d3VBTM8DAKvWOz/gq4RdBa19FrFiUDATeIpwxOqzwPOEAcJrstI1ZgJhH4qJhC/6NYF1CYc29X7Z+8yG9poJfJrwnr8iLoslwgMAq2UEYYOUT+NJVSlZRBgMPAu8SBgQzCHsz1795+yef17I69/tzq765wWEJV8Aw3n9sq/qz3wM4ct6POGLfTwwrs+fEwhf8mv1hH/Bp+NV4CvAD1jxeZsBHgDYwMYCJxEGAuPEZTGz+i0Avk+Y4Dd7kP+slZQn1dhAlgI3Aj8hPDacgTfGMUvZUuCnwGHAHwjzTszMWrY2cDahk1FvWuJwOFbEEuCHwGTM6uRXANaMdYFPAB/Ak7nMlJYCvwW+SJhEalY3DwCsFWsCpxImDI4Wl8WsTJYQji7+EvCMuCyWUx4AWBbWJDwR+CCeLGgW0xzgR8C3CStBzJrmAYBlaSzwPsJgYB1xWcyK5HnC/Jv/IT/7QZhZCQ0DjgHuQT85yuHIc9xNOM7YeyuYWa50APsBVwFd6DtThyMP0UXYq39f/JTWInLjsnaZRlg1cCLeXdCslnnAb4DvEM6MMIvKAwBrt3HAccCHgE20RTFLwoOEiX3nE7ZwNmsLDwBMaQbhicBReBmhlcsS4DLgHODPhEf/Zm3lAYClYFXgWMIrAj8VsCJ7gPClfwHhoB4zGQ8ALDUzCCsI3gOsJi6LWRZeAy4nfOn7174lwwMAS9UIwizoo4FD8CFEli9dwPXAL4CLeP2xzGZJ8ADA8mAicATwTmBn3G4tTd3ATYS9+X8HvKAtjtnA3JFa3qwNvIMwIPBgwFJwP+EL/wJgprgsZnVz52l5No1w7vmhwJuATm1xrCS6gX8AlwC/x1/6llMeAFhRrAYcQHgysC8wXFscK5guwpf+73riWW1xzFrnAYAV0RjgzcBBhEHB2triWE69BPyFsC3vZfgQHisYDwCs6DqAbYH9e2IHYKi0RJaq5YRf+dcAVwN34CV7VmAeAFjZjAF2AvbpiW3xfVBmM4E/9cQf8a98KxF3fFZ2EwmvC3aF/9/eHbxEHURxAP+QXgrFiDwVBYEtlFjhsfzXu2SnKDQsIlKo7BKBhmKGoB3eLO2GCFn2283vBx5v4HeZy+48hpl5lnBHDhP+rw7xCk+wjMdyVS/OsRQAEcOu4KEqCB6pHYL0Yh9P3/BCLfbLeIqtTmcUMUJSAEScbBI99UTxoioOHsguwSjaUIv88xbPVNOdiDhGCoCI3zeNBdzD/ZbnpaPhv7KHNaxgtcVL7HQ5qYhxkwIg4u+YwJwqBHq4qzob9qQwOK09vGnxuuU1vFP38iPiD6QAiDhbF3ATt3FLvV44mKe6m9pI2FFb9+st98dv8V6u4UWcmRQAEd2aVQ8VXccNXBsYz7a4avx+q0f4oh7T+YyP2MQnfGjjzfY9Ijowbn8qEefRhJ+FQD9fxswveVq9c3BR3VyYUm2UZwwfWryk2i0P+m64Ze0hvuIAu9hXp+p3W2y379sD4/6C38/Zpo8YYT8AVO3ZqIp3XIsAAAAASUVORK5CYII=;imageBackground=#FFFFFF;" parent="1" vertex="1">
          <mxGeometry x="-1172" y="-234.5" width="145" height="145" as="geometry" />
        </mxCell>
        <mxCell id="19qX6jDC2SZ2UWSstIv0-28" value="" style="shape=image;imageAspect=0;aspect=fixed;verticalLabelPosition=bottom;verticalAlign=top;image=data:image/png,iVBORw0KGgoAAAANSUhEUgAAAgAAAAIACAYAAAD0eNT6AAAABHNCSVQICAgIfAhkiAAAAAlwSFlzAAALEwAACxMBAJqcGAAAABl0RVh0U29mdHdhcmUAd3d3Lmlua3NjYXBlLm9yZ5vuPBoAACAASURBVHic7N13nF1Vvf7xz0x6Qgo9JEACoYceQHoRRKoCAjaqIv5EUVAQbNd6LXi9XruAImK7Ioj0ol4sFEGQ3iGE3gnpdeb8/lgz5jCcmTllr/Osvffzfr2+N9yg7vVdZ+111tl7lQ7MLHXDgNV7Yi1gAjC+58/qfx4LjARW6vnvTACG9Pz7auOBzj5/1w3M6fN3c4DlPX8uA+YDi4G5PX83B3itTzwPvNQTy5rO2Myi61AXwKzEOghf6OsAk3r+XBuY3PPPqwNrAKuoCtiiV4EXCYOBJ4FneuKpnj+fBp6Vlc6s5DwAMItrCLAesDGwPjCtJ9bviZG6oiVhMTATeKwnev/5YeBxoEtXNLNi8wDALBtDgU2A6cCmPbEJ4Yt/hLBcebYEeBB4CLgfeAC4r+f/Xy4sl1kheABg1rhxwNbAVj2xNbA5/qJvl8WEgcCdwF1Vf85VFsosbzwAMBvYUMKv+BnALsCuhF/2fSfRmd5zwA3AjcDtwG2EwYKZ1eABgNnrrU74ot8d2BnYBhguLZE1awlwB3AT8DfCwOBlaYnMEuIBgJXdZGBvYDfCF/+m2uJYRBXCnIIbgL8Df8arEKzEPACwslkJ2BHYpye2xfdBmc0E/tQTfyYsXTQrBXd8VnSdwPbAAcD+hC/8IdISWaq6CHMHrgauIswh6JaWyCwiDwCsiFYhPNbfBziIsMmOWaNeBq4HrgAuB2Zri2OWLQ8ArCjWIfzCPxh4K2ErXLOsdAH/AH4HXEzYxdAs1zwAsDzbFDi0J2bg9mztUSG8HrikJx7UFsesOe4wLW/WJXzhH0GYtW+mdj/hycCvgEfEZTGrmwcAlgeTgSOBdwE7iMti1p8KcAvwW+BCvMTQEucBgKVqJOF9/jHAfoQd+czyohu4GbiA8GRggbY4Zm/kAYClZgbhS/8o8nsMrlm1ucClhMHAnwlPCszkPACwFKwOHAd8ANhQWxSzqB4GzgXOx9sSm5gHAKY0AzgROBoYJS6LWTstJTwVOAc/FTARDwCs3cYD7wP+H7CRuCxmKXgY+BHwM2COuCxWIh4AWLtsCHyE8OW/krgsZimaD/wa+B5wr7gsZmYt6STM5L+OMCu64nA4Bo1u4FrgQMI9ZGaWG8MJM/nvQ9+ZOhx5jkeAj+E5MhaBXwFYlsYBxwOnEzbvMbNsvEiYJ/BdfGSxZcQDAMvCJMKX/gn4/b5ZTPMIywj/C3hOXBYzK7F1ge8AC9E/KnU4yhRLCBsLTcOsSX4CYM2YCpxKWMM/UlsUs1JbBvwv8GV8EJGZRTQFOI/Q6ah/ATkcjhWxjPBqYF3M6uQnAFaP1YFPEGYj+xe/WbqWErYZ/gKeI2CD8ADABrIK8FHg48BYcVnMrH4LCRsKfQOYLS6LJcoDAKtlJOHX/pnABHFZbIXFhANkXumJl6r+ufrvlxN+CfYeQTuf8IgYVnwZVP/7MYS9GwBW7vlzGCtWdPT++6HAqsBqPX/2xup9/s5PidIxG/gaYTCwWFwWS4wHAFatk3AM75fxu8R2WwI8CTwOzKr6cxbwLOGLPS9nyo8hDAQmAesRJo1OrfrnKawYcFh7PAF8hrDVcEVcFkuEBwDWax/gLGAbdUEKbDFwP3AP8BgrvugfJ7yv7ZaVrL06CYODqYRBwXqE5WybA9OBEbKSFd/twCeB/1MXxPQ8ALANgK8CR6gLUjDPEbZCvp/Q6d5HOOBlibJQOTCU8PRpOuG46M16/nlT3F9l6QrgFMJA1ErKN1R5rUR4JHgq/sXVim7gAeBm4E7gbsIv/NeUhSqgCcCWwBbA1sBOhMGB+7DmLQb+m/ADIC+vl8ysBR2EX/tPoF+7nMdYCtxG2AHxCMK7btMYS3h19QXgj3hHymbjGcLhXR5MmRXY5sDf0Xc4eYrngIsJT0p2JMyOtzQNI3xGHwd+DzyPvv3kKf5KeN1iZgUyhrAeeCn6Tib1WAhcBZwMbNRMZVtSNiYsab0aPyGoJ5YSlg2ObqayzSwtBxNmmas7lpTjMeBswiN9n2ZYXKMIrwy+TniNo253KcfTwDuaq2YzU5sMXIK+I0kxFhBmQX8Yn6ZWZhsAHwGuJLQJdbtMMS4G1mq2gs2svTqAEwg7gKk7j5TiNeDnwIF4pzp7o5HAQcAvgDno22tKMRt4H54kaJa0qcB16DuMVGIhcDlhhvOY5qvVSmYE4dXZBcBc9O04lfgrsGEL9WpmEXQSJjrNR99JqGMBcCHh/eWoVirVjDAZ7gjgIjyJsALMIxwQ1tlKpZpZNtYjjMzVHYMylgJ/AN6Ff+lbPCsB7wYuxStq/kJ44mhmIsdQ7keUjxA2gVmnxXo0a9RE4AxCG1TfB6qYC5yI5waYtdWahF8h6g5AEUsIj/j3wR2PpWEGYRlpWV8RXE043MnMInsH4ex39U3f7rifsBvfaq1XoVkUqxF2IXwA/f3S7ngJOKT1KjSzWkYD56C/0dsZiwlL93bNoP7M2mk3wiqCxejvo3bGD/HkW7NMTSecMqe+udsVrxEO25mcReWZCa1BmKdSpqd29wNbZVB3ZqXWQZhkU5Zdyh4jLGf0TH4rmhGESbtleT2wiHAve56OWRNWpjwT/W4EDsNri634hgCHAzejv+/aERcD4zOpObOS2BZ4FP3NGzO6CLv07ZJRnZnlzQzCPIHl6O/HmDEL2CGbKjMrtpMo9sShZcB5hINYzCxsr3s+xR4ILAI+kFF9mRXOSsBv0N+osaIL+CXeS9ysPxsDvybcK+r7NVZcgOf4mL3OBsA96G/OGNFNeNS/dWa1ZVZsmxG+KIs6ELgLWD+z2jLLsf2AV9HflDHij4T3nGbWuM0Ju152o7+Xs45XgH2zqyqzfOkg7CVexPd+fwS2z66qzErtTYSnaOr7OutYTugDvVTQSmUMYWSvvgGzjlvxrn1msewO3Ib+Ps86fkPY6dSs8CZRvJv4WcKGRV7HbxZXB2FDoefQ3/dZxp3AuhnWk1lytgaeRH+zZRVLCFv2jsuyksxsUGMIWwwvQt8PZBXP4leHVlCHU6wtfS/HM3nN1NYhrBhQ9wdZxSLg3ZnWkJlQB/BZijOT905gzywryMxatjfFOTCsG/hUttVj1n7DgJ+hv6GyiJcI7/mHZFpDZpaVIcCHCEvs1P1FFvETYGimNWTWJisBV6K/ibKIC4HVs60eM4tkDYrzWuA6PMfIcmYixZjp/wxwSMZ1Y2btcQDwBPp+pNW4C5iccd2YRbEB8Aj6m6aV6AbOBsZmXDdm1l6jga+T/22FZwKbZFw3ZpnaAXgZ/c3SStwH7JR1xZiZ1C7A/ej7l1biJWC7rCvGLAt7AnPQ3yTNxlLCL4URGdeLmaVhGGHr3TwfNz4feEvWFWPWikPJ9011CzA981oxsxRtQdi2W93vNBuLgLdnXitmTTgaWIb+pmgmugg7+Q3PvFbMLGVDCTsJ5vUwsuXA+7OuFLNGnEp+N/iZhQ/uMSu73cnvSoFu4KPZV4nZ4E5HfwM0GxcCK2dfJWaWQ+OAX6Dvl5qNz2ZfJWb9OwN9o28m5hB28zMz6+sIYDb6fqqZ+HyE+jB7g7x++f8DmBahPsysOKYAf0PfXzUTX49QH2b/9jX0jbzRWAZ8Du/hb2b1GQp8kXxOEPxahPow4yvoG3ej8SLhlDAzs0btDjyHvh9rNP4rRmVYeX0JfaNuNG4jPM4zM2vWZOBm9P1Zo/GFCHVhJZTH2f5n47X9ZpaNEYT9QtT9WqPh1QHWko+jb8SNxGLghCg1YWZldzSwEH0/10h8KkpNWOGdir7xNhKzgG1jVISZWY/tyN/GQd4syBpyDPna4e96YI0oNWFm9nqrAtei7/fqjW68bbDV6TDytfzla3iJn5m11xDgLPT9X72xDB8gZIN4M+GkKXVjrbdBfzBONZiZ1eV4wlHi6v6wnlgC7BunGizvdgDmom+k9cRcYP841WBm1pC9gdfQ94v1xHxg5zjVYHm1CfAy+sZZT8wCpkepBTOz5mwBPIm+f6wnXgI2ilMNljerA4+gb5T1xJ3A2nGqwcysJWsRNiBT95P1xExgYpxqsLwYC9yOvjHWE1f3lNfMLFVjgMvQ95f1xG3ASnGqwVI3DLgGfSOsJ84mHNBhZpa6IcD30Peb9cRVuG8tnQ7gZ+gb32DRBZwSqQ7MzGL6BPnYT+XcWBVgafoc+kY3WCwHjouUv5lZO7yXsGRZ3Z8OFmfGqgBLyzsIv6zVDW6gWAIcHqsCzMza6EjS3yugG3hnrAqwNGxLWAeqbmwDxWK8Y5WZFcsBpH+Q0ELCfjBWQJOAp9A3soFiPrBPrAowMxPag/Q3W3sWL7UunDHAv9A3roFiNrBTrAowM0vALqS/a+BtwOhYFWDt1QH8L/pGNVC8gh89mVk5bAO8iL7fHSguJnx3WM59Gn1jGiieI2yjaWZWFpsCT6PvfweK06Jlb22xP2nP+H8W2DBa9mZm6dqQ0Aeq++H+YjnwlmjZW1QbEt6rqxtRf/ESPtTHzMptY+B59P1xf/EKMC1a9hbFSsC96BtPfzGbsCTRzKzsZpD2xMA78aTAXLkAfaPpLxYAu8VL3cwsd3YE5qHvn/uLX8dL3bJ0EvrG0l8sBt4aL3Uzs9x6M7AIfT/dX5wQL3XLwlaku9vUUuCgeKmbmeXeWwk/lNT9da1YhF/dJmsC8Bj6RlIrluN9ps3M6nEY6R4g9CgwPl7q1owO4FL0jaNWdAFHx0vdzKxwjifdo4S9SVBiPoq+UfQXp0TM28ysqE5D33/3FydFzNsasDnpvvf/ccS8zcyK7nvo+/FasYgw58yERgJ3o28MteJKYEi81M3MCm8I8Af0/XmtuA8YFS91G8w56BtBrbidsBmRmZm1ZjRwC/p+vVb8IGLeNoB3oP/wa8UsYK14aZuZlc4k4En0/XutOCRi3lbDWsDL6D/4vjEH2DJi3mZmZTWdNM93eQmYGDFv6+MK9B9631iKT44yM4tpL2AJ+v6+b1wWM2lb4UT0H3at+GDMpM3MDID3oe/va8X7YiYdQ942M1gPuAsYqy5IH18HPqUuhFmPEcCqPbFaz5+r9Py7lXv+HMaKiarzCTuvQXjECvAq4TXbK1WxJGqpzep3FnC6uhB9zCUsDZwlLkfd8jQA6ASuB3ZXF6SPPwL7E3b8M2uHIcAGwCbAVMLAeL2ef54KjIt03TnAE8DjhE7u8Z54kLANt+8Ba5chwLXA3uqC9PEXQpm6xeUonI+hf8TTN2YRfl2ZxTIa2IPQ/n8K/JM0N75a2FO2n/SUdQ98hrrFtTphQKpu+33j5JhJl9FU0jsrehGwXcScrZwmAgcTXivdQLono9UTywibpZwNHANMybCezAC2Ib0B8QJg/ZhJl0kHcB36D7Vv5G7ChyVpKLAr4Qv/NtI9ACWreIwwIDiYMFfBrFVHo2/XfePP5OsVe7JOQP9h9o0fRc3Yim4V4P2EEyxTe7LVzpgHXEI4+a13cqJZM85F3577xvFRMy6BSYTZyOoPsjpuxr9crHHjCY/BLyfNdczqWE545XEiPm/dGjeC9LYLfg2YHDPporsE/YdYHc/jD9Tq1wnsRzg/PM/v8tsdi4DfAW/tqUOzeqwLvIi+/VbHRVEzLrC3of/wqmMZYWaz2WAmA58jrBJRt9u8x+PAZwlPA80GszfhaZK63VbHgVEzLqAxpNd5fi5mwlYIuwK/J70OqAixjPAkZZe6Pw0rqy+hb6/VMRMviW3IWeg/tOq4gbDxhFlfnYQZ7Teib6dlidsJ8ymG1vH5WPkMBW5C306r46tRMy6QzQkH66g/sN54jbAPgVm14cBJhNG9uo2WNR4lnMExfJDPyspnGmFrXnUb7Y0lwGZRMy6ADsKvbfWHVR3vjZqx5c1QwtLUWejbpiPE44QlV34iYNWORd82q+OveG+AAR2F/kOqjl/FTddyZAhhw5FH0LdLR+14iDBg98oB6/Vb9O2yOt4dN938Wgl4Bv0H1BtP4s1JLNgTuAN9m3TUF/8ivUPDTGMCaT2te5owyd36+Dr6D6c3ugidvpXbOsAFFH973qLG5YRTEq3cdiOtlTlfjptu/mxAWhul+AMqt1HAfxI2pFG3RUdrsZCwLGwkVmZfRd8We2MRHpi+zmXoP5TeuAVPJiqzvfB7/iLGQ3gjrzIbRjiuWt0Oe+P3cdPNj73Qfxi9sQSYHjddS9R44DuE1z/qduiIE92EVzqrYGW0BWktMd87brrp6yRM2FF/EL3xhajZWqreBjyLvv052hPPAAdhZfRl9O2vN/5JyZcFHoP+Q+iNB/B7wrIZRfjV70l+5YwL8IzsshkB3Ie+7fVGaZcFjgSeQP8BVAiPfb3HeLlsAdyNvu05tPEAsC1WJjuRzqu+xynp8fJnoK/83vhu5FwtHR3A6YT5Hup250gjFgMfp+SPY0vmh+jbXW98InKuyVkFmI2+4iuEpxBj46ZriRhHmH2rbnOONOMi3BeUxTjCpjzqNlcBXqVkm859A32l98bbIudqadiYtN79OdKMh/BKoLI4EH17643/jJxrMtYCFqCv8Arwy8i5WhoOJ62TwRxpx1zgMKwMUjkrYB6wRuRck/A99JVdAV4CVo+cq+l9Fs/ydzQe3cCnsaJbE3gFfXurAN+OnKvcFNLZ8vcDkXM1raHAj9G3M0e+4zzCLnJWXB9G384qhC2C14mcq9R56Cu5AtxJON7VimkscBX6duYoRvyJsFOkFdMQ0lkSfHbkXGWmAcvQV3AFn/RXZJOAe9C3MUex4m7C/CUrpregb2MVwlbFUyLn+m/tXPf6E+D9bbxefy4mTAqz4plK+LU2TVyOVLwAvEh4x/kK8DLwWs+/WwbM7/nnlVjxmHtlYNWeWI0wT2bNNpU3dY8C+xCWDlvxXEoaq8J+DHyoHRdq1wBgXcLNo36XthjYjLD7khXLRoQv/0K/Q6thPmF5413AvcBjwCxCG1+U0TVGEY4vXY8wuNoc2LLnz7JtpfskYRDwiLoglrkNCPfScHE5lhDus2fE5cjMD9A/WqkQzoS24tkceA59+4od3YQO6lzgOMKgp7P16mtaJ2F/heMIT/jupxwrLp4jtDkrnrPQt68K8D+xE22XSYRfIuoKfZbwqNOKZTphSae6fcWKl4BfAUeRj2WraxAO+foN4ZWDuv5ifi7eMKh4xgHPo29fCynIq7dvo6/MCnBs7ESt7TakmMf4Pks4n2JX8r1aZQiwG2HvjyI+oXmW8NjYiuUE9G2rQngakWsrE3Y4UlfkrWgflVr2ppDOaZJZxHzCMtk9KGZbHQLsBfyMdHYCzSJmEeY4WXF0Arejb1tzyPny00+jr8QK4ZeUFcckwiQsdbvKIu4gzPjN9Y3eoPHASYT9ONT1n0U8DEzMtIZMbU/07apCOLk0l0aQxuPZq2Mnam01lvClqW5XrUQ38Efg4IzrJo92BS4n/5MH76Fcg7gy+BP6dvU0+lUJTfkA+srrBraPnai1zVDgGvTtqtlYRngEvmnWFVMAmwE/B5aj/5yajSsJbdSKYSf0bapCWGWTKx2EJUHqirs0dqLWVqksJ200uoALCcv2bGDrEbZDzetA4Nzsq8SEUthS/AFyNi/oYPSV1g1sHTtRa5sz0bepZuIqvFysGVsA16H//JqJ3L63tTeYQRqvp/aLnWiWUrhxfxc9S2uXt5HGTdhIPADsH6MySuZgwiQ79efZSHQBB8aoDJO4BH2buip6lhnZFH1n3UV4p2j5tyFh/3r1DVhvLABOQ7/tdZEMBz5FGhuK1Ruz8R4BRbEl4TtF2Z66yckrxB+iv/l+GT1La4cx5Otkv78Rtsa1OKaRxszseuNuyndWQlH9Fn17+m70LFs0Hv3GP8sIvxot//4X/U1XT8wjrHpp5+maZdVB2DchL5sJ/SpONVibbYJ+YupcwlbFyToF/Q13XvQsrR0+gr4t1RO34gGnwiaksVtbPdGWo10tugvQt6WPRs+ySR3AQ2grZzl+71YE00n/fW834XRJv+vXGU7YL10952iwWIjnJBXBxujnAjxAok8a34z+RrsoepYW2wjS3yJ2DnBorAqwhh1EmHSnbhcDxT3AyFgVYG3zB/RtaffoWTYhhfe1O0XP0mL7b/TtaKB4AO/kl6INSX/C6DejZW/tshv6dpTcJPfVgSVoK+XG6FlabG8h7ce5lwMrRcveWjWWcPaHup30F13A3tGyt3a5BW07WgSsGj3LBnwS/c3lR7L5Nhp4DH076i/Oxfu858EQ0t4y+nE8iMy7I9C3o1OjZ1mnDvQ7dT1CuPEtv76N/qaqFd3AJyLmbXGcSbpPk/4rYt4W3xD0P1YeiJ5lnVJ4J3JS9Cwtph3Qr7GtFV3ACRHztrhORD9ru1YsB7aLmLfF91H07WjH6FnW4SdoK+EVvNtWng0F7kB/M9XqpI+NmLe1x7sJm4Op21PfuAsvIc2z0cDLaNvQj6JnOYjRhCVRykr4cvQsLaYz0HfGfWMZcHjMpK2tjiDNJ0wfj5m0RfefaNvPbMRLS99bo1DtjMXAxOhZWixroh9A9o0u4KiYSZvE0aT3OmAO7r/ybE30G5YdGT3LAVzbT6HaFT+Pn6JF9FP0nXB1dBP29Ldi+hDpTQw8O2rGFtsv0LafK+OnWNtk9I/Vdo2epcUyg/R+kZ0ZNWNLwWfRt7PqWA5sHTVji2l3tO1nGaKnSKc2Udgs4/74KVpEf0ff+VaHf4mVR2pPnq6Pm65F1AE8iLb9nBw9yxpubbKwWUUyGyFYww5G3+lWxzV4k58yGQZch77dVcd+UTO2mE5D23ZuiJ/i662P9l3aYmC16FlaDB3Av9B3uL3xAImfsW1RjEe/gVl1/JNET3mzQam3wu8G1o2eZZXPREiikfh1/BQtksPRd7a9MY9w9LCV0ybAXPTtsDfeHjddi+hCtG3n9PgprnB3pCTqjb3ip2gRdBI2QFF3tBXCqPmIuOlaDrwLfVvsjXsI94jlz1vQtp3b4qcYbNqmhPqLR/Cjsrx6N/pOtje+HTlXy4+UDg/yoDSfOtGfD7BB9CzRL6M5I36KFkkq7/7vBUZFztXyYyT6p5q90bZfcpY59avxtrwGuE2UXIWw5nGt+ClaBHuj71wrhAmkW0bO1fJnc/S7uvXGnnFTtUgmAkvRtZubYie4DtrZ/5fETtCiuRJ9x1rBy0etf6ejb58V4PLYiVo0l6FrN13ApJjJqY9AfGfM5CyaTUhjC9ZbCGd5m9UyhLAcT91Ou4HNIudqcajPx/lQzOT+LExsAbBSzOQsmnPRd6pLCI95zQayFdrHuL1xTuxELYqxwEJ07ea6WImtgvZc7QtjJWZRjQPmo+9Qvxg7USuMr6Fvr/MIXyaWPxejazdLgQkxklIv4XpHjKQsug+h70yfAkbHTtQKYzTwBPp2e2LsRC2Kd6JtN1GWkl4gTGgeXraVV7ej70g9d8QadRT6dvvP6FlaDKPRPvU8L+uEOoEXhAn9KuuErC22Q9+J3oQ3jrLGdRAOWVG3321iJ2pR/BZdm3mOjPu8NwmTqeA9svPqx+g70J2iZ2lFtSv69vv96FlaDIehbTczskzmi8JE5hB26rJ8GQa8jPYmuCJ6llZ06mODX8RHVefRSMJ3l6rdfDbLZG4VJvLzLBOxttkPbcfZTcajYCsl9dPPCuGgGcufX6JrMzdmlcTKwHJhIgdmlYi11c/QdpreNdKycgXatnxu/BQtgrehazPLCEuwW6Z8lzEfP/7Po+HAK2g7Tb/7t6zsjrYtv0q4pyxfRhE2sFO1m4MGK2A9Z0+/uY7/TCx/IRzeYvmyL2HjKJWbgJuF17di+RvhNajKyoTDtCxfFhHajso+g/0H6hkADPo/EtHVwmtb8w4WX/+/xNe34lG3qUF/zVmSrhFeu+VB49poH31NazUBk1DuojYLH/hj2RsCPImuXc+Mn6JFsBG6NtNNOKK4X4M9AdirgUSz9jDwmPD61pzpwLrC6/+UcCymWZa6iLDDWgPWAzYWXt+ao/we62CQ7/DBBgC7Z1eWhvnxfz7tL7x2F3C+8PpWbOrB5X7Ca1vzlK8BdhvoXw42ANg1w4I0Sllp1jxlJ3UV4eAfsxieIuJxq3VQDq6teckOAAayOuEdguLdxUJ8+E8ejSDMfFW98zoyfopWcu9B174X4OWAeTQGXb/YxQArsgZ6ArArukNUridUmOXLduj2bVgIXCm6tpXHpYQvYoXR+HCgPFoA/F107U5g54H+ZX+afnSQAT/+z6ddhNe+DF3HbOWxAG3/pHwta81L8jXAQAMAZWd+rfDa1rx+R5ptcJHw2lYuFwqvreyXrXm5GjSOIOzAp3hn8XxTKZpaB+HkMkWbWQKMjZ+iGRD2WF+Kpq2/iO7VrDVP2T8uop+5I/09AdiKMAhQyOwUI2uraYSJowo3APNE17bymYtuq+nVgfVF17bmVQhblCuMBLao9S/6GwC8KV5ZBnWD8NrWPOXkJO8ZYe2mfKS7lfDa1jzlj9sdav1lfwOA7SIWZDCqUZK1ZnPhtT1nxNpNOQDYUnhta55yALB9I//hB9G8q1iI17nm1R/QtJlXqe9QK7MsdQKvoWnzF7chP8uecp+Ue2sVqFbHOQ7YsMVEm3UrYXKN5U/Nd0xtcDNhwyqzduoG/iG6tupes9YsAW4TXXtTakyUrjUA2Lqfv28HTwDMp7GEw0oU3GZMRdX2phF2l7P8UbWZTmq8Oqr1Ra+cYOL3//m0IbqlSarZ2Gaq/qoT2EB0bWuN8gfL1n3/or8nAAoV3JnnlerXP8Ddwmtbud0pvPZU4bWteTeie2X5hh/3KQ0A7iNM6LL8mSq67lPAK6Jrm70CPCe6tnLQbc17FXhIdO1BBwBDgc3aU5Y38K///Joquu49ouua9VI9gfIAIL9Ur442B4ZU/0XfAcAm6E5zu0t0XWvdVNF1ay5tMWsjVRv0ACC/VN91o+mzpi5R8AAAIABJREFUwq/vAGB6+8ryBn6Xm19TRNedKbquWS9VG1Tdc9Y65ZPL133H9x0AqB7/V/Dj3DxbQ3TdWaLrmvWaJbqu6twNa53yx+6m1f9P3wHApmg8QdhVy/KnA1hFdO3HRdc166Vqg6viUwHz6lXgadG1BxwAbNLGglTzu9z8GgcME137SdF1zXo9IbrucHwEdp6pnnj3OwAYgm4LYOV6WmvNaqLrzgUWi65t1mshsEB07VVF17XWqV4DbEzV9371AGB9dCsA/P4/v1Sd0Mui65r1pWqLHgDkl+o7bzSwbu//Uz0A2Kj9Zfk3DwDya5zout4AyFKhGgCMF13XWqecCLhx7z/0fQKgsBh4RHRta53q+GYPACwVqrY4QnRda92D6E6+/fd3ffUAYJqgIBC2AF4uura1TtUJLRJd16wvVVtUDb6tdcuAB0TXTmoA4BUA+abqhFSjZ7O+loiu6ycA+ab67vv3d30KA4DHRNe1bKg6IVWna9aXajDqJwD5pvrue8MTgA50+7l7M5d8U+0BsEx0XbO+/ATAmqH67nvDE4C1gFGasng715zrEl3Xu6BZKmodq94OqnvPsqEaAKxEz1bSvQ13HVFBwE8A8k7168ePPy0Vql/i3ggr32YJr702rBgArC0qxBLgOdG1LRuqTsgDAEuFV8JYM55G9ypzHdAPAJ4AukXXtmx4AGBlp2qLfgKQb13AU6Jrv+4JwGRRIWaJrmvZUf0K8UEoloqVRNf1ACD/VK/Ak3gC4Pf/+aeaA6A6hMisr9VF1/UrgPybJbqunwBYJlSdkA9CsVSsIrqunwDkn+pH8OsGAGuKCjFLdF3LzhzRdf0EwFKhaouqe8+yoxoArAErBgBriAoxS3Rdy87zouuOBCaIrm3WaxV0kwBV955lZ5bouv8eAAxH15E+I7quZWcRul8iU0TXNeu1nui6s/ErgCJ4VnTdVYChnYSRgGpXNR/pWgyqvRxUna9Zr6mi63r/lGJQfQd2Aqv2DgAUFgELRde2bKk6o6mi65r1Ug1CPQAohnnoVlKt0YluAot//ReHqjPaUHRds14biK7r9//FofouXL0T3XKql0XXteypBgBbiK5r1mtL0XVV744te6oBwKqdwHjRxf0EoDhU21lugU8FNJ0OYLro2k+LrmvZU/0YHt+JbgWAnwAUx4Oi604A1hVd22w9YJzo2g+IrmvZU/0YntCJrgH7CUBx3C+89jbCa1u5bS28tgcAxSF9ArCy6OJ+AlAcTxNmsyrsIrqu2a6i687Fe6gUifQJgOcAWKsq6F4DeABgKqq2dz/hnrNikA4AVMeqegBQLKrXANsStgU2a6fR6F4/+fF/saieho/rBEaJLj5bdF2LQ9UpjQB2El3bymsXYJjo2so5N5Y91XfhqE7CSFZBtfuRxXG38Nr7Ca9t5aRsc8p7zbKnOtNhtAcAlpWbgW7RtfcXXdfKS9XmuoFbRNe2OJaKrjtK+QrAA4BieQ3da4At8H4A1j7rAJuKrn0PutM3LY5SDgCWia5r8dwovPbBwmtbuRwqvPbNwmtbHKofw6P9BMCydJPw2kcKr23lomxrynvM4lB9F47qRDeT1QOA4lE+AdgVmCy8vpXDOsDOwusr7zGLQ/UKYGgn0Cm6uF8BFM+jwIuia3cC7xBd28rjCHQHUD0PzBRd2+JR/Rge0gkMEV3cTwCK6XrhtY8XXtvK4Tjhtf8ivLbFI30CMFR0cQ8AiulK4bW3BrYTXt+KbUfCihOVy4XXtnhUAwDpEwBV0hbXlUCX8PofEF7bik3ZtrqAa4XXt3hkrwAgbCxREYRq4GHx3YimTVUIJ6Wpjri24hpPOPFS1a7/Fj9FExmCpk11qSYAgm7XOItP+RpgLH4KYNn7ILCS8PpXCK9tcUlPdlyOZvShmntg8W2J7pdSBXgK3fJWK55hwJNo2/Rm0bM0lWFo2tTSTsIAQMEDgOK6m9BhqqyNNway7LybsP5fZSY+AbDIVN+FXZ3oJmx5DkCx/VZ8/TPQ7XFhxTGE0JaU1PeSxaX6LuwC3cSWsfHzM6HpaB+ZVoB3Rs/Siu4o9O14evQsTWkCmnb1Gj3/R3HxCVnUnCXtX2g7zofwqyZr3hDgQbRt+NboWZraqmja1iud6LbkHSG6rrXPBeLrbwS8V1wGy69jgY3FZfiF+PoW33DRdZeDbnbrevHzM7E1CBs+KX9BPQ2MiZ2oFc5KwDNo2+4yYM3YiZrcBmja1+OdwKI2JFjLaNF1rX1eBK4Tl2Ey+klclj+fASaJy3AV8IK4DBaf6rtwUSewUHRx/yorh/PUBQBOA6aoC2G5sT5wiroQwM/UBbC2kA4A/ATAYroU/RGmo4AfiMtg+fFtYKS4DLPw4T9lofoxvNADAIutizS+fA8knOVuNpD3AG9TFwL4H7SHaln7lPIVgPcBKI+fEvabUPsusIq6EJasVQm//tXm4sf/ZaI6Y2JRJ6GxKawsuq613xzS6NAmEn5ZmdXyXcLKFbXz0PXL1n6q78K5nfTsBiTgAUC5pPJI82jC3u5m1Y4gPP5X6wK+py6EtZXqqeTsTsKvMwUPAMrlcdKZ1PRDYF11ISwZ6wHnqgvR4w/oJ81ae6l2xZ3jAYC10xcJG1CoTSDssOZtgm0Y8EtgvLogQDfwJXUhrO1U34UeAFhb3QlcrC5Ej92Br6sLYXLfAnZWF6LH7whHaVu5rCq67myAd6HZhvD6+PlZgjYj7EGt3GK1N7qBI+Omawl7D/o22BvLgU3jpmuJ+huaNnd4J/BqGxKsZaLouqZ1P/AbdSF6dBCWKG6hLoi13VbAOepCVPk18IC6ECahOu/hVYCt0Yw+ZsfPzxK1AfpDgqrjaWDtqBlbSiYBT6Bvd9W//jeKmrGlbC6adrc5hJtB1fDV222azjnoO97quB3dhhzWPmOBO9C3t+pI6UmEtddodO1uTQizYLtFBZjacvVZXq1J2INC3flWxxWE+8GKaRhwNfp2Vh2z8ZG/ZbY+mnbXBQzpLcQrokLs2GLlWb6dgr4D7hsXUXVjWGEMIcw9UbevvnFyzKQtebugaXcvVhfiAVEhDmul5iz3hhKWPak74b7xE8IEQSuGDsL2uup21TfuwntRlN3haNrefQCdPYV43WigjbwbW7ktJ/wCqqgL0sf7CduxehCQfx3A94Hj1QXpowJ8hHAPWHlNEV33BVgxAHhaVAgPAOyvwP+qC1HDh/FugXk3hPA05yR1QWr4JfB3dSFMTjUAeBr0AwBV8paW09DtSDmQ9xI6ak8MzJ/hhIHl+9QFqeE14Ax1ISwJqh/BHgBYMp4FTlUXoh/vBC4jLB+zfBhHWNFxuLog/fgY8Jy6EJYE6ROAXoehmYigmntgaboY/cSs/uIe/MoqDyaR3jr/6vhDvNQth2ajaYcHVRdie1EhKviXla0wEXgJfSfdXzwFbBMte2vVDOAZ9O2kv3gRWCNa9pY3K6Nri6/rx9YSFmRG8/VnBXQE+o56oFgIHBMte2vW8cAi9O1joPCyZ6u2A7q2uFp1QToIHZuiIO9qvv6soH6NvrMeLM4mTDQzrRHAd9C3h8HiglgVYLl1NJq2OLdWYe4TFeY/mqk5K7SVgcfRd9qDxS3AhpHqwAa3MXAb+nYwWDwGTIhUB5ZfX0TTHu/sLUDvKgCAmVFSHNwGoutaumYDhxAe6aZsB8Jubh9TF6SEjiF8+af+CnEx4bXWa+qCWHJUJ0A+Vusvv43uV5RZLSeg//VWb1xMmMRoca0FXIL+8643UtuB0NKhenr1zVqFObnJ/7FWYw7ectX691P0nXi9MRs4EbfnGDoIv/pfRv851xtnR6kJK4JOYD6advn/ahXoAFFhKnhDIOvfKNJe110r/gxsFqMySmpz4C/oP9dG4jZgZIS6sGKYhq5t7lurQBsIC/S6TQnM+piG7sjqZmMZ8F1glQj1URarAj8g1KX682wkXgKmZl8dViCHoGufU2sVaAi6dbRnNlx9Vja7kf4671rxMnAK/jXYiFHAx8nfoK9CWE69c/ZVYgXzOTTtcwGvn/z/Oqqz2X/ZYOVZOR0BdKHv5JuJFwgHwHgg0L/hhDkUT6P/vJqJLuAdmdeKFdFv0bTR2wcq1P+KCnVXIzVnpfYJ9B19KzGLsGxwpYzrJc/GEg6DehL959NKnJJ1xVhhqfbdGfDH9udFhVqKfxlZ/b6LvrNvNV4FvkY4vKasJgNfR3cgSpbxPxnXjRXXaGA5mnb6mYEKdqSoUBXCpipm9RgC/B59p59FLCOcEHdgT15FN4Qw6fdS8je5r7+4iAHeq5r1sTO6tjrgeRTThQU7qf76M2MEcCX6zj/LeIrwVGDrDOspFdsC3yC/7/f7i8vxmRDWGNWeOxXC9tn9GopupvV59defGRAGAVeh/xKIEQ8BXyY8Gcvjr8tO4E3AV4CH0ddnjLiC0AbNGnE+mva6gDqeMv5TVDhPBLRmjASuQf9lEDNeJEzeOQpYJ5tqi2JdwglnvyKshVfXW8y4Cn/5W3PuQdNm/1FP4X4iKtwywuQIs0aNAq5D/6XQrniScGTyR4BdgfGtV2HDJhD2ZjgZ+A3h9YW6XtoVV+NJy9acMegmAL5ha+qhNQqo+iU+FNge+Kvo+pZfi4C3EybT1dzmsmDWAd7dE71mEZYWPdrzz4/3/PkiYUOdpQ1eYzhhJ741gPUIu4etR9gxdDrl3b77asJEqsXqglgu7YBusu8bvttrDQDurPF37bIzHgBYcxYBBxMODzpKXBaFqQy8/ew8wq6Ecwm/QJb3/B2EdfhDe2I84Yt/bKRy5tkFhBMql6kLYrm1i/Dadf24H4dut7UrWk7Ryq4DOAv9Y2JHseJr+JRHa93VaNpvFw0M6u8XFfJV8jnj2dJzMvndNtiRTnQDp2HWuk7gNTTt+J7+ClTLra1k2YKVGWSdolmdvgccjt/VWvOWEOZZ/Je6IFYIm6OZsAtwS62/7G8A8M+IBRnMrsJrW7FcAuwDPKcuiOXOs8CbCYe2mGVB+d12W62/TO0JAMCewmtb8dwIbAVcry6I5caNwHbATeqCWKHsJbx2zScA/RlOeHSqeFfxPJ5sY9kbSjh4Rv1O2ZF2nI239rXsdaDbHGsRMKzRAv9DVNgKsFmjhTWr03Hotrt2pBsLgWMwi2MrdG37hv4KNdCM+37/S23wZuG1rdjOJ6zFfVBcDkvHg4Q2cYG6IFZYysf/uRsAKCvLiu9frDidrltcFtOpAOcQ3vffIS6LFZvyR+3fm/kvrUboHBWPLGZTe5dCs6y9heIdUesYPJ4HDsIsvmHo1v93Aas0W3DVhkAVtFsmWrlMIJy2p/5ScrQnLiL8wDFrh73QtfUBt/8dbNe9ph4dZGR/4bWtXJYDN7Nib3wrrnmEJaHeIMraZT/htVt6lX8UupHL7a0U3KwOUwm7vM1G/6vU0d6YDXyTgQ9QMsvC3eja+btaKfhkYcG7gYmtFN6sH7sDF6M7l9uRTiwnvBLYDbPsrY2ubXcDa7aagHIewLGtFt6sygGER/3qLx1HmnETfvVo2foAuvZ892CFq+fkvf+rJ8tI3i68thVDB3AwYSvMK4EdtcWxhO0EXAXcCRyBdyS11im/w/6Uxf/IoehGMAuA0VkkYaXTSfjivw39L0tHPuMewu6AQzBr3Epodx09MIskJqB9V+qnANaofQib/ai/QBzFiPsITwTMGnEEuja7DBiXVSK3CBP5WVZJWOFtB/wZ/ReGo5jxR8IOkmb1+AW6tprpTr5fECbyMt4V0Aa2LuEUty70XxKOYkc3cCEwDbP+DQNeRddOP5NlMjsIE6kAe2eZjBXGWMI6/iXovxgc5YrFhLMkVsLsjfZF2z63yTKZTsLe2apkzskyGSuEg4En0H8ROModz+BjhO2NzkPXJp8lwgqWnwsTehUYnnVClksbAdei7/gdjuq4HpiOWfiuegVdW/xpvQWtZx+AXlc18J/N2sr4NUDZjQHOAu4lPF4zS8mehJUn3yC0VSuvt9LCCXwZuDrG/+jKhKUFqlHN+TGSslx4MzAT/a88h6OeeIwwILByUp4suhQYHyuxPwkTew0YGSsxS9I44EeEmdfqTt3haCS6gR8SJqpaeYwC5qJrd9c2UthGXgEA/KHB/3yWxhMmflk57EvYie3/4S1ZLX86gA8R2vBbxGWx9jkU7aDv9zH/x9dG+2vsipjJWRLGAj/Bv/odxYluwkomLxksvmvQtbMuYK3YCd4qTHBZOxI0mRnAw+g7bIcjRszEh1EV2SS02+Y3vPtfMzvsXQJs38R/LwtDgfcA3xJd3+LoAE4DvoKXezZrCfA08Bwwu0YsJhyutbTnP7+w578DMIIVh24NJ8xiH0mY+Ns3JgGTe/471pj1gL8CnwK+Tei0rTiORntwVMOv6Jt5t7oJ8EAT/72s3ANsKby+ZWsiYY8JL+0b3NPAgz3xMGEjpKcJm9G80OayrEl4JTgZmAJsTOgbNun5OxvYNcBxtP9zs3juAzYTXn8a4SlTdHeifZS2Q/wUrQ3eSugA1Y9mU4tFwD+A7wPHE564ZXayVxuMI5T5fYQc/oH2WNRU43nCyZWWfzuibUu3xk9xhTMjJVFvnB89Q4upA/g0PrynN2YSTr08AdiacJBI0Qwj5HYC4f59HH29pxDLgTPwSpe8U279WwE+ET/FFdZDO0t7EbBa9CwthrGEpSrqjlcZjxM6jGMIJxmW1RTgWMLgZxb6z0UZv8OrBPJqPGF+jartdAHrRM+yj5szKHgr8cn4KVrGNiJs5avubNsdy4HbCMdqz8C/9vqzPvAx4I+EyYrqz63d8SCwacu1aO32EbTt5m/xU3yjU5osbFbxGI1vZGQ6hwBz0Hey7YpFhCcd70W7L3herQocRVh1tBj959mueA1veJY3d6FtMx+On+Ibqdc8VoADo2dpWfgk5djYZzlhK87jiLgfdwlNIEyGvBZ9n9OO6KLN73StaTujbSvLCCtyJJS7HlWAK+OnaC0YStjLX92hxo57CI+u18im2mwAaxDq+h70n3vs+AHadeU2uN+gbSPS3XHf3U+h2hXdwIbRs7RmrARcjr4TjRWLgAvxMi6lGcDZwDz07SFWXEu+loCWyST0c1UOj57lAEYR3lkpK+Cs6FlaoyYRzkZXd54x4kHCAUXulNMxDjgJeAh9+4gRtxPuKUvLl9G2i1dJYEfOc9BWwsv4mOCUTAeeRN9pZh3/BxyEJ56mrJMwge569O0l63gC7S5z9noj0G9i9sPoWdZhV/Q3x7HRs7R6bE8YkKnbQ1axHPglsE2WlWRtsS3wK4o1afAlYLssK8madhz69pDEwVId6B+93YPXVqvtBcxFf1NkEcsI5xN4fkn+bQRcQHEGAnOAPTKtIWtUJ/r9TO6LnmUDTkd/Y7wtepbWn4MIp8up20Cr0UWY2LdxttVjCViPMGFwGfp21mosBg7NtnqsAYeibwOnRM+yAauj36zjH9GztFreRTE61YvwL/4y2JhibEW9FDgi47qx+tyK9rNfRNgoKynq9ZAVYO/oWVq1w8n/l/8/gd2zrhhL3o7ADejbXyuxnLAU29pnX/Sf+y+iZ9mEvdBXzJ+jZ2m9jiTfX/6PE55eeO5IeXUQvkBnoW+PzcZS4LCM68X6dz36zzzZHyz3o6+cnaNnae9AvwFGKx3md/DJa7bCKMJBTerXmM3GcsJg1uLaEf1n/QAJ/2hRHxBUAS6NnmW5HUJ+v/z/hCf4Wf82Iez3oG6nzcRSfIhQbFeg/5w/Gj3LFoxHvy1nN7BF7ERL6s2ECSjqm6DReA54T4T6sOLpIJxCqN7kpZlYSMKPh3Nua/QHms0hBzuQfh/9jfCr6FmWz/bkc53/hcBqEerDim0CYdmguv028yUxI0J9lN1v0X+2/xM9ywxsSFhPrayo5XhJV5Y2BJ5HfwM0Ei8iPijDCuEIwg586vbcSLxEeJ1h2dgA/UZS3YRNrXLhWvQ3wfmxkyyJdYCn0H+ejcTF+Ghey86awCXo23UjMQsfIJSVX6D/PKXH/jbqQPQVthzPBWjVWOAu9J9lvbEAOCFKTZjBB8nXjpf/wqtdWrU1+ifaFcL+A7nRQdirWF1pV8ZOtMCGAJeh/wzrjQeALaPUhNkKmwJ3o2/v9cZVwNAoNVEOKTzNvpuEl/715/3oK65CmLlujUthMme9cQEwJk41mL3BKMJeEup2X2+cE6caCm9P9J9dBTg6cp5RjACeRV95t5DD0ZPYaeg/t3piIWHJlpnCseRnWeypkeqgqDqA29B/bk8BwyLnGs2Z6Cuwgg/NaMS+6Ge81hNPAztEqgOzem1DPrYS7gIOiFMFhfRu9J9ZBfh47ERjGge8hr4SHwOGR861CDYEZqP/vAaLG4CJkerArFGrkY8dBF8lLGmzgQ0HHkX/ec0hbK6Xa99CX5EV4KTYiebcWNKYuDlY/BgP5iw9w8nHxkH34JUBg/ko+s+pAnw9dqLtMJE0ls68SA62URTpAH6H/jMaKLoJB7aYpexjpLFsbKC4BM+L6s9Y0tj0bAEF2svke+grtAJ8PnaiOfUp9J/NQLEYn3Zm+fEe0j9Z8JPRss+3L6P/bCrAf8dOtJ3WAZagr9R5wOTIuebNbsAy9J9Nf/EqPuDE8mdP0p5PsxQfnd7XusB89J/NIgq4i2Mq78cujJ1ojqxG2tv8Pk3YeMUsj6aTxlLo/uJJYNVo2efP79F/JhXCHiyFM4V0zpH3cpjwDvBS9J9FfzELz1i2/JtKWIWkvp/6iyvxfACAt6L/LCqE78gpkXOVORd9BVeAh4GRkXNN3enoP4f+4iHCayOzIpgCPIL+vuovcr3WPAOjSGeQ9sPIuUqtSzqTY/4jcq4p25o05mTUivsp4PsvK72JpHuGwGJgq3ipJ+9L6D+DCuHd/9qRc5VLZQ/tRcC0yLmmaCRhLbC6/mvFPYR5CWZFtAZhgKu+z2rFXYTt28tmQ9L5UfqtyLkmYXVgLvrKrgDXRM41Rf+Nvt5rxSPAWhHzNkvBmsCD6O+3WnFWxLxTdRX6eq8QVqgVZt3/YL6GvsJ747DIuaZkN9LcpORJwmQpszJYB3gc/X3XN7oIyxfL4p3o67w3vhQ516SsTFjfra703i+fMmyNOZY0Dy15Glg/XtpmSdoQeA79/dc3ZlKOo7XHEvoedX1XgFeACXHTTU9KR86W4dFXKnMvquNVYLOYSZslbAvSOCytbxRqF7p+pPQqtJRHNQ8nnaUXyyj20bJvIr0jfpcAe8dM2iwH9iCdSWi90UWxdwmcQTp70syknJMvAXgv+g+gNx4grActmuHAvejrtzq6gaNjJm2WI+8i3BPq+7I67qaYp26OJK3+8Mi46aatE7gN/YfQG9+Mm67E59HXa9/wQSRmr/dp9Pdl3/hc1Iw1Unr0/w+8CyN7of8geqML2DVuum21Aek9Xjw7asZm+fUT9PdndRRtr5Q9SGsV1G5x082PS9B/GL0xkzBDtAiuQF+f1XEjxXysaJaFYcDf0N+n1XFZ1IzbZwxpbcfsQ+mqrE8Ybao/lN74Qdx02+Lt6OuxOp7FW/yaDWYi6SxP642DombcHqmcRlsBFuJ9T97gK+g/mN7oBvaLm25UowhPMtT12BuLKPYqC7Ms7Uhar+4eJd+Hp72FtCZZfiFqtjk1hrTOpn8SGB8143g+j77+quPYuOmaFc4H0N+31fHZuOlGM4G0nqg8AYyOmnGOvQf9B1Qd50fNNo5JwHz0ddcbP42brllh/QL9/dsb88jnWR0p1WEFOCJuuvnWAfwV/YdUHYdGzTh756Kvs964n3JsK2oWw1jgYfT3cW/8OG66mTscfZ1Vx//FTbcYppPOLk0VYDb52at+U8Kuhuo6qxDeYW4dN12zwtuSdCZILyf0z3kwjbS2WV5C6J+tDimdFlgB/kk+tmu8En1d9cZJkXM1K4tT0N/PvfGHyLlmYQRpbTBXAb4cNeOCGU16x2V+P2rGrdsTfR31RlHWDpuloAO4Gv193Rupb2DzI/R1VB2PUcxt5qPaD/0H1zfeGzXj1qQyd2I2MDlyrmZlM4l0jlBP+V32kejrp28cGDXjArsY/YdXHXMI53inZh/0ddMbKQ+SzPLsOPT3d2/sGTXT5mwMzEVfN9XhHf9aMJF0Rr29cTfpPc5JZfvQS2MnalZyqWybfkPsRBs0ErgDfb1UxyvAmjGTLoP3of8g+8Y5UTNuzL7o66MCvIQbu1lsKb0K2Ctyro04D3199I1jo2ZcEh3Adeg/zL5xVMykG3AT+rqoAMfHTtTMAPgg+vu9Qph3lILj0NdF37gmZsJlM5WwE5X6Q62OeejXxO6Ovh4qhMeBpT/X2qxNOglnyavv+wqwU+RcB7MlsAB9PVTHXGBKzKTL6GT0H2zfmAmsHjPpQVzeT7naGcsIN6GZtc82hI151Pf/JbETHcCawKwaZVLHhyPmXFqdhOUn6g+3b9yAZpOgTYGuJsqbdXwrdqJmVtN30d//3cBmsROtYSTpvP6sjr8RvqssgqmEpXjqD7lvnB8v5X79rMmyZhnPEPYrN7P2Gwc8h74fODd2on10kN4hPxXC1sNTIuZtpLkqoAKcGTPpPiYR9pZW5/y+2Ima2YBORN8PLCYs2W6Xz0TKo9U4NmbStkJqGwRVCI/jD4mZdJUvtSmngeIuYEjsRM1sQEOAe9D3B/8RO9Eeh5HGq8++kYczEgpjdeAF9B9631gIbB8xb4BhhEfv6lz3jZynmdXnQPT9wbOEvimmbYD5CeTaN17Ee6C03SHoP/ha8SSwVsS8351AjtdGzM/MGpfCBOkjIuY3CXg6gRz7RjdwUMS8bQA/RN8AasUtxNsu+AZxbl3AVpFyM7PmbEf4MlL2DX+JlNsowpHs6n69Vnw3Us5Wh1HAvegbQa24iOzfkW+dSF5mlp5L0fcPm2ec0xDg9wnkVSvuIiwXPebXAAAOsUlEQVRHNKHphHfv6sZQK84n2x3yvifOpxv/+jdL1bbonwL8d4b5dBCWGKr78VqxCNgiw1ytBR9G3yD6i+9klONwwoE7ylx+n1EuZhbHFWj7iBfIbjLgWeJcBooTM8rRMtBBuo+JKsAnM8jxcHEO3YRZuGaWru3R93dZLIc+M4E8+ovfZpCfZWw88Cj6xtHfl+cJLeanHtlf1mL5zaw9rkLbV1zaYvlPRP8qo794CO9+mqxtCO9m1I2kViwH3tFkXmsRDt1Rln+PJstuZu21N9q+YinNr4s/gjQOOaoVC/B7/+SlsDVmf7EE2K+JnE4Vl/v2JspsZjp3oO0zTm6izHsTthVW99P9xXFN5GQC56NvLP3FAmCXBvNRn/393gbLa2Zax6HtM25osLxvAuaJyzxQtPvAI2vBGMIaTXWj6S9epv5HSVPRvg97hrACwczyYwTwPLp+oxtYp86ybgm8IizrYHE78TZ2s0jWJ+1G9RJhY5/BnC4u56frKKOZpefzaPuOj9dRxm3QL28erJ+eUkcelqC90U+eGyhmEx59DeR2YfmWEfdcAzOLRz15+JZByrct4Wmouh/uL5bjQ89yT/0LerCYDezYT9mnisvmjX/M8u0ydP1HN7BuP+XaEXhNWLZ64tR6KtjS9xv0jWmgmA/sVaPcHxWX64B6K9jMkqQ+NfWkGmXaBZgjLtdg8at6K9jSNxq4DX2jGijmAXv2Kfe1wvI8RfaHGZlZew0FnkXXj1zdpzx7En7wqPvbgeJWPOmvcNYifKmpG9dAsQB4S095V0K7JvZLTdSxmaXnq+j6kcWs2DlvD9Je6lchrHpau4k6thyYQfiSVTeygWIRsD9wmLgcGzZZx2aWlk3Q9iWHEfq0VHdp7Y35+LyTwjsM6ELf2AaKxcC/hNf3zn9mxXInuv7kX6S9w1+F8J3w9qZr13Ll0+gbXMpxevNVa2YJcp/nPs+q/AB9o0sxugnLD82sONYn3RP21HFOC/VqOTUE+AP6xpda3NRKpZpZslJfCaWIKwgrJUqpU10AoS7gKMJNYSv8Tl0AM4viQnUBEnMrcCRhxz8rqdWAh9GPRFMJz/43K6bN0PcvqcRjwJqtVacVxUakfSBFu+LhVivSzJI2E30/o44XgQ1arcgiKPMrgGoPA/sQ9qYusyvVBTCzqK5SF0BsLmFPgkfVBbH07En6m1XEjN5dCM2smA5A38+oYiFhN0Kzfr2NtI8QjhXzgREZ1J+ZpWsU6e+GGiOWEzaBMxvUUaS/W2DW4cf/ZuWgPGRMEd3A8ZnUXMF4DkBtv6R8Z0H/XV0AM2uLv6kL0EYV4GTgZ+qCWP6cin702q7YOaM6M7O07Y6+v2lXnJFRnVlJnYa+EceOBcDwrCrMzJI2gnJMdv5MVhVm5fZF9I05Zvwpu6oysxz4C/p+J2Z8PrOaMgO+ir5R+2Yxsyx8CX2/Eyu+mmE9mf1bUZ8EHJBlJZlZ8t6Gvt+JEd/IspLM+joDfSPPOiZmWkNmlrrJ6PudrOPrmdaQWT8+ib6xZxXPZFw3ZpYPz6Hvf7KK/8i4bswG9An0jT6LuDzrijGzXLgKff+TRXw664opC28E1LxvAR8jNMA8u1NdADOTuF1dgBZ1Ax/Bk/6a5gFAa75L2GJyubogLZiE9wAwK5vhhHs/r5YDxwI/UBfE7GDCSVPqR2HNxr3A9pnXipmlaCvgX+j7nWZjMT7YxxKzBzAH/c3RbCwjzKIdmXXFmFkSRgJfAJai72+ajXnAPhnXi1kmtgNeQn+TtBL3ATtmXTFmJrUTcD/6/qWVeBHYNuuKMcvSRsBj6G+WVmI58E3C2eFmll+jCROWl6PvV1qJR4ANMq4bsyhWBW5Ef9O0Go/hXQLN8uogYCb6fqTVuBVYI+O6MYtqDGGNvfrmySIuB6ZkWz1mFslk4AL0/UYWcS0wNtvqMWuPIcCP0N9EWcQCwgSiEVlWkJllZhhhb5K56PuLLOKnwNBMa8hM4EygC/0NlUXcS1jxYGbp2JP8T/LrjS7g9Exrx0zsMGA++psri+gGfgWsm2kNmVmjpgC/IdyT6n4hi5gPvD3TGjJLxFbAE+hvsqxiCfAdYHyWlWRmgxpDeCWX5w3I+sYzwIwM68gsOZMIs1rVN1uW8TLh3aPf15nF1QkcAzyP/r7PMu4A1smwnsySNZrw2E5902Ud9wL7ZVhPZrbCAYSNutT3edbxS7zniJXQaeR/g45acS0+W8AsK28C/oj+vs46lgGnZlhPZrmzB/AC+psxRvwRv9Mza9bmwIUUZ4JfdbyM9/Q3A8K7r3+ivyljRDdhI6GtM6sts2LbjLCRT1GWDveNO4D1MqstswIYDfwc/c0ZK7oI7/o2zKrCzApmI8Ly2qJ+8VcIm/v4fb9ZP04AFqG/UWPFMsJAYMusKsws57YifPEvQ39/xooFwHEZ1ZdZoW1NOP1KfdPGjhuAgzOqM7O82ZXweqyI7/ir42E84DdryHjgYvQ3bzviRuBtQEcmNWeWrk7gEOBm9PddO+K3+DAfs6adRLF2+xoo7gOOB0ZmUnNm6RgJvB94AP191o5YAJyYSc2ZldymwJ3ob+p2xWzCFsNTM6g7M6VJhC17X0J/X7Ur7gO2yKDuzKzHSMKXYtHfF1ZHF2EvgYPx6wHLl10Ja/iLPLGvVlxAWNFkZhEcAryI/kZvd9wHfAi/T7R0jSW8sivKsbyNxAvAQa1XoZkNZg3gEvQ3vSIWEX5Z7YOfClgaZgBnA/PQ3x+KuApYq+VaNLOGHAG8ir4DUMWTwNfxrmLWfpOBMyjHct3+Yg6e6GcmNRW4Hn1noIwu4DrgPXiXMYtnNPBewryUIu/WV0/8HzClteo0syx0AidT3keQ1TEP+DVhroSXE1qrRgKHEo7vno++fatjLvARQp9jZgmZSjiKV91JpBILCDutHYNnJlv9RhBWnlxAeMytbsepxDX4V79Z0joIm+mUeW5ArXiNcNjSIcCYpmvXimoMoW38nNBW1O01pXgFOLb5qjWzdlsLuAh955FiLCb8mjkZWL/ZCrbcW5/QBq4ltAl1u0wxLgQmNlvBZqZ1IDATfUeSctwHnAXsAQxtrpotB4YCewLfpJxr9RuJx4D9m6plM0vKKMJ2pP6VM3jMJ8zyPoOwm9uwxqvbEjEEmE5YqnYhYYtpdftKPZYSdhz1azKzgtkM+Cv6TiZPMRu4FPgY4UhTbz6Urk5gK+AUwmfmL/zG4npgk4Zr3XLLnVn5dADvIjzyXltcljx6FbgVuKXqz1ekJSqv1YAdgDdV/bmytET59CRwOuEpiZWIBwDlNQY4EzgNr5dv1aOsGBDcCtxNOMLZsjOGcMJc9Zf9NGmJ8m8RYT7EN3B7LSUPAGxt4KvA0eqCFMxzwO2ECYb39/x5L7BEWagcGEJYaz6d8MpqOmGv/Y17/p1l4wrgo8Dj6oKYjgcA1msPwq+B7dUFKbDFhMHAA4RZ1jN7/nyMMGAok0mEZXjTqv7clPCl7ydS8dxCeNz/d3VBTM8DAKvWOz/gq4RdBa19FrFiUDATeIpwxOqzwPOEAcJrstI1ZgJhH4qJhC/6NYF1CYc29X7Z+8yG9poJfJrwnr8iLoslwgMAq2UEYYOUT+NJVSlZRBgMPAu8SBgQzCHsz1795+yef17I69/tzq765wWEJV8Aw3n9sq/qz3wM4ct6POGLfTwwrs+fEwhf8mv1hH/Bp+NV4CvAD1jxeZsBHgDYwMYCJxEGAuPEZTGz+i0Avk+Y4Dd7kP+slZQn1dhAlgI3Aj8hPDacgTfGMUvZUuCnwGHAHwjzTszMWrY2cDahk1FvWuJwOFbEEuCHwGTM6uRXANaMdYFPAB/Ak7nMlJYCvwW+SJhEalY3DwCsFWsCpxImDI4Wl8WsTJYQji7+EvCMuCyWUx4AWBbWJDwR+CCeLGgW0xzgR8C3CStBzJrmAYBlaSzwPsJgYB1xWcyK5HnC/Jv/IT/7QZhZCQ0DjgHuQT85yuHIc9xNOM7YeyuYWa50APsBVwFd6DtThyMP0UXYq39f/JTWInLjsnaZRlg1cCLeXdCslnnAb4DvEM6MMIvKAwBrt3HAccCHgE20RTFLwoOEiX3nE7ZwNmsLDwBMaQbhicBReBmhlcsS4DLgHODPhEf/Zm3lAYClYFXgWMIrAj8VsCJ7gPClfwHhoB4zGQ8ALDUzCCsI3gOsJi6LWRZeAy4nfOn7174lwwMAS9UIwizoo4FD8CFEli9dwPXAL4CLeP2xzGZJ8ADA8mAicATwTmBn3G4tTd3ATYS9+X8HvKAtjtnA3JFa3qwNvIMwIPBgwFJwP+EL/wJgprgsZnVz52l5No1w7vmhwJuATm1xrCS6gX8AlwC/x1/6llMeAFhRrAYcQHgysC8wXFscK5guwpf+73riWW1xzFrnAYAV0RjgzcBBhEHB2triWE69BPyFsC3vZfgQHisYDwCs6DqAbYH9e2IHYKi0RJaq5YRf+dcAVwN34CV7VmAeAFjZjAF2AvbpiW3xfVBmM4E/9cQf8a98KxF3fFZ2EwmvC3aF/9/eHbxEHURxAP+QXgrFiDwVBYEtlFjhsfzXu2SnKDQsIlKo7BKBhmKGoB3eLO2GCFn2283vBx5v4HeZy+48hpl5lnBHDhP+rw7xCk+wjMdyVS/OsRQAEcOu4KEqCB6pHYL0Yh9P3/BCLfbLeIqtTmcUMUJSAEScbBI99UTxoioOHsguwSjaUIv88xbPVNOdiDhGCoCI3zeNBdzD/ZbnpaPhv7KHNaxgtcVL7HQ5qYhxkwIg4u+YwJwqBHq4qzob9qQwOK09vGnxuuU1vFP38iPiD6QAiDhbF3ATt3FLvV44mKe6m9pI2FFb9+st98dv8V6u4UWcmRQAEd2aVQ8VXccNXBsYz7a4avx+q0f4oh7T+YyP2MQnfGjjzfY9Ijowbn8qEefRhJ+FQD9fxswveVq9c3BR3VyYUm2UZwwfWryk2i0P+m64Ze0hvuIAu9hXp+p3W2y379sD4/6C38/Zpo8YYT8AVO3ZqIp3XIsAAAAASUVORK5CYII=;imageBackground=#FFFFFF;" parent="1" vertex="1">
          <mxGeometry x="-1159" y="862.5" width="145" height="145" as="geometry" />
        </mxCell>
        <mxCell id="SJgE3wJkrUgC8PNskwC5-1" value="&lt;font size=&quot;1&quot; color=&quot;#000000&quot; style=&quot;background-color: rgb(255, 255, 255);&quot;&gt;&lt;b style=&quot;font-size: 29px;&quot;&gt;2 A&lt;/b&gt;&lt;/font&gt;" style="ellipse;whiteSpace=wrap;html=1;aspect=fixed;fillColor=#FFFFFF;" parent="1" vertex="1">
          <mxGeometry x="-81" y="-298" width="57" height="57" as="geometry" />
        </mxCell>
        <mxCell id="SJgE3wJkrUgC8PNskwC5-2" value="&lt;font size=&quot;1&quot; color=&quot;#000000&quot; style=&quot;background-color: rgb(255, 255, 255);&quot;&gt;&lt;b style=&quot;font-size: 29px;&quot;&gt;2 B&lt;/b&gt;&lt;/font&gt;" style="ellipse;whiteSpace=wrap;html=1;aspect=fixed;fillColor=#FFFFFF;" parent="1" vertex="1">
          <mxGeometry x="88" y="-298" width="57" height="57" as="geometry" />
        </mxCell>
        <mxCell id="SJgE3wJkrUgC8PNskwC5-3" value="&lt;font size=&quot;1&quot; color=&quot;#000000&quot; style=&quot;background-color: rgb(255, 255, 255);&quot;&gt;&lt;b style=&quot;font-size: 29px;&quot;&gt;4&lt;/b&gt;&lt;/font&gt;" style="ellipse;whiteSpace=wrap;html=1;aspect=fixed;fillColor=#FFFFFF;" parent="1" vertex="1">
          <mxGeometry x="1029" y="-58" width="40" height="40" as="geometry" />
        </mxCell>
        <mxCell id="SJgE3wJkrUgC8PNskwC5-5" value="&lt;font size=&quot;1&quot; color=&quot;#000000&quot; style=&quot;background-color: rgb(255, 255, 255);&quot;&gt;&lt;b style=&quot;font-size: 29px;&quot;&gt;5&lt;/b&gt;&lt;/font&gt;" style="ellipse;whiteSpace=wrap;html=1;aspect=fixed;fillColor=#FFFFFF;" parent="1" vertex="1">
          <mxGeometry x="1196" y="185" width="40" height="40" as="geometry" />
        </mxCell>
        <mxCell id="SJgE3wJkrUgC8PNskwC5-6" value="" style="endArrow=none;html=1;rounded=0;exitX=0.1;exitY=1;exitDx=0;exitDy=0;exitPerimeter=0;entryX=0.099;entryY=0.003;entryDx=0;entryDy=0;entryPerimeter=0;" parent="1" source="nuiKF1VjGRspzTlw7c-V-11" target="nuiKF1VjGRspzTlw7c-V-11" edge="1">
          <mxGeometry width="50" height="50" relative="1" as="geometry">
            <mxPoint x="1382" y="214" as="sourcePoint" />
            <mxPoint x="1382" y="93" as="targetPoint" />
          </mxGeometry>
        </mxCell>
        <mxCell id="SJgE3wJkrUgC8PNskwC5-9" value="&lt;font size=&quot;1&quot; color=&quot;#000000&quot; style=&quot;background-color: rgb(255, 255, 255);&quot;&gt;&lt;b style=&quot;font-size: 29px;&quot;&gt;6 A&lt;/b&gt;&lt;/font&gt;" style="ellipse;whiteSpace=wrap;html=1;aspect=fixed;fillColor=#FFFFFF;" parent="1" vertex="1">
          <mxGeometry x="1650" y="620" width="57" height="57" as="geometry" />
        </mxCell>
        <mxCell id="SJgE3wJkrUgC8PNskwC5-10" value="&lt;font size=&quot;1&quot; color=&quot;#000000&quot; style=&quot;background-color: rgb(255, 255, 255);&quot;&gt;&lt;b style=&quot;font-size: 29px;&quot;&gt;6 B&lt;/b&gt;&lt;/font&gt;" style="ellipse;whiteSpace=wrap;html=1;aspect=fixed;fillColor=#FFFFFF;" parent="1" vertex="1">
          <mxGeometry x="2316" y="643" width="57" height="57" as="geometry" />
        </mxCell>
        <mxCell id="SJgE3wJkrUgC8PNskwC5-11" value="&lt;font size=&quot;1&quot; color=&quot;#000000&quot; style=&quot;background-color: rgb(255, 255, 255);&quot;&gt;&lt;b style=&quot;font-size: 29px;&quot;&gt;6 C&lt;/b&gt;&lt;/font&gt;" style="ellipse;whiteSpace=wrap;html=1;aspect=fixed;fillColor=#FFFFFF;" parent="1" vertex="1">
          <mxGeometry x="2035" y="618" width="57" height="57" as="geometry" />
        </mxCell>
        <mxCell id="SJgE3wJkrUgC8PNskwC5-12" value="&lt;font size=&quot;1&quot; color=&quot;#000000&quot; style=&quot;background-color: rgb(255, 255, 255);&quot;&gt;&lt;b style=&quot;font-size: 29px;&quot;&gt;6 D&lt;/b&gt;&lt;/font&gt;" style="ellipse;whiteSpace=wrap;html=1;aspect=fixed;fillColor=#FFFFFF;" parent="1" vertex="1">
          <mxGeometry x="2374" y="916" width="57" height="57" as="geometry" />
        </mxCell>
        <mxCell id="SJgE3wJkrUgC8PNskwC5-13" value="&lt;font size=&quot;1&quot; color=&quot;#000000&quot; style=&quot;background-color: rgb(255, 255, 255);&quot;&gt;&lt;b style=&quot;font-size: 29px;&quot;&gt;9&lt;/b&gt;&lt;/font&gt;" style="ellipse;whiteSpace=wrap;html=1;aspect=fixed;fillColor=#FFFFFF;" parent="1" vertex="1">
          <mxGeometry x="-892" y="128" width="40" height="40" as="geometry" />
        </mxCell>
        <mxCell id="SJgE3wJkrUgC8PNskwC5-14" value="&lt;font size=&quot;1&quot; color=&quot;#000000&quot; style=&quot;background-color: rgb(255, 255, 255);&quot;&gt;&lt;b style=&quot;font-size: 29px;&quot;&gt;9&lt;/b&gt;&lt;/font&gt;" style="ellipse;whiteSpace=wrap;html=1;aspect=fixed;fillColor=#FFFFFF;" parent="1" vertex="1">
          <mxGeometry x="-603" y="846" width="40" height="40" as="geometry" />
        </mxCell>
        <mxCell id="SJgE3wJkrUgC8PNskwC5-16" value="&lt;font size=&quot;1&quot; color=&quot;#000000&quot; style=&quot;background-color: rgb(255, 255, 255);&quot;&gt;&lt;b style=&quot;font-size: 29px;&quot;&gt;6 E&lt;/b&gt;&lt;/font&gt;" style="ellipse;whiteSpace=wrap;html=1;aspect=fixed;fillColor=#FFFFFF;" parent="1" vertex="1">
          <mxGeometry x="2535" y="1124" width="57" height="57" as="geometry" />
        </mxCell>
        <mxCell id="Lm_Gr_cSFQt5TuhLSdtj-3" value="" style="endArrow=none;html=1;rounded=0;exitX=0.1;exitY=1;exitDx=0;exitDy=0;exitPerimeter=0;entryX=0.099;entryY=0.003;entryDx=0;entryDy=0;entryPerimeter=0;" parent="1" edge="1">
          <mxGeometry width="50" height="50" relative="1" as="geometry">
            <mxPoint x="1431" y="215" as="sourcePoint" />
            <mxPoint x="1430" y="93" as="targetPoint" />
          </mxGeometry>
        </mxCell>
        <mxCell id="Lm_Gr_cSFQt5TuhLSdtj-4" value="" style="endArrow=none;html=1;rounded=0;exitX=0.1;exitY=1;exitDx=0;exitDy=0;exitPerimeter=0;entryX=0.099;entryY=0.003;entryDx=0;entryDy=0;entryPerimeter=0;" parent="1" edge="1">
          <mxGeometry width="50" height="50" relative="1" as="geometry">
            <mxPoint x="1478" y="215" as="sourcePoint" />
            <mxPoint x="1477" y="93" as="targetPoint" />
          </mxGeometry>
        </mxCell>
        <mxCell id="Lm_Gr_cSFQt5TuhLSdtj-5" value="" style="endArrow=none;html=1;rounded=0;exitX=0.1;exitY=1;exitDx=0;exitDy=0;exitPerimeter=0;entryX=0.099;entryY=0.003;entryDx=0;entryDy=0;entryPerimeter=0;" parent="1" edge="1">
          <mxGeometry width="50" height="50" relative="1" as="geometry">
            <mxPoint x="1524" y="215" as="sourcePoint" />
            <mxPoint x="1523" y="93" as="targetPoint" />
          </mxGeometry>
        </mxCell>
        <mxCell id="xVZ5ul_7m6fOiQexNmXF-1" value="&lt;b style=&quot;color: rgb(0, 0, 0); text-wrap: wrap;&quot;&gt;&lt;font style=&quot;font-size: 26px;&quot;&gt;Encryption and Decryption&lt;/font&gt;&lt;/b&gt;" style="text;html=1;align=center;verticalAlign=middle;resizable=0;points=[];autosize=1;strokeColor=none;fillColor=none;" parent="1" vertex="1">
          <mxGeometry x="-182.5" y="158" width="350" height="43" as="geometry" />
        </mxCell>
        <mxCell id="_yqzBXmrqP1r2VyQ61mZ-1" value="&lt;div&gt;&lt;br&gt;&lt;/div&gt;" style="rounded=1;whiteSpace=wrap;html=1;fillColor=#647687;strokeColor=#314354;fontColor=#ffffff;" parent="1" vertex="1">
          <mxGeometry x="3594" y="-450.5" width="308" height="554" as="geometry" />
        </mxCell>
        <mxCell id="_yqzBXmrqP1r2VyQ61mZ-2" value="" style="sketch=0;points=[[0,0,0],[0.25,0,0],[0.5,0,0],[0.75,0,0],[1,0,0],[0,1,0],[0.25,1,0],[0.5,1,0],[0.75,1,0],[1,1,0],[0,0.25,0],[0,0.5,0],[0,0.75,0],[1,0.25,0],[1,0.5,0],[1,0.75,0]];outlineConnect=0;fontColor=#232F3E;fillColor=#8C4FFF;strokeColor=#ffffff;dashed=0;verticalLabelPosition=bottom;verticalAlign=top;align=center;html=1;fontSize=12;fontStyle=0;aspect=fixed;shape=mxgraph.aws4.resourceIcon;resIcon=mxgraph.aws4.managed_streaming_for_kafka;" parent="1" vertex="1">
          <mxGeometry x="3698" y="-439.5" width="95" height="95" as="geometry" />
        </mxCell>
        <mxCell id="_yqzBXmrqP1r2VyQ61mZ-3" value="&lt;font style=&quot;font-size: 20px;&quot; color=&quot;#000000&quot;&gt;topic: message&lt;/font&gt;" style="rounded=1;whiteSpace=wrap;html=1;fillColor=#fff2cc;strokeColor=#d6b656;gradientColor=#ffd966;" parent="1" vertex="1">
          <mxGeometry x="3643" y="-268.5" width="210" height="60" as="geometry" />
        </mxCell>
        <mxCell id="_yqzBXmrqP1r2VyQ61mZ-4" value="&lt;font style=&quot;font-size: 20px;&quot; color=&quot;#000000&quot;&gt;topic: gpMessage&lt;/font&gt;" style="rounded=1;whiteSpace=wrap;html=1;fillColor=#fff2cc;strokeColor=#d6b656;gradientColor=#ffd966;" parent="1" vertex="1">
          <mxGeometry x="3643" y="-162.5" width="210" height="60" as="geometry" />
        </mxCell>
        <mxCell id="_yqzBXmrqP1r2VyQ61mZ-5" value="&lt;font style=&quot;font-size: 20px;&quot; color=&quot;#000000&quot;&gt;topic: unseenCount&lt;/font&gt;" style="rounded=1;whiteSpace=wrap;html=1;fillColor=#fff2cc;strokeColor=#d6b656;gradientColor=#ffd966;" parent="1" vertex="1">
          <mxGeometry x="3643" y="-56.5" width="210" height="60" as="geometry" />
        </mxCell>
        <mxCell id="_yqzBXmrqP1r2VyQ61mZ-7" value="" style="rounded=0;whiteSpace=wrap;html=1;strokeWidth=10;" parent="1" vertex="1">
          <mxGeometry x="3295" y="654" width="1611" height="662" as="geometry" />
        </mxCell>
        <mxCell id="_yqzBXmrqP1r2VyQ61mZ-8" value="&lt;div style=&quot;font-family: Consolas, &amp;quot;Courier New&amp;quot;, monospace; line-height: 19px; white-space: pre;&quot;&gt;&lt;font style=&quot;font-size: 50px;&quot;&gt;talkverse-kafka-consumer&lt;/font&gt;&lt;/div&gt;" style="rounded=0;whiteSpace=wrap;html=1;fillColor=#0050ef;fontColor=#ffffff;strokeColor=#001DBC;" parent="1" vertex="1">
          <mxGeometry x="3708.5" y="1322" width="784" height="124" as="geometry" />
        </mxCell>
        <mxCell id="P_JwN5DNRsCG7_sgpVhp-1" value="" style="rounded=1;whiteSpace=wrap;html=1;arcSize=5;" parent="1" vertex="1">
          <mxGeometry x="3344" y="735.5" width="397" height="523.5" as="geometry" />
        </mxCell>
        <mxCell id="P_JwN5DNRsCG7_sgpVhp-2" value="&lt;font style=&quot;font-size: 22px;&quot;&gt;topic: message&lt;/font&gt;&lt;div&gt;&lt;span style=&quot;font-size: 22px;&quot;&gt;&lt;br&gt;&lt;/span&gt;&lt;div&gt;&lt;font style=&quot;font-size: 22px;&quot;&gt;groupId: tk-message-group&lt;/font&gt;&lt;/div&gt;&lt;/div&gt;" style="rounded=1;whiteSpace=wrap;html=1;fillColor=#6a00ff;strokeColor=#3700CC;fontColor=#ffffff;" parent="1" vertex="1">
          <mxGeometry x="3379" y="751.5" width="330" height="103" as="geometry" />
        </mxCell>
        <mxCell id="P_JwN5DNRsCG7_sgpVhp-7" value="" style="rounded=0;whiteSpace=wrap;html=1;" parent="1" vertex="1">
          <mxGeometry x="3400" y="970" width="288" height="241" as="geometry" />
        </mxCell>
        <mxCell id="P_JwN5DNRsCG7_sgpVhp-3" value="&lt;font style=&quot;font-size: 15px;&quot;&gt;worker-1&lt;/font&gt;" style="whiteSpace=wrap;html=1;aspect=fixed;fillColor=#1ba1e2;strokeColor=#006EAF;fontColor=#ffffff;" parent="1" vertex="1">
          <mxGeometry x="3439.75" y="988.5" width="80" height="80" as="geometry" />
        </mxCell>
        <mxCell id="P_JwN5DNRsCG7_sgpVhp-4" value="&lt;font style=&quot;font-size: 15px;&quot;&gt;worker-2&lt;/font&gt;" style="whiteSpace=wrap;html=1;aspect=fixed;fillColor=#1ba1e2;strokeColor=#006EAF;fontColor=#ffffff;" parent="1" vertex="1">
          <mxGeometry x="3568.25" y="988.5" width="80" height="80" as="geometry" />
        </mxCell>
        <mxCell id="P_JwN5DNRsCG7_sgpVhp-5" value="&lt;font style=&quot;font-size: 15px;&quot;&gt;worker-3&lt;/font&gt;" style="whiteSpace=wrap;html=1;aspect=fixed;fillColor=#1ba1e2;strokeColor=#006EAF;fontColor=#ffffff;" parent="1" vertex="1">
          <mxGeometry x="3439.75" y="1112.5" width="80" height="80" as="geometry" />
        </mxCell>
        <mxCell id="P_JwN5DNRsCG7_sgpVhp-6" value="&lt;font style=&quot;font-size: 15px;&quot;&gt;worker-n&lt;/font&gt;" style="whiteSpace=wrap;html=1;aspect=fixed;fillColor=#1ba1e2;strokeColor=#006EAF;fontColor=#ffffff;" parent="1" vertex="1">
          <mxGeometry x="3568.25" y="1112.5" width="80" height="80" as="geometry" />
        </mxCell>
        <mxCell id="P_JwN5DNRsCG7_sgpVhp-8" value="" style="rounded=1;whiteSpace=wrap;html=1;arcSize=5;" parent="1" vertex="1">
          <mxGeometry x="4418" y="738.25" width="397" height="523.5" as="geometry" />
        </mxCell>
        <mxCell id="P_JwN5DNRsCG7_sgpVhp-9" value="&lt;font style=&quot;font-size: 22px;&quot;&gt;topic: unseenCount&lt;/font&gt;&lt;div&gt;&lt;span style=&quot;font-size: 22px;&quot;&gt;&lt;br&gt;&lt;/span&gt;&lt;div&gt;&lt;font style=&quot;font-size: 22px;&quot;&gt;groupId: tk-unseenCount-group&lt;/font&gt;&lt;/div&gt;&lt;/div&gt;" style="rounded=1;whiteSpace=wrap;html=1;fillColor=#6a00ff;strokeColor=#3700CC;fontColor=#ffffff;" parent="1" vertex="1">
          <mxGeometry x="4453" y="754.25" width="330" height="103" as="geometry" />
        </mxCell>
        <mxCell id="P_JwN5DNRsCG7_sgpVhp-10" value="" style="rounded=0;whiteSpace=wrap;html=1;" parent="1" vertex="1">
          <mxGeometry x="4472.5" y="972.75" width="288" height="241" as="geometry" />
        </mxCell>
        <mxCell id="P_JwN5DNRsCG7_sgpVhp-11" value="&lt;font style=&quot;font-size: 15px;&quot;&gt;worker-1&lt;/font&gt;" style="whiteSpace=wrap;html=1;aspect=fixed;fillColor=#1ba1e2;strokeColor=#006EAF;fontColor=#ffffff;" parent="1" vertex="1">
          <mxGeometry x="4512.25" y="991.25" width="80" height="80" as="geometry" />
        </mxCell>
        <mxCell id="P_JwN5DNRsCG7_sgpVhp-12" value="&lt;font style=&quot;font-size: 15px;&quot;&gt;worker-2&lt;/font&gt;" style="whiteSpace=wrap;html=1;aspect=fixed;fillColor=#1ba1e2;strokeColor=#006EAF;fontColor=#ffffff;" parent="1" vertex="1">
          <mxGeometry x="4640.75" y="991.25" width="80" height="80" as="geometry" />
        </mxCell>
        <mxCell id="P_JwN5DNRsCG7_sgpVhp-13" value="&lt;font style=&quot;font-size: 15px;&quot;&gt;worker-3&lt;/font&gt;" style="whiteSpace=wrap;html=1;aspect=fixed;fillColor=#1ba1e2;strokeColor=#006EAF;fontColor=#ffffff;" parent="1" vertex="1">
          <mxGeometry x="4512.25" y="1115.25" width="80" height="80" as="geometry" />
        </mxCell>
        <mxCell id="P_JwN5DNRsCG7_sgpVhp-14" value="&lt;font style=&quot;font-size: 15px;&quot;&gt;worker-n&lt;/font&gt;" style="whiteSpace=wrap;html=1;aspect=fixed;fillColor=#1ba1e2;strokeColor=#006EAF;fontColor=#ffffff;" parent="1" vertex="1">
          <mxGeometry x="4640.75" y="1115.25" width="80" height="80" as="geometry" />
        </mxCell>
        <mxCell id="P_JwN5DNRsCG7_sgpVhp-15" value="" style="rounded=1;whiteSpace=wrap;html=1;arcSize=5;" parent="1" vertex="1">
          <mxGeometry x="3888" y="738.25" width="397" height="523.5" as="geometry" />
        </mxCell>
        <mxCell id="P_JwN5DNRsCG7_sgpVhp-16" value="&lt;font style=&quot;font-size: 22px;&quot;&gt;topic: gpMessage&lt;/font&gt;&lt;div&gt;&lt;span style=&quot;font-size: 22px;&quot;&gt;&lt;br&gt;&lt;/span&gt;&lt;div&gt;&lt;font style=&quot;font-size: 22px;&quot;&gt;groupId: tk-gpMessage-group&lt;/font&gt;&lt;/div&gt;&lt;/div&gt;" style="rounded=1;whiteSpace=wrap;html=1;fillColor=#6a00ff;strokeColor=#3700CC;fontColor=#ffffff;" parent="1" vertex="1">
          <mxGeometry x="3923" y="754.25" width="330" height="103" as="geometry" />
        </mxCell>
        <mxCell id="P_JwN5DNRsCG7_sgpVhp-17" value="" style="rounded=0;whiteSpace=wrap;html=1;" parent="1" vertex="1">
          <mxGeometry x="3942.5" y="971.75" width="288" height="241" as="geometry" />
        </mxCell>
        <mxCell id="P_JwN5DNRsCG7_sgpVhp-18" value="&lt;font style=&quot;font-size: 15px;&quot;&gt;worker-1&lt;/font&gt;" style="whiteSpace=wrap;html=1;aspect=fixed;fillColor=#1ba1e2;strokeColor=#006EAF;fontColor=#ffffff;" parent="1" vertex="1">
          <mxGeometry x="3982.25" y="991.25" width="80" height="80" as="geometry" />
        </mxCell>
        <mxCell id="P_JwN5DNRsCG7_sgpVhp-19" value="&lt;font style=&quot;font-size: 15px;&quot;&gt;worker-2&lt;/font&gt;" style="whiteSpace=wrap;html=1;aspect=fixed;fillColor=#1ba1e2;strokeColor=#006EAF;fontColor=#ffffff;" parent="1" vertex="1">
          <mxGeometry x="4110.75" y="991.25" width="80" height="80" as="geometry" />
        </mxCell>
        <mxCell id="P_JwN5DNRsCG7_sgpVhp-20" value="&lt;font style=&quot;font-size: 15px;&quot;&gt;worker-3&lt;/font&gt;" style="whiteSpace=wrap;html=1;aspect=fixed;fillColor=#1ba1e2;strokeColor=#006EAF;fontColor=#ffffff;" parent="1" vertex="1">
          <mxGeometry x="3982.25" y="1115.25" width="80" height="80" as="geometry" />
        </mxCell>
        <mxCell id="P_JwN5DNRsCG7_sgpVhp-21" value="&lt;font style=&quot;font-size: 15px;&quot;&gt;worker-n&lt;/font&gt;" style="whiteSpace=wrap;html=1;aspect=fixed;fillColor=#1ba1e2;strokeColor=#006EAF;fontColor=#ffffff;" parent="1" vertex="1">
          <mxGeometry x="4110.75" y="1115.25" width="80" height="80" as="geometry" />
        </mxCell>
        <mxCell id="P_JwN5DNRsCG7_sgpVhp-22" style="edgeStyle=orthogonalEdgeStyle;rounded=0;orthogonalLoop=1;jettySize=auto;html=1;exitX=1;exitY=0.5;exitDx=0;exitDy=0;entryX=0.5;entryY=0;entryDx=0;entryDy=0;" parent="1" source="_yqzBXmrqP1r2VyQ61mZ-3" target="P_JwN5DNRsCG7_sgpVhp-2" edge="1">
          <mxGeometry relative="1" as="geometry">
            <Array as="points">
              <mxPoint x="4047" y="-239" />
              <mxPoint x="4047" y="576" />
              <mxPoint x="3544" y="576" />
            </Array>
          </mxGeometry>
        </mxCell>
        <mxCell id="P_JwN5DNRsCG7_sgpVhp-23" style="edgeStyle=orthogonalEdgeStyle;rounded=0;orthogonalLoop=1;jettySize=auto;html=1;exitX=1;exitY=0.5;exitDx=0;exitDy=0;entryX=0.5;entryY=0;entryDx=0;entryDy=0;" parent="1" source="_yqzBXmrqP1r2VyQ61mZ-4" target="P_JwN5DNRsCG7_sgpVhp-16" edge="1">
          <mxGeometry relative="1" as="geometry" />
        </mxCell>
        <mxCell id="P_JwN5DNRsCG7_sgpVhp-24" style="edgeStyle=orthogonalEdgeStyle;rounded=0;orthogonalLoop=1;jettySize=auto;html=1;exitX=1;exitY=0.5;exitDx=0;exitDy=0;entryX=0.5;entryY=0;entryDx=0;entryDy=0;" parent="1" source="_yqzBXmrqP1r2VyQ61mZ-5" target="P_JwN5DNRsCG7_sgpVhp-9" edge="1">
          <mxGeometry relative="1" as="geometry">
            <Array as="points">
              <mxPoint x="4133" y="-27" />
              <mxPoint x="4133" y="581" />
              <mxPoint x="4618" y="581" />
            </Array>
          </mxGeometry>
        </mxCell>
        <mxCell id="nuiKF1VjGRspzTlw7c-V-33" style="edgeStyle=orthogonalEdgeStyle;rounded=0;orthogonalLoop=1;jettySize=auto;html=1;exitX=1;exitY=0.25;exitDx=0;exitDy=0;entryX=0;entryY=0.5;entryDx=0;entryDy=0;" parent="1" source="nuiKF1VjGRspzTlw7c-V-11" target="_yqzBXmrqP1r2VyQ61mZ-3" edge="1">
          <mxGeometry relative="1" as="geometry">
            <mxPoint x="2891" y="-3" as="targetPoint" />
            <Array as="points">
              <mxPoint x="1716" y="165" />
              <mxPoint x="2731" y="165" />
              <mxPoint x="2731" y="-123" />
            </Array>
          </mxGeometry>
        </mxCell>
        <mxCell id="nuiKF1VjGRspzTlw7c-V-45" value="no" style="edgeStyle=orthogonalEdgeStyle;html=1;align=left;verticalAlign=bottom;endArrow=open;endSize=8;strokeColor=#ff0000;rounded=0;entryX=0;entryY=0.5;entryDx=0;entryDy=0;" parent="1" source="nuiKF1VjGRspzTlw7c-V-44" target="_yqzBXmrqP1r2VyQ61mZ-5" edge="1">
          <mxGeometry x="-0.9403" y="12" relative="1" as="geometry">
            <mxPoint x="3231" y="68" as="targetPoint" />
            <mxPoint as="offset" />
            <Array as="points">
              <mxPoint x="2850" y="1074" />
              <mxPoint x="2850" y="-26" />
            </Array>
          </mxGeometry>
        </mxCell>
        <mxCell id="P_JwN5DNRsCG7_sgpVhp-26" style="edgeStyle=orthogonalEdgeStyle;rounded=0;orthogonalLoop=1;jettySize=auto;html=1;exitX=0.5;exitY=1;exitDx=0;exitDy=0;entryX=0.5;entryY=0;entryDx=0;entryDy=0;" parent="1" source="P_JwN5DNRsCG7_sgpVhp-2" target="P_JwN5DNRsCG7_sgpVhp-4" edge="1">
          <mxGeometry relative="1" as="geometry">
            <Array as="points">
              <mxPoint x="3544" y="870" />
              <mxPoint x="3608" y="870" />
            </Array>
          </mxGeometry>
        </mxCell>
        <mxCell id="P_JwN5DNRsCG7_sgpVhp-27" style="edgeStyle=orthogonalEdgeStyle;rounded=0;orthogonalLoop=1;jettySize=auto;html=1;exitX=1;exitY=0.5;exitDx=0;exitDy=0;entryX=0.281;entryY=0.998;entryDx=0;entryDy=0;entryPerimeter=0;" parent="1" source="P_JwN5DNRsCG7_sgpVhp-4" target="nuiKF1VjGRspzTlw7c-V-34" edge="1">
          <mxGeometry relative="1" as="geometry">
            <Array as="points">
              <mxPoint x="3786" y="1029" />
              <mxPoint x="3786" y="312" />
              <mxPoint x="4795" y="312" />
            </Array>
          </mxGeometry>
        </mxCell>
        <mxCell id="P_JwN5DNRsCG7_sgpVhp-29" value="&lt;font style=&quot;font-size: 18px;&quot;&gt;Each topic have a group id for connecting to kafka, and group have n workers working concurrently for consuming/handling messages from kafka and after validation worker save data in database&lt;/font&gt;" style="rounded=1;whiteSpace=wrap;html=1;fillColor=#6a00ff;strokeColor=#3700CC;fontColor=#ffffff;spacing=8;" parent="1" vertex="1">
          <mxGeometry x="4108" y="-542" width="409" height="146" as="geometry" />
        </mxCell>
        <mxCell id="P_JwN5DNRsCG7_sgpVhp-31" style="edgeStyle=orthogonalEdgeStyle;rounded=0;orthogonalLoop=1;jettySize=auto;html=1;exitX=1;exitY=0.5;exitDx=0;exitDy=0;entryX=0.5;entryY=1;entryDx=0;entryDy=0;entryPerimeter=0;" parent="1" source="P_JwN5DNRsCG7_sgpVhp-18" target="nuiKF1VjGRspzTlw7c-V-34" edge="1">
          <mxGeometry relative="1" as="geometry">
            <Array as="points">
              <mxPoint x="4086" y="1031" />
              <mxPoint x="4086" y="934" />
              <mxPoint x="4348" y="934" />
              <mxPoint x="4348" y="340" />
              <mxPoint x="4866" y="340" />
            </Array>
          </mxGeometry>
        </mxCell>
        <mxCell id="P_JwN5DNRsCG7_sgpVhp-32" style="edgeStyle=orthogonalEdgeStyle;rounded=0;orthogonalLoop=1;jettySize=auto;html=1;exitX=0.5;exitY=1;exitDx=0;exitDy=0;entryX=0;entryY=0.5;entryDx=0;entryDy=0;" parent="1" source="P_JwN5DNRsCG7_sgpVhp-9" target="P_JwN5DNRsCG7_sgpVhp-14" edge="1">
          <mxGeometry relative="1" as="geometry" />
        </mxCell>
        <mxCell id="P_JwN5DNRsCG7_sgpVhp-33" style="edgeStyle=orthogonalEdgeStyle;rounded=0;orthogonalLoop=1;jettySize=auto;html=1;exitX=1;exitY=0.5;exitDx=0;exitDy=0;entryX=0.684;entryY=0.992;entryDx=0;entryDy=0;entryPerimeter=0;" parent="1" source="P_JwN5DNRsCG7_sgpVhp-14" target="nuiKF1VjGRspzTlw7c-V-34" edge="1">
          <mxGeometry relative="1" as="geometry">
            <Array as="points">
              <mxPoint x="4872" y="1155" />
              <mxPoint x="4872" y="370" />
              <mxPoint x="4926" y="370" />
            </Array>
            <mxPoint x="5065" y="206" as="targetPoint" />
          </mxGeometry>
        </mxCell>
        <mxCell id="P_JwN5DNRsCG7_sgpVhp-34" value="&lt;font size=&quot;1&quot; color=&quot;#000000&quot; style=&quot;background-color: rgb(255, 255, 255);&quot;&gt;&lt;b style=&quot;font-size: 29px;&quot;&gt;I&lt;/b&gt;&lt;/font&gt;" style="ellipse;whiteSpace=wrap;html=1;aspect=fixed;fillColor=#FFFFFF;" parent="1" vertex="1">
          <mxGeometry x="3424" y="-308" width="57" height="57" as="geometry" />
        </mxCell>
        <mxCell id="P_JwN5DNRsCG7_sgpVhp-35" value="messages as per topic are produced to kafka" style="text;html=1;align=center;verticalAlign=middle;resizable=0;points=[];autosize=1;strokeColor=none;fillColor=none;" parent="1" vertex="1">
          <mxGeometry x="3324" y="-340.58000000000004" width="257" height="26" as="geometry" />
        </mxCell>
        <mxCell id="P_JwN5DNRsCG7_sgpVhp-36" value="&lt;font size=&quot;1&quot; color=&quot;#000000&quot; style=&quot;background-color: rgb(255, 255, 255);&quot;&gt;&lt;b style=&quot;font-size: 29px;&quot;&gt;II&lt;/b&gt;&lt;/font&gt;" style="ellipse;whiteSpace=wrap;html=1;aspect=fixed;fillColor=#FFFFFF;" parent="1" vertex="1">
          <mxGeometry x="3542.5" y="892" width="57" height="57" as="geometry" />
        </mxCell>
        <mxCell id="P_JwN5DNRsCG7_sgpVhp-38" value="&lt;font size=&quot;1&quot; color=&quot;#000000&quot; style=&quot;background-color: rgb(255, 255, 255);&quot;&gt;&lt;b style=&quot;font-size: 29px;&quot;&gt;III&lt;/b&gt;&lt;/font&gt;" style="ellipse;whiteSpace=wrap;html=1;aspect=fixed;fillColor=#FFFFFF;" parent="1" vertex="1">
          <mxGeometry x="4719" y="243" width="57" height="57" as="geometry" />
        </mxCell>
        <mxCell id="P_JwN5DNRsCG7_sgpVhp-39" value="worker send data to database" style="text;html=1;align=center;verticalAlign=middle;resizable=0;points=[];autosize=1;strokeColor=none;fillColor=none;" parent="1" vertex="1">
          <mxGeometry x="4525" y="258.5" width="176" height="26" as="geometry" />
        </mxCell>
        <mxCell id="P_JwN5DNRsCG7_sgpVhp-41" value="&lt;div style=&quot;font-family: Consolas, &amp;quot;Courier New&amp;quot;, monospace; line-height: 19px; white-space: pre;&quot;&gt;&lt;font style=&quot;font-size: 50px;&quot;&gt;talkverse-backend&lt;/font&gt;&lt;/div&gt;" style="rounded=0;whiteSpace=wrap;html=1;fillColor=#0050ef;fontColor=#ffffff;strokeColor=#001DBC;" parent="1" vertex="1">
          <mxGeometry x="1550.5" y="1336" width="784" height="124" as="geometry" />
        </mxCell>
        <mxCell id="P_JwN5DNRsCG7_sgpVhp-43" value="&lt;div style=&quot;font-family: Consolas, &amp;quot;Courier New&amp;quot;, monospace; line-height: 19px; white-space: pre;&quot;&gt;&lt;font style=&quot;font-size: 50px;&quot;&gt;talkverse-kafka&lt;/font&gt;&lt;/div&gt;" style="rounded=0;whiteSpace=wrap;html=1;fillColor=#0050ef;fontColor=#ffffff;strokeColor=#001DBC;" parent="1" vertex="1">
          <mxGeometry x="3384.5" y="-713" width="533" height="124" as="geometry" />
        </mxCell>
        <mxCell id="P_JwN5DNRsCG7_sgpVhp-45" value="&lt;div style=&quot;font-family: Consolas, &amp;quot;Courier New&amp;quot;, monospace; line-height: 19px; white-space: pre;&quot;&gt;&lt;font style=&quot;font-size: 50px;&quot;&gt;talkverse-frontend&lt;/font&gt;&lt;/div&gt;" style="rounded=0;whiteSpace=wrap;html=1;fillColor=#0050ef;fontColor=#ffffff;strokeColor=#001DBC;" parent="1" vertex="1">
          <mxGeometry x="-759.5" y="1321" width="784" height="124" as="geometry" />
        </mxCell>
        <mxCell id="P_JwN5DNRsCG7_sgpVhp-47" value="" style="dashed=0;outlineConnect=0;html=1;align=center;labelPosition=center;verticalLabelPosition=bottom;verticalAlign=top;shape=mxgraph.webicons.mongodb;gradientColor=#DFDEDE" parent="1" vertex="1">
          <mxGeometry x="4822.4400000000005" y="-47.75" width="91.12" height="89.5" as="geometry" />
        </mxCell>
        <mxCell id="P_JwN5DNRsCG7_sgpVhp-48" value="&lt;font color=&quot;#ffffff&quot; style=&quot;font-size: 40px;&quot;&gt;PostgreSQL&lt;/font&gt;" style="strokeWidth=2;html=1;shape=mxgraph.flowchart.database;whiteSpace=wrap;fillColor=#fa6800;fontColor=#000000;strokeColor=#C73500;" parent="1" vertex="1">
          <mxGeometry x="4708" y="-545" width="320" height="274" as="geometry" />
        </mxCell>
        <mxCell id="P_JwN5DNRsCG7_sgpVhp-46" value="" style="image;aspect=fixed;html=1;points=[];align=center;fontSize=12;image=img/lib/azure2/databases/Azure_Database_PostgreSQL_Server.svg;" parent="1" vertex="1">
          <mxGeometry x="4834.06" y="-370.17" width="63.88" height="85.17" as="geometry" />
        </mxCell>
        <mxCell id="P_JwN5DNRsCG7_sgpVhp-49" value="&lt;div style=&quot;font-family: Consolas, &amp;quot;Courier New&amp;quot;, monospace; line-height: 19px; white-space: pre;&quot;&gt;&lt;font style=&quot;font-size: 50px;&quot;&gt;talkverse-databases&lt;/font&gt;&lt;/div&gt;" style="rounded=0;whiteSpace=wrap;html=1;fillColor=#0050ef;fontColor=#ffffff;strokeColor=#001DBC;" parent="1" vertex="1">
          <mxGeometry x="4558" y="-708" width="612" height="124" as="geometry" />
        </mxCell>
        <mxCell id="o8Q1-NqU3i1i7vPGONUi-1" value="one worker from workers pool as per topic and groupId consumes one message" style="rounded=0;html=1;whiteSpace=wrap;spacing=5;" parent="1" vertex="1">
          <mxGeometry x="3372" y="880.5" width="161" height="72" as="geometry" />
        </mxCell>
        <mxCell id="o8Q1-NqU3i1i7vPGONUi-3" style="edgeStyle=orthogonalEdgeStyle;rounded=0;orthogonalLoop=1;jettySize=auto;html=1;exitX=0.5;exitY=1;exitDx=0;exitDy=0;entryX=0.5;entryY=0;entryDx=0;entryDy=0;" parent="1" source="P_JwN5DNRsCG7_sgpVhp-16" target="P_JwN5DNRsCG7_sgpVhp-18" edge="1">
          <mxGeometry relative="1" as="geometry">
            <Array as="points">
              <mxPoint x="4088" y="899" />
              <mxPoint x="4022" y="899" />
            </Array>
          </mxGeometry>
        </mxCell>
        <mxCell id="vw7E1S2aqgENELVfg7yt-1" value="&lt;font style=&quot;font-size: 40px;&quot;&gt;Client&lt;/font&gt;" style="text;html=1;align=center;verticalAlign=middle;resizable=0;points=[];autosize=1;strokeColor=none;fillColor=none;" parent="1" vertex="1">
          <mxGeometry x="507" y="-920" width="120" height="60" as="geometry" />
        </mxCell>
        <mxCell id="vw7E1S2aqgENELVfg7yt-2" value="&lt;font style=&quot;font-size: 40px;&quot;&gt;Server&lt;/font&gt;" style="text;html=1;align=center;verticalAlign=middle;resizable=0;points=[];autosize=1;strokeColor=none;fillColor=none;" parent="1" vertex="1">
          <mxGeometry x="821" y="-920" width="136" height="60" as="geometry" />
        </mxCell>
        <mxCell id="vw7E1S2aqgENELVfg7yt-3" value="INFO: for explanation message topic workflow is used in&amp;nbsp; this diagram" style="rounded=0;whiteSpace=wrap;html=1;spacing=5;fillColor=#d80073;fontColor=#ffffff;strokeColor=#A50040;" parent="1" vertex="1">
          <mxGeometry x="3374.5" y="-222" width="156" height="66" as="geometry" />
        </mxCell>
        <mxCell id="vw7E1S2aqgENELVfg7yt-4" value="&lt;span style=&quot;font-size: 45px; text-wrap: nowrap;&quot;&gt;Apache - Kafka&lt;/span&gt;" style="rounded=1;whiteSpace=wrap;html=1;fillColor=#647687;strokeColor=#314354;fontColor=#ffffff;" parent="1" vertex="1">
          <mxGeometry x="3561.5" y="-535" width="368" height="70" as="geometry" />
        </mxCell>
      </root>
    </mxGraphModel>
  </diagram>
</mxfile>
